<?xml version="1.0" standalone="no"?>
<!DOCTYPE svg PUBLIC "-//W3C//DTD SVG 1.1//EN" "http://www.w3.org/Graphics/SVG/1.1/DTD/svg11.dtd" >
<svg xmlns="http://www.w3.org/2000/svg">
<metadata>
Created by FontPrep 20130207 at Fri Sep  6 12:08:42 2013
 By Richard Lehmann
Copyright 2012 Dalton Maag Ltd. Modification of this file requires prior written permission from Dalton Maag Ltd.
</metadata>
<defs>
<font id="58805a2f72ca4e8b77e9d14ef9100085" horiz-adv-x='1024' >
  <font-face 
    font-family="FinlandiaInterface-Regular"
    font-weight="400"
    font-stretch="condensed"
    units-per-em="2048"
    panose-1="2 11 5 6 2 2 3 2 2 4"
    ascent="1638"
    descent="-410"
    x-height="977"
    cap-height="1366"
    bbox="-332 -459 2048 1833"
    underline-thickness="122"
    underline-position="-307"
    unicode-range="U+0008-FB04"
  />
<missing-glyph horiz-adv-x="1024" 
d="M819 102v1332h-614v-1332h614zM102 0v1536h820v-1536h-820z" />
    <glyph glyph-name="f_f" unicode="ff" horiz-adv-x="931" 
d="M360 1278q-48 0 -68 -40t-22 -126v-135h160v-119h-160v-858h-135v858h-98v119h98v156q0 123 56 191t153 69q97 0 176 -50l-45 -98q-67 33 -115 33zM813 1278q-49 0 -69 -40t-21 -126v-135h160v-119h-160v-858h-135v858h-99v119h99v156q0 123 56 191t152 69q96 0 177 -50
l-45 -98q-66 33 -115 33z" />
    <glyph glyph-name="f_i" unicode="fi" horiz-adv-x="788" 
d="M532 0v977h136v-977h-136zM270 1075v-98h160v-119h-160v-858h-135v858h-98v119h98v98q0 158 78 237t217 80q140 1 242 -100l-80 -90q-74 74 -155 75t-124 -44t-43 -158z" />
    <glyph glyph-name="f_l" unicode="fl" horiz-adv-x="798" 
d="M481 1384q74 0 197 -16v-1368h-135v1262q-17 2 -33 2h-33q-205 0 -209 -254v-33h162v-119h-160v-858h-135v858h-98v119h98v41q0 191 96 278q96 88 250 88z" />
    <glyph glyph-name="f_f_i" unicode="ffi" horiz-adv-x="1239" 
d="M360 1278q-48 0 -68 -40t-22 -126v-135h160v-119h-160v-858h-135v858h-98v119h98v156q0 123 56 191t153 69q97 0 176 -50l-45 -98q-67 33 -115 33zM983 0v977h135v-977h-135zM721 1075v-98h160v-119h-160v-858h-135v858h-99v119h99v98q0 160 78 238t217 79t241 -100
l-80 -90q-74 74 -168 76q-153 0 -153 -203z" />
    <glyph glyph-name="f_f_l" unicode="ffl" horiz-adv-x="1247" 
d="M360 1278q-48 0 -68 -40t-22 -126v-135h160v-119h-160v-858h-135v858h-98v119h98v156q0 123 56 191t153 69q97 0 176 -50l-45 -98q-67 33 -115 33zM1126 0h-135v1262q-17 2 -33 2h-32q-148 0 -193 -135q-16 -48 -16 -119v-33h162v-119h-160v-858h-135v858h-99v119h99v41
q0 100 27 171q77 195 318 195q73 0 197 -16v-1368z" />
    <glyph glyph-name=".notdef" horiz-adv-x="1024" 
d="M819 102v1332h-614v-1332h614zM102 0v1536h820v-1536h-820z" />
    <glyph glyph-name=".null" horiz-adv-x="0" 
 />
    <glyph glyph-name=".null" horiz-adv-x="0" 
 />
    <glyph glyph-name=".null" horiz-adv-x="0" 
 />
    <glyph glyph-name="nonmarkingreturn" unicode="&#x9;" horiz-adv-x="337" 
 />
    <glyph glyph-name="nonmarkingreturn" unicode="&#xd;" horiz-adv-x="337" 
 />
    <glyph glyph-name="space" unicode=" " horiz-adv-x="337" 
 />
    <glyph glyph-name="exclam" unicode="!" horiz-adv-x="333" 
d="M63 80q0 43 30 74q30 30 73 30t74 -30q30 -30 30 -74q0 -43 -30 -73t-74 -30q-43 0 -73 30t-30 73zM102 377v989h136v-989h-136z" />
    <glyph glyph-name="quotedbl" unicode="&#x22;" horiz-adv-x="583" 
d="M88 760v606h148v-606h-148zM348 760v606h148v-606h-148z" />
    <glyph glyph-name="numbersign" unicode="#" horiz-adv-x="897" 
d="M537 883h-177v-248h177v248zM670 502v-350h-133v350h-177v-350h-133v350h-221v133h221v248h-221v131h221v352h133v-352h177v352h133v-352h221v-131h-221v-248h221v-133h-221z" />
    <glyph glyph-name="dollar" unicode="$" horiz-adv-x="819" 
d="M596 350q0 108 -39 176t-98 99v-516q137 34 137 241zM207 1063q0 -97 33 -149t100 -89v432q-133 -36 -133 -194zM741 356q-1 -168 -75 -263t-207 -118v-276h-119v276q-119 8 -196 73t-103 157l123 53q41 -140 176 -147v559q-131 53 -204 144t-73 241q0 151 78 233
t199 103v270h119v-270q100 -9 169 -71t97 -165l-127 -51q-35 129 -139 151v-473q133 -57 208 -157q74 -101 74 -269z" />
    <glyph glyph-name="percent" unicode="%" horiz-adv-x="1130" 
d="M729 299q1 -211 105 -211t104 211q0 99 -27 155t-77 56q-105 0 -105 -211zM299 854q104 0 104 211t-104 211q-51 0 -78 -55t-26 -156q0 -211 104 -211zM1053 299q1 -160 -63 -237q-64 -76 -156 -76t-155 76q-62 77 -63 237q0 160 62 237q62 76 156 76q92 0 156 -76
t63 -237zM162 -14l-90 65l897 1323l90 -65zM518 1065q0 -160 -63 -237q-63 -76 -155 -76t-156 76q-62 77 -62 237t62 237q62 76 154 76t157 -76q63 -77 63 -237z" />
    <glyph glyph-name="ampersand" unicode="&#x26;" horiz-adv-x="921" 
d="M362 729q-157 -119 -157 -376q-1 -257 145 -257q139 0 219 240zM539 1116q0 154 -103 154q-53 0 -79 -41q-43 -68 -15 -180q10 -41 39 -95l33 -55q125 92 125 217zM211 1120q0 117 63 187q62 69 160 69t163 -58t65 -184q0 -209 -193 -343l154 -291q71 223 138 333
q26 40 52 62l61 -121q-65 -76 -135 -299q-20 -63 -41 -121l185 -354h-140l-102 199q-100 -221 -289 -222q-129 -1 -205 97t-75 291q0 311 237 469l-37 69q-23 45 -42 96t-19 121z" />
    <glyph glyph-name="quotesingle" unicode="'" horiz-adv-x="319" 
d="M88 760v606h143v-606h-143z" />
    <glyph glyph-name="parenleft" unicode="(" horiz-adv-x="485" 
d="M96 698q0 280 84 487t211 308l68 -86q-91 -98 -151 -272q-60 -175 -60 -437t59 -436t152 -272l-68 -86q-59 47 -112 121q-183 255 -183 673z" />
    <glyph glyph-name="parenright" unicode=")" horiz-adv-x="485" 
d="M389 698q0 -284 -84 -490q-84 -205 -211 -304l-67 86q92 98 151 272t60 436q0 262 -60 436t-151 273l67 86q203 -162 272 -520q23 -125 23 -275z" />
    <glyph glyph-name="asterisk" unicode="*" horiz-adv-x="663" 
d="M274 1386h109v-186l156 113l59 -90l-182 -125l190 -123l-53 -98l-170 116v-198h-109v198l-163 -121l-54 101l187 123l-185 127l60 94l155 -117v186z" />
    <glyph glyph-name="plus" unicode="+" horiz-adv-x="839" 
d="M487 471v-330h-139v330h-309v133h309v330h139v-330h310v-133h-310z" />
    <glyph glyph-name="comma" unicode="," horiz-adv-x="333" 
d="M270 64q0 -150 -141 -233q-39 -24 -78 -34l-16 53q94 57 121 138q-37 4 -61 34q-23 30 -23 72t26 71q27 30 71 30t73 -37q28 -38 28 -94z" />
    <glyph glyph-name="hyphen" unicode="-" horiz-adv-x="538" 
d="M84 471v133h371v-133h-371z" />
    <glyph glyph-name="period" unicode="." horiz-adv-x="333" 
d="M63 80q0 43 30 74q30 30 73 30t74 -30q30 -30 30 -74q0 -43 -30 -73t-74 -30q-43 0 -73 30t-30 73z" />
    <glyph glyph-name="slash" unicode="/" horiz-adv-x="743" 
d="M123 -51l-117 49l619 1554l114 -49z" />
    <glyph glyph-name="zero" unicode="0" horiz-adv-x="819" 
d="M598 680q0 287 -44 430t-144 143t-144 -143t-45 -430q0 -287 44 -435t145 -149q188 0 188 584zM68 678q0 340 82 520t260 180t260 -180t82 -520q0 -705 -342 -707q-342 0 -342 707z" />
    <glyph glyph-name="one" unicode="1" horiz-adv-x="819" 
d="M395 0v1176l-186 -181l-86 86l287 271h127v-1352h-142z" />
    <glyph glyph-name="two" unicode="2" horiz-adv-x="819" 
d="M115 0v90l229 397q97 172 139 286q41 114 41 255q0 223 -143 223q-72 0 -109 -51t-61 -133l-123 37q48 189 185 252q50 23 118 22q129 0 203 -82t74 -236t-44 -289q-44 -134 -122 -269l-215 -375h405v-127h-577z" />
    <glyph glyph-name="three" unicode="3" horiz-adv-x="819" 
d="M686 373q0 -193 -85 -294t-217 -101t-205 62q-73 64 -109 181l123 58q29 -78 69 -128t111 -51q168 0 168 277q0 256 -217 268v115q98 4 148 77t50 191t-39 170q-39 53 -102 53q-91 0 -138 -102q-13 -29 -24 -57l-121 49q83 237 299 237q123 0 198 -89t75 -237t-52 -228
q-52 -81 -124 -115q192 -65 192 -336z" />
    <glyph glyph-name="four" unicode="4" horiz-adv-x="819" 
d="M504 528v549l-301 -549h301zM631 408v-408h-127v408h-422v129l450 813h99v-822h98v-120h-98z" />
    <glyph glyph-name="five" unicode="5" horiz-adv-x="819" 
d="M371 100q172 0 172 316q0 346 -318 346h-82v588h508v-125h-383v-346h13q286 0 382 -256q31 -88 31 -204q0 -220 -88 -331t-220 -111q-132 -1 -199 59t-101 161l125 55q20 -56 56 -104t104 -48z" />
    <glyph glyph-name="six" unicode="6" horiz-adv-x="819" 
d="M414 90q147 0 147 330t-153 330q-55 0 -87 -25t-59 -59q-14 -78 -14 -213t21 -210t55 -114t90 -39zM705 421q0 -214 -80 -331t-224 -117t-220 145q-75 145 -76 359q-3 563 282 793q88 72 199 104l39 -106q-127 -39 -232 -176q-103 -138 -119 -291q14 23 56 47t94 24
q135 0 208 -118t73 -333z" />
    <glyph glyph-name="seven" unicode="7" horiz-adv-x="819" 
d="M51 1219v131h656v-103l-361 -1247h-141l354 1219h-508z" />
    <glyph glyph-name="eight" unicode="8" horiz-adv-x="819" 
d="M252 373q0 -151 44 -217t114 -66t114 66t43 216q1 277 -157 277t-158 -276zM266 1013q0 -255 144 -255t143 254q0 254 -143 256q-144 0 -144 -255zM709 373q0 -201 -82 -300t-217 -99t-217 98q-82 100 -82 301q0 257 151 334q-137 91 -137 317q0 168 78 261t207 93
q128 0 206 -93t78 -261q0 -98 -28 -181t-109 -136q152 -78 152 -334z" />
    <glyph glyph-name="nine" unicode="9" horiz-adv-x="819" 
d="M240 920q0 -318 155 -318q55 0 89 28t57 56q12 62 12 204q1 143 -19 218q-20 74 -51 114t-81 40q-90 0 -132 -102q-30 -77 -30 -240zM698 808q0 -148 -34 -292q-68 -287 -249 -433q-89 -73 -198 -106l-39 115q135 54 233 175t117 284q-14 -23 -55 -47t-94 -25
q-135 0 -208 116t-73 332t82 334t217 117q301 0 301 -570z" />
    <glyph glyph-name="colon" unicode=":" horiz-adv-x="333" 
d="M63 80q0 43 30 74q30 30 73 30t74 -30q30 -30 30 -74q0 -43 -30 -73t-74 -30q-43 0 -73 30t-30 73zM63 844q0 43 30 74q30 30 73 30t74 -30q30 -30 30 -74q0 -43 -30 -73t-74 -30q-43 0 -73 30t-30 73z" />
    <glyph glyph-name="semicolon" unicode=";" horiz-adv-x="333" 
d="M268 64q0 -150 -141 -233q-39 -24 -78 -34l-16 53q94 57 121 138q-37 4 -61 34q-23 30 -23 72t26 71q27 30 71 30t73 -37q28 -38 28 -94zM63 844q0 43 30 74q30 30 73 30t74 -30q30 -30 30 -74q0 -43 -30 -73t-74 -30q-43 0 -73 30t-30 73z" />
    <glyph glyph-name="less" unicode="&#x3c;" horiz-adv-x="819" 
d="M735 150l-710 333v107l714 319l56 -125l-582 -243l582 -267z" />
    <glyph glyph-name="equal" unicode="=" horiz-adv-x="819" 
d="M47 272v134h725v-134h-725zM47 672v131h725v-131h-725z" />
    <glyph glyph-name="greater" unicode="&#x3e;" horiz-adv-x="819" 
d="M25 270l581 267l-581 243l55 129l715 -319v-107l-711 -333z" />
    <glyph glyph-name="question" unicode="?" horiz-adv-x="571" 
d="M168 80q0 43 30 74q30 30 72 30t74 -30q31 -30 31 -74q0 -43 -31 -73t-74 -30q-42 0 -72 30t-30 73zM338 451v-74h-129v86q0 88 30 157q30 68 73 146q44 78 68 142q24 63 25 155t-34 142t-95 50t-92 -40q-31 -40 -63 -117l-117 43q35 104 100 171q66 66 184 66t188 -81
t69 -208q0 -127 -30 -202t-85 -175q-56 -100 -74 -155t-18 -106z" />
    <glyph glyph-name="at" unicode="@" horiz-adv-x="1161" 
d="M709 772q-154 0 -154 -287q0 -157 42 -231t114 -74q104 0 153 76v449q-67 67 -155 67zM866 127q-61 -82 -164 -82q-207 0 -272 239q-22 82 -22 200q1 320 175 404q50 24 105 23q101 0 178 -71v118q0 147 -73 229q-74 81 -209 81q-166 0 -254 -180t-88 -540
q0 -359 170 -622l-123 -76q-188 285 -191 717q0 825 486 826q202 0 311 -119t106 -299v-1053q0 -86 58 -88q48 0 84 27l53 -113q-70 -45 -149 -45q-181 0 -181 197v227z" />
    <glyph glyph-name="A" unicode="A" horiz-adv-x="897" 
d="M442 1083l-151 -622h307zM713 0l-84 336h-367l-82 -336h-139l354 1366h99l362 -1366h-143z" />
    <glyph glyph-name="B" unicode="B" horiz-adv-x="813" 
d="M586 381q0 139 -46 207t-151 67h-121v-534h152q166 0 166 260zM545 1030q0 215 -150 215h-127v-469h117q78 0 119 70t41 184zM741 381q0 -177 -81 -279t-220 -102h-309v1366h258q155 0 229 -93t74 -239t-50 -217q-50 -72 -116 -92q139 -25 194 -189q21 -63 21 -155z" />
    <glyph glyph-name="C" unicode="C" horiz-adv-x="843" 
d="M242 676q0 -572 227 -574q113 0 165 122q15 36 30 79l129 -47q-49 -185 -190 -255q-56 -28 -142 -28t-158 40q-217 121 -217 665q0 365 104 540t289 175q129 0 201 -76t106 -205l-133 -47q-35 98 -63 132q-53 65 -119 67q-123 0 -176 -154t-53 -434z" />
    <glyph glyph-name="D" unicode="D" horiz-adv-x="925" 
d="M688 698q0 305 -94 437q-78 111 -232 110h-83v-1124h73q104 0 179 55q157 115 157 522zM379 1366q465 0 465 -668q0 -542 -283 -661q-90 -37 -199 -37h-227v1366h244z" />
    <glyph glyph-name="E" unicode="E" horiz-adv-x="774" 
d="M129 0v1366h578v-123h-433v-465h316v-123h-318v-532h449v-123h-592z" />
    <glyph glyph-name="F" unicode="F" horiz-adv-x="706" 
d="M274 1243v-489h285v-123h-287v-631h-143v1366h541v-123h-396z" />
    <glyph glyph-name="G" unicode="G" horiz-adv-x="903" 
d="M520 102q72 0 142 29v389h-168v123h311v-592q-124 -74 -261 -76q-136 -2 -218 38q-163 80 -211 343q-25 134 -25 322q0 356 108 546q97 169 279 169q133 0 206 -75t108 -206l-134 -47q-35 94 -73 146q-39 52 -109 53q-229 0 -229 -588q0 -319 64 -446q65 -128 210 -128z
" />
    <glyph glyph-name="H" unicode="H" horiz-adv-x="976" 
d="M700 0v639h-421v-639h-144v1366h144v-602h421v602h142v-1366h-142z" />
    <glyph glyph-name="I" unicode="I" horiz-adv-x="413" 
d="M135 0v1366h144v-1366h-144z" />
    <glyph glyph-name="J" unicode="J" horiz-adv-x="419" 
d="M285 1366v-1303q0 -287 -273 -337l-35 122q96 27 131 77q34 50 33 138v1303h144z" />
    <glyph glyph-name="K" unicode="K" horiz-adv-x="835" 
d="M272 0h-143v1366h143v-618l367 618h152l-312 -522l332 -844h-172l-262 698l-105 -174v-524z" />
    <glyph glyph-name="L" unicode="L" horiz-adv-x="712" 
d="M135 0v1366h144v-1241h413v-125h-557z" />
    <glyph glyph-name="M" unicode="M" horiz-adv-x="1150" 
d="M887 0v1075l-266 -1087h-78l-279 1079v-1067h-129v1366h172l277 -1104l262 1104h170v-1366h-129z" />
    <glyph glyph-name="N" unicode="N" horiz-adv-x="980" 
d="M274 0h-139v1366h144l428 -1006v1006h139v-1366h-113l-459 1090v-1090z" />
    <glyph glyph-name="O" unicode="O" horiz-adv-x="978" 
d="M492 1264q-250 0 -250 -579t250 -583q245 0 245 579q0 580 -245 583zM310 24q-224 149 -224 659q0 509 224 658q78 51 182 51t180 -50q221 -150 221 -659t-221 -658q-76 -51 -180 -51q-104 -2 -182 50z" />
    <glyph glyph-name="P" unicode="P" horiz-adv-x="829" 
d="M604 955q0 153 -49 222t-160 68h-121v-575h97q125 0 179 66t54 219zM758 959q0 -201 -98 -305t-273 -105h-113v-549h-139v1366h273q184 0 267 -103t83 -304z" />
    <glyph glyph-name="Q" unicode="Q" horiz-adv-x="978" 
d="M492 1264q-250 0 -250 -579t250 -583q245 0 245 579q0 580 -245 583zM672 1341q221 -148 221 -630q0 -481 -182 -654q-61 -57 -148 -75q17 -58 61 -98t136 -48l-15 -119q-129 11 -211 69t-126 198q-239 51 -303 435q-19 121 -19 273q0 501 224 649q78 51 182 51t180 -51z
" />
    <glyph glyph-name="R" unicode="R" horiz-adv-x="843" 
d="M596 995q0 250 -186 250h-142v-524h117q115 -1 163 69t48 205zM750 1004q0 -280 -189 -367l211 -637h-158l-190 600h-156v-600h-137v1366h307q160 0 236 -101t76 -261z" />
    <glyph glyph-name="S" unicode="S" horiz-adv-x="759" 
d="M535 696q153 -125 153 -327t-93 -300t-223 -98t-214 67q-82 67 -113 175l131 51q35 -84 78 -122q42 -38 114 -38t122 58t50 177t-47 187q-48 68 -159 135t-160 128q-100 123 -99 279t92 239q91 84 220 86q215 0 299 -224l-133 -57q-25 74 -65 113t-108 39t-114 -52
q-45 -52 -45 -128t22 -132q29 -74 201 -190q47 -32 91 -66z" />
    <glyph glyph-name="T" unicode="T" horiz-adv-x="796" 
d="M471 1241v-1241h-143v1241h-283v125h707v-125h-281z" />
    <glyph glyph-name="U" unicode="U" horiz-adv-x="944" 
d="M262 406q0 -306 209 -306q115 0 163 83t48 223v960h143v-965q0 -211 -98 -320q-98 -108 -254 -108q-250 0 -328 227q-27 79 -26 187v979h143v-960z" />
    <glyph glyph-name="V" unicode="V" horiz-adv-x="886" 
d="M504 0h-119l-340 1366h148l253 -1079l252 1079h144z" />
    <glyph glyph-name="W" unicode="W" horiz-adv-x="1206" 
d="M924 0h-123l-195 1104l-194 -1104h-123l-238 1366h133l176 -1032l183 1032h125l188 -1030l170 1030h129z" />
    <glyph glyph-name="X" unicode="X" horiz-adv-x="813" 
d="M625 0l-222 559l-219 -559h-147l297 711l-271 655h152l193 -500l194 500h146l-269 -649l297 -717h-151z" />
    <glyph glyph-name="Y" unicode="Y" horiz-adv-x="860" 
d="M496 0h-144v655l-311 711h154l235 -557l240 557h149l-323 -711v-655z" />
    <glyph glyph-name="Z" unicode="Z" horiz-adv-x="792" 
d="M61 0v133l514 1110h-489v123h619v-158l-502 -1085h522v-123h-664z" />
    <glyph glyph-name="bracketleft" unicode="[" horiz-adv-x="387" 
d="M113 -293v1800h268v-123h-133v-1552h133v-125h-268z" />
    <glyph glyph-name="backslash" unicode="\" horiz-adv-x="743" 
d="M12 1503l117 49l619 -1554l-119 -49z" />
    <glyph glyph-name="bracketright" unicode="]" horiz-adv-x="387" 
d="M6 -293v125h133v1552h-133v123h268v-1800h-268z" />
    <glyph glyph-name="asciicircum" unicode="^" horiz-adv-x="1040" 
d="M768 610l-258 537l-231 -535l-129 54l319 704h86l336 -700z" />
    <glyph glyph-name="underscore" unicode="_" horiz-adv-x="1024" 
d="M0 -430v123h1024v-123h-1024z" />
    <glyph glyph-name="grave" unicode="`" horiz-adv-x="917" 
d="M524 1114l-331 254l96 98l301 -284z" />
    <glyph glyph-name="a" unicode="a" horiz-adv-x="694" 
d="M322 96q44 0 80 28t51 62v330q-111 -5 -160 -39q-49 -33 -73 -78t-23 -120q0 -183 125 -183zM453 723q0 164 -108 164q-56 0 -87 -30t-57 -79l-99 68q40 76 98 116t159 40t164 -69q62 -69 63 -214v-719h-123l-6 74q-15 -33 -59 -65t-126 -32t-147 76q-63 76 -63 204
t39 196q97 165 352 178v92z" />
    <glyph glyph-name="b" unicode="b" horiz-adv-x="784" 
d="M561 499q0 185 -48 282q-49 97 -125 97t-132 -53v-698q45 -29 100 -29q98 0 152 108q53 108 53 293zM121 1366h135v-414q76 49 150 49q138 0 220 -125q83 -125 83 -372t-96 -387t-236 -140t-256 74v1315z" />
    <glyph glyph-name="c" unicode="c" horiz-adv-x="686" 
d="M219 489q0 -389 166 -389q102 0 143 150l117 -41q-35 -119 -105 -175t-156 -56q-310 -2 -310 511q0 363 174 475q58 38 130 38q203 -1 261 -238l-119 -37q-12 59 -46 107t-85 47q-51 0 -84 -35q-86 -91 -86 -357z" />
    <glyph glyph-name="d" unicode="d" horiz-adv-x="788" 
d="M223 498q0 -400 176 -400q90 0 133 113v620q-46 46 -125 47q-79 2 -131 -96t-53 -284zM76 485q0 254 96 395q84 121 217 119q83 0 143 -41v408h136v-1366h-125l-6 63q-63 -84 -152 -85q-90 -1 -145 36q-164 110 -164 471z" />
    <glyph glyph-name="e" unicode="e" horiz-adv-x="741" 
d="M528 612q-4 150 -47 212t-102 62q-134 1 -162 -274h311zM395 -23q-321 0 -321 517q0 248 84 378t230 129q146 0 218 -130q74 -130 74 -365h-465q0 -408 180 -408q92 0 132 97q11 27 18 51l119 -47q-29 -92 -94 -157t-175 -65z" />
    <glyph glyph-name="f" unicode="f" horiz-adv-x="479" 
d="M360 1278q-48 0 -68 -40t-22 -126v-135h160v-119h-160v-858h-135v858h-98v119h98v156q0 123 56 191t153 69q97 0 176 -50l-45 -98q-67 33 -115 33z" />
    <glyph glyph-name="g" unicode="g" horiz-adv-x="763" 
d="M404 -301q89 0 146 48q56 49 56 155t-111 145q-43 13 -124 20q-80 7 -88 11q-86 -66 -85 -172t59 -156t147 -51zM543 662q0 114 -49 168q-50 54 -110 54t-110 -52q-50 -54 -49 -170q0 -116 49 -170q50 -54 110 -54t110 54t49 170zM240 266q0 -33 36 -47t113 -20
q163 -13 243 -65q107 -71 107 -226t-94 -237q-94 -83 -246 -84q-151 -1 -241 77t-90 227t118 222q-79 36 -77 123q0 57 32 94q33 37 74 53q-74 50 -112 173q-13 46 -13 120q0 144 92 243q80 82 188 82t173 -47l75 109l99 -68l-90 -129q53 -83 53 -185q0 -178 -86 -269
q-86 -90 -213 -90q-42 0 -90 12q-51 -9 -51 -68z" />
    <glyph glyph-name="h" unicode="h" horiz-adv-x="817" 
d="M705 0h-136v692q0 102 -30 148q-31 45 -110 45t-173 -92v-793h-135v1366h135v-448q100 85 213 84t173 -72q61 -71 63 -174v-756z" />
    <glyph glyph-name="i" unicode="i" horiz-adv-x="376" 
d="M121 0v977h135v-977h-135zM92 1292q0 41 29 71t69 30t71 -30q30 -30 30 -71q0 -42 -30 -70t-71 -28q-42 0 -70 28t-28 70z" />
    <glyph glyph-name="j" unicode="j" horiz-adv-x="380" 
d="M260 977v-1004q0 -207 -117 -320q-33 -32 -63 -56l-76 98q53 51 87 112t34 166v1004h135zM96 1292q0 41 29 71t70 30t71 -30t29 -71q0 -42 -30 -70q-31 -28 -71 -28t-69 28t-29 70z" />
    <glyph glyph-name="k" unicode="k" horiz-adv-x="729" 
d="M256 0h-135v1366h135v-770l256 381h150l-224 -326l271 -651h-140l-225 535l-88 -127v-408z" />
    <glyph glyph-name="l" unicode="l" horiz-adv-x="376" 
d="M121 0v1366h135v-1366h-135z" />
    <glyph glyph-name="m" unicode="m" horiz-adv-x="1241" 
d="M1128 756v-756h-135v692q0 102 -28 148q-29 45 -91 45q-109 0 -184 -97q2 -8 2 -16v-772h-135v692q0 102 -29 148t-108 45q-79 0 -164 -92v-793h-135v977h125l6 -64q43 39 88 64t129 24q128 0 188 -108q102 110 248 108q103 0 163 -70q60 -71 60 -175z" />
    <glyph glyph-name="n" unicode="n" horiz-adv-x="817" 
d="M421 885q-85 0 -165 -92v-793h-135v977h125l6 -64q43 39 91 64q47 25 117 25q119 -1 181 -72q62 -70 64 -174v-756h-136v692q0 102 -31 148q-32 45 -117 45z" />
    <glyph glyph-name="o" unicode="o" horiz-adv-x="784" 
d="M567 490q0 390 -174 391q-96 0 -141 -125q-35 -96 -35 -269t35 -264q45 -123 141 -123q174 0 174 390zM711 489q0 -361 -179 -474q-59 -38 -141 -38t-141 38q-176 113 -176 474t179 475q60 38 141 38q160 -1 238 -140q79 -139 79 -373z" />
    <glyph glyph-name="p" unicode="p" horiz-adv-x="788" 
d="M565 498q0 381 -168 381q-91 0 -141 -113v-625q41 -41 120 -42t134 99t55 300zM256 -389h-135v1366h125l6 -64q35 39 76 63t112 23q119 1 196 -123t77 -370t-95 -387q-95 -142 -235 -142q-72 0 -127 35v-401z" />
    <glyph glyph-name="q" unicode="q" horiz-adv-x="784" 
d="M271 198q48 -98 126 -98t131 54v718q-35 8 -88 9q-104 0 -160 -108t-56 -293t47 -282zM664 -387h-136v414q-63 -47 -141 -47q-77 0 -131 28q-110 59 -157 246q-24 94 -23 227q0 255 107 388t288 133q92 0 193 -25v-1364z" />
    <glyph glyph-name="r" unicode="r" horiz-adv-x="512" 
d="M397 870q-69 0 -141 -90v-780h-135v977h121l10 -76q77 96 156 96q30 0 79 -14l-20 -123q-40 10 -70 10z" />
    <glyph glyph-name="s" unicode="s" horiz-adv-x="610" 
d="M293 94q121 0 121 154q0 76 -20 113q-39 69 -135 115q-183 88 -183 272q0 118 68 186t159 68q166 -1 227 -171l-104 -55q-35 78 -71 98q-17 10 -42 11q-59 0 -85 -39t-26 -79q1 -74 25 -104t121 -88q94 -51 146 -119q51 -69 51 -199t-70 -205t-177 -75q-192 0 -251 199
l115 45q16 -47 44 -87t87 -40z" />
    <glyph glyph-name="t" unicode="t" horiz-adv-x="522" 
d="M154 197v661h-119v119h119v266h137v-266h180v-119h-182v-657q0 -107 67 -107q51 0 95 37l47 -88q-64 -64 -172 -66q-172 0 -172 220z" />
    <glyph glyph-name="u" unicode="u" horiz-adv-x="817" 
d="M565 63q-93 -88 -209 -88q-117 -1 -180 71t-63 175v756h135v-692q0 -101 32 -147t103 -46q98 0 178 92v793h135v-977h-125z" />
    <glyph glyph-name="v" unicode="v" horiz-adv-x="712" 
d="M430 0h-147l-246 977h135l184 -797l185 797h135z" />
    <glyph glyph-name="w" unicode="w" horiz-adv-x="1021" 
d="M774 0h-119l-145 711l-143 -711h-119l-211 977h135l141 -733l150 733h94l156 -733l137 733h135z" />
    <glyph glyph-name="x" unicode="x" horiz-adv-x="665" 
d="M485 0l-153 367l-156 -367h-139l223 502l-213 475h139l150 -350l151 350h134l-215 -473l223 -504h-144z" />
    <glyph glyph-name="y" unicode="y" horiz-adv-x="712" 
d="M128 -295q40 0 62 32t43 109l52 189l-248 942h143l174 -723l183 723h139l-330 -1186q-28 -104 -82 -160q-46 -43 -112 -44q-67 -1 -125 28l32 106q29 -16 69 -16z" />
    <glyph glyph-name="z" unicode="z" horiz-adv-x="647" 
d="M55 0v143l398 715h-381v119h503v-152l-397 -706h408v-119h-531z" />
    <glyph glyph-name="braceleft" unicode="{" horiz-adv-x="428" 
d="M158 121v344q0 80 -25 122t-106 52v90q83 10 107 52t24 122v344q0 117 54 185t185 69l15 -108q-74 -4 -98 -44t-23 -116v-340q0 -88 -29 -138t-100 -71q72 -20 100 -70t29 -139v-340q-1 -76 23 -116t98 -44l-15 -108q-131 2 -185 70t-54 184z" />
    <glyph glyph-name="bar" unicode="|" horiz-adv-x="380" 
d="M121 -389v1755h139v-1755h-139z" />
    <glyph glyph-name="braceright" unicode="}" horiz-adv-x="428" 
d="M137 475q0 88 29 138t100 71q-72 20 -100 70t-29 139v340q0 76 -23 116q-24 40 -98 44l15 108q131 -1 185 -69t54 -185v-344q0 -80 25 -122t106 -52v-90q-83 -10 -107 -52t-24 -122v-344q0 -117 -54 -185t-185 -69l-15 108q74 4 98 44t23 116v340z" />
    <glyph glyph-name="asciitilde" unicode="~" horiz-adv-x="923" 
d="M279 1192q-127 0 -146 -154h-131q16 137 88 215t201 78q78 1 127 -25t87 -56t73 -54t92 -25q101 0 118 164h134q-7 -145 -89 -225t-169 -81t-132 27t-84 58q-40 30 -78 54t-91 24z" />
    <glyph glyph-name="uni00A0" unicode="&#xa0;" horiz-adv-x="337" 
 />
    <glyph glyph-name="exclamdown" unicode="&#xa1;" horiz-adv-x="333" 
d="M63 897q0 43 30 74t73 31t74 -32q30 -30 30 -73t-30 -73t-74 -30q-43 0 -73 30t-30 73zM229 522v-909h-135v909h135z" />
    <glyph glyph-name="cent" unicode="&#xa2;" horiz-adv-x="819" 
d="M406 950q-56 -10 -88 -77t-32 -181t30 -175q28 -62 90 -91v524zM524 -8h-118v297q-259 59 -261 401q0 167 72 268t189 123v285h118v-285q62 -5 112 -33t75 -59l-52 -106q-62 66 -135 73v-538q61 4 113 49l45 -121q-59 -51 -158 -61v-293z" />
    <glyph glyph-name="sterling" unicode="&#xa3;" horiz-adv-x="819" 
d="M449 1243q-138 0 -138 -235v-355h289v-127h-289v-391h441v-135h-584v526h-115v127h115v355q0 371 289 370q111 0 179 -70t95 -169l-137 -52q-20 72 -52 114t-93 42z" />
    <glyph glyph-name="currency" unicode="&#xa4;" horiz-adv-x="958" 
d="M627 984q-53 91 -142 90q-90 -1 -141 -91t-51 -225q0 -136 52 -227t141 -91q88 0 141 90t53 226t-53 228zM162 754q0 146 57 266l-219 315l92 76l201 -283q89 93 193 93q105 0 186 -84l196 274l90 -76l-210 -303q61 -124 61 -286t-68 -273l217 -315l-88 -78l-204 293
q-82 -78 -185 -78q-102 0 -182 86l-211 -301l-88 78l225 327q-63 123 -63 269z" />
    <glyph glyph-name="yen" unicode="&#xa5;" horiz-adv-x="819" 
d="M473 563h209v-125h-209v-438h-143v438h-209v125h209v92l-33 86h-176v125h117l-220 500h154l238 -555l237 555h150l-228 -500h117v-125h-180l-33 -86v-92z" />
    <glyph glyph-name="brokenbar" unicode="&#xa6;" horiz-adv-x="405" 
d="M129 -152v564h147v-564h-147zM129 946v565h147v-565h-147z" />
    <glyph glyph-name="section" unicode="&#xa7;" horiz-adv-x="819" 
d="M543 508q0 71 -26 123t-103 143q-137 -38 -135 -196q1 -72 39 -127t108 -127q117 64 117 184zM156 575q0 199 196 275q-74 79 -112 144q-39 65 -39 137q0 125 67 192t166 69q98 1 152 -47t84 -126l-107 -52q-23 57 -50 84q-28 27 -75 27q-113 0 -112 -129q0 -61 36 -119
t132 -160q95 -101 134 -177q38 -76 38 -148q0 -160 -111 -245q-31 -24 -59 -42q59 -59 100 -126q41 -68 41 -174t-68 -180t-165 -73q-200 0 -254 174l110 47q43 -112 131 -110q53 0 86 36t33 108t-41 136q-41 63 -134 147q-93 85 -136 157t-43 175z" />
    <glyph glyph-name="dieresis" unicode="&#xa8;" horiz-adv-x="917" 
d="M512 1270q0 42 29 70t69 28t70 -29q29 -29 29 -69t-29 -70q-29 -29 -70 -29q-42 0 -70 29t-28 70zM209 1270q0 42 29 70q30 28 70 28t69 -29t29 -69t-29 -70q-29 -29 -70 -29t-69 29t-29 70z" />
    <glyph glyph-name="copyright" unicode="&#xa9;" horiz-adv-x="1626" 
d="M520 631q0 230 87 352q87 121 224 121q83 0 145 -46t97 -108l-92 -57q-35 47 -66 74t-84 26q-98 0 -143 -91t-45 -268t48 -269t134 -93q53 0 86 28t62 75l90 -62q-96 -145 -229 -145q-223 0 -290 253q-24 87 -24 210zM385 168q174 -178 429 -178t429 179t174 463
t-174 465t-430 181q-255 0 -429 -180q-173 -180 -173 -466t174 -464zM813 -127q-309 1 -514 211q-97 100 -155 240t-58 308q0 333 209 546t518 215q150 1 283 -55q270 -113 387 -397q57 -140 57 -309q0 -331 -213 -548q-98 -100 -231 -156t-283 -55z" />
    <glyph glyph-name="ordfeminine" unicode="&#xaa;" horiz-adv-x="518" 
d="M354 987q-78 0 -135 -35q-57 -34 -57 -108t24 -101t56 -26q65 0 112 59v211zM39 808q0 96 30 148q80 136 285 140q0 86 -24 122q-25 36 -72 35q-70 0 -108 -79l-84 55q29 61 82 97q54 36 120 36q199 0 199 -272v-472h-105l-4 50q-52 -60 -129 -61q-76 -1 -133 52t-57 149
z" />
    <glyph glyph-name="guillemotleft" unicode="&#xab;" horiz-adv-x="753" 
d="M317 111l-311 401l287 418l96 -80l-227 -328l246 -327zM627 111l-312 401l287 418l96 -80l-227 -328l246 -327z" />
    <glyph glyph-name="logicalnot" unicode="&#xac;" horiz-adv-x="839" 
d="M621 260v420h-582v133h719v-553h-137z" />
    <glyph glyph-name="uni00AD" unicode="&#xad;" horiz-adv-x="538" 
d="M84 471v133h371v-133h-371z" />
    <glyph glyph-name="registered" unicode="&#xae;" horiz-adv-x="1626" 
d="M385 168q174 -178 429 -178t429 179t174 463t-174 465t-430 181q-255 0 -429 -180q-173 -180 -173 -466t174 -464zM813 -127q-309 1 -514 211q-97 100 -155 240t-58 308q0 333 209 546t518 215q150 1 283 -55q270 -113 387 -397q57 -140 57 -309q0 -331 -213 -548
q-98 -100 -231 -156t-283 -55zM827 684q138 0 138 152t-131 153h-125v-305h118zM705 578v-388h-105v904h225q127 0 192 -69t64 -181q0 -157 -119 -229q-34 -19 -71 -27l188 -398h-116l-181 388h-77z" />
    <glyph glyph-name="macron" unicode="&#xaf;" horiz-adv-x="917" 
d="M188 1231v119h478v-119h-478z" />
    <glyph glyph-name="degree" unicode="&#xb0;" horiz-adv-x="714" 
d="M504 1092q0 63 -43 111t-112 48t-113 -46q-44 -45 -43 -113q0 -68 46 -114q47 -46 113 -46t109 48t43 112zM616 1091q0 -57 -20 -107q-40 -101 -143 -145q-49 -22 -105 -22q-108 0 -190 80q-82 82 -81 193t81 193q80 83 191 83t189 -80t78 -195z" />
    <glyph glyph-name="plusminus" unicode="&#xb1;" horiz-adv-x="819" 
d="M479 604v-330h-139v330h-293v133h293v330h139v-330h293v-133h-293zM47 0v127h725v-127h-725z" />
    <glyph glyph-name="twosuperior" unicode="&#xb2;" 
d="M248 1376q78 0 124 -50t46 -128t-29 -150t-82 -143q-53 -72 -82 -110h191v-107h-334v86q83 98 137 188t69 130t15 86q0 96 -72 96q-55 0 -112 -94l-76 59q81 137 205 137z" />
    <glyph glyph-name="threesuperior" unicode="&#xb3;" 
d="M233 784q87 0 86 109t-143 106v95q68 0 103 19t34 77q0 82 -75 82q-53 0 -111 -76l-72 64q88 118 201 116q60 0 114 -40t54 -118t-31 -112t-71 -57q108 -41 108 -170q0 -95 -55 -147t-129 -52t-128 33t-83 84l78 69q53 -80 120 -82z" />
    <glyph glyph-name="acute" unicode="&#xb4;" horiz-adv-x="917" 
d="M319 1114l-65 68l301 284l96 -98z" />
    <glyph glyph-name="mu" unicode="&#xb5;" horiz-adv-x="849" 
d="M700 209q0 -107 50 -107q28 0 47 7l16 -109q-31 -20 -79 -20t-85 24t-53 92q-41 -66 -85 -92q-45 -26 -105 -27q-110 0 -158 95v-459h-125v1364h131v-623q0 -135 33 -192q33 -58 107 -58q115 -1 155 117q18 53 18 154v602h133v-768z" />
    <glyph glyph-name="paragraph" unicode="&#xb6;" horiz-adv-x="808" 
d="M159 1247q98 119 247 119h104v-1663h-121v854q-142 15 -235 130t-93 278t98 282zM600 -297v1663h121v-1663h-121z" />
    <glyph glyph-name="periodcentered" unicode="&#xb7;" horiz-adv-x="333" 
d="M63 741q0 43 30 74t73 31t74 -31q30 -31 30 -74t-30 -73t-74 -29q-43 -1 -73 29t-30 73z" />
    <glyph glyph-name="cedilla" unicode="&#xb8;" horiz-adv-x="917" 
d="M600 -203q0 -82 -51 -123t-121 -41t-121 37l37 88q31 -26 65 -26q72 0 72 55t-102 68l70 155h100l-39 -96q90 -35 90 -117z" />
    <glyph glyph-name="onesuperior" unicode="&#xb9;" 
d="M207 690v545l-109 -57l-45 96l170 96h96v-680h-112z" />
    <glyph glyph-name="ordmasculine" unicode="&#xba;" horiz-adv-x="587" 
d="M414 981q0 124 -20 174q-20 51 -42 74q-23 23 -59 22q-121 0 -121 -273t121 -269q121 0 121 272zM412 1330q133 -91 133 -347t-142 -352q-49 -33 -117 -33q-126 0 -192 122q-53 99 -53 263q0 252 139 346q49 33 117 33t115 -32z" />
    <glyph glyph-name="guillemotright" unicode="&#xbb;" horiz-adv-x="753" 
d="M37 195l246 327l-228 328l97 80l286 -418l-311 -401zM346 195l246 327l-227 328l96 80l287 -418l-312 -401z" />
    <glyph glyph-name="onequarter" unicode="&#xbc;" horiz-adv-x="1241" 
d="M197 690v545l-109 -57l-45 96l170 96h96v-680h-112zM213 -14l-90 65l897 1323l90 -65zM1049 180v-178h-109v178h-211v96l234 402h86v-402h55v-96h-55zM940 276v211l-121 -211h121z" />
    <glyph glyph-name="onehalf" unicode="&#xbd;" horiz-adv-x="1241" 
d="M160 -14l-90 65l897 1323l90 -65zM178 690v545l-108 -57l-45 96l170 96h96v-680h-113zM944 690q78 0 124 -50t46 -128q0 -123 -82 -250q-26 -41 -54 -78t-56 -75h190v-107h-334v86q83 98 137 188t69 130t15 86q0 96 -71 96q-54 0 -113 -94l-76 59q81 137 205 137z" />
    <glyph glyph-name="threequarters" unicode="&#xbe;" horiz-adv-x="1241" 
d="M262 -14l-90 65l897 1323l90 -65zM260 784q87 0 86 109t-143 106v95q69 0 103 19t34 77q0 82 -76 82q-53 0 -110 -76l-72 64q88 118 201 116q61 0 114 -40t53 -118t-30 -112q-31 -34 -72 -57q109 -42 109 -170q1 -95 -55 -147t-130 -52t-128 33t-83 84l78 69
q52 -80 121 -82zM1081 180v-178h-108v178h-211v96l233 402h86v-402h56v-96h-56zM973 276v211l-121 -211h121z" />
    <glyph glyph-name="questiondown" unicode="&#xbf;" horiz-adv-x="571" 
d="M199 897q0 43 29 74q30 31 73 31t74 -32q31 -30 31 -73t-31 -73t-74 -30t-73 30q-29 30 -29 73zM233 528v74h129v-86q0 -86 -27 -151t-73 -147q-46 -83 -71 -148t-25 -155q0 -91 35 -141t95 -50t91 40t64 117l116 -43q-35 -104 -101 -171t-182 -67q-118 0 -188 82
q-69 81 -69 208t32 209t85 175t71 148t18 106z" />
    <glyph glyph-name="Agrave" unicode="&#xc0;" horiz-adv-x="897" 
d="M442 1083l-151 -622h307zM713 0l-84 336h-367l-82 -336h-139l354 1366h99l362 -1366h-143zM608 1454l-332 254l97 98l301 -284z" />
    <glyph glyph-name="Aacute" unicode="&#xc1;" horiz-adv-x="897" 
d="M442 1083l-151 -622h307zM713 0l-84 336h-367l-82 -336h-139l354 1366h99l362 -1366h-143zM346 1454l-65 68l301 284l96 -98z" />
    <glyph glyph-name="Acircumflex" unicode="&#xc2;" horiz-adv-x="897" 
d="M442 1083l-151 -622h307zM713 0l-84 336h-367l-82 -336h-139l354 1366h99l362 -1366h-143zM686 1503l-92 -49l-148 193l-137 -197l-100 51l190 268h97z" />
    <glyph glyph-name="Atilde" unicode="&#xc3;" horiz-adv-x="897" 
d="M442 1083l-151 -622h307zM713 0l-84 336h-367l-82 -336h-139l354 1366h99l362 -1366h-143zM575 1532q-49 0 -86 16t-84 45t-67 29q-39 0 -70 -90l-90 33q48 161 145 159q45 0 73 -14t53 -30t49 -31q56 -33 91 2q17 16 32 69l88 -28q-21 -86 -53 -123t-81 -37z" />
    <glyph glyph-name="Adieresis" unicode="&#xc4;" horiz-adv-x="897" 
d="M442 1083l-151 -622h307zM713 0l-84 336h-367l-82 -336h-139l354 1366h99l362 -1366h-143zM502 1610q0 42 28 70t70 28q41 0 70 -29q28 -29 28 -69t-28 -70q-28 -29 -70 -29q-41 0 -70 29q-28 29 -28 70zM199 1610q1 42 29 70t69 28t70 -29t29 -69t-30 -70
q-28 -29 -69 -29t-70 29q-28 29 -28 70z" />
    <glyph glyph-name="Aring" unicode="&#xc5;" horiz-adv-x="897" 
d="M442 1083l-151 -622h307zM713 0l-84 336h-367l-82 -336h-139l354 1366h99l362 -1366h-143zM336 1651q0 -45 32 -77t76 -32t77 32q32 32 32 77t-32 77t-77 31q-44 1 -76 -31t-32 -77zM262 1649q0 78 52 131t130 53t131 -53t53 -131t-52 -130q-54 -53 -132 -53t-130 52
t-52 131z" />
    <glyph glyph-name="AE" unicode="&#xc6;" horiz-adv-x="1323" 
d="M678 567v684l-270 -684h270zM678 0v442h-320l-174 -442h-143l551 1366h663v-123h-432v-465h316v-123h-318v-532h449v-123h-592z" />
    <glyph glyph-name="Ccedilla" unicode="&#xc7;" horiz-adv-x="843" 
d="M586 -203q0 -82 -51 -123t-121 -41t-121 37l37 88q31 -26 65 -26q70 0 72 57q0 53 -102 66l53 120q-164 17 -248 185t-84 526t104 532q104 175 289 175q129 0 201 -76t106 -205l-133 -47q-35 98 -63 132q-53 65 -119 67q-123 0 -176 -154t-53 -434q0 -572 227 -574
q113 0 165 122q15 36 30 79l129 -47q-31 -106 -73 -159q-85 -107 -200 -120l-24 -63q90 -35 90 -117z" />
    <glyph glyph-name="Egrave" unicode="&#xc8;" horiz-adv-x="774" 
d="M129 0v1366h578v-123h-433v-465h316v-123h-318v-532h449v-123h-592zM549 1454l-332 254l96 98l301 -284z" />
    <glyph glyph-name="Eacute" unicode="&#xc9;" horiz-adv-x="774" 
d="M129 0v1366h578v-123h-433v-465h316v-123h-318v-532h449v-123h-592zM311 1454l-65 68l301 284l96 -98z" />
    <glyph glyph-name="Ecircumflex" unicode="&#xca;" horiz-adv-x="774" 
d="M129 0v1366h578v-123h-433v-465h316v-123h-318v-532h449v-123h-592zM664 1503l-93 -49l-147 193l-137 -197l-101 51l191 268h96z" />
    <glyph glyph-name="Edieresis" unicode="&#xcb;" horiz-adv-x="774" 
d="M129 0v1366h578v-123h-433v-465h316v-123h-318v-532h449v-123h-592zM469 1610q0 42 29 70q30 28 70 28t69 -29t29 -69t-29 -70q-29 -29 -70 -29t-69 29t-29 70zM166 1610q0 42 29 70t69 28t70 -29q28 -29 28 -69t-28 -70q-28 -29 -70 -29t-70 29t-28 70z" />
    <glyph glyph-name="Igrave" unicode="&#xcc;" horiz-adv-x="413" 
d="M135 0v1366h144v-1366h-144zM307 1454l-332 254l97 98l301 -284z" />
    <glyph glyph-name="Iacute" unicode="&#xcd;" horiz-adv-x="413" 
d="M135 0v1366h144v-1366h-144zM111 1454l-66 68l301 284l96 -98z" />
    <glyph glyph-name="Icircumflex" unicode="&#xce;" horiz-adv-x="413" 
d="M135 0v1366h144v-1366h-144zM446 1503l-92 -49l-147 193l-137 -197l-101 51l191 268h96z" />
    <glyph glyph-name="Idieresis" unicode="&#xcf;" horiz-adv-x="413" 
d="M135 0v1366h144v-1366h-144zM262 1610q0 42 29 70t69 28t70 -29q29 -29 29 -69t-29 -70q-29 -29 -70 -29q-42 0 -70 29t-28 70zM-41 1610q0 42 29 70q30 28 70 28t69 -29t29 -69t-29 -70q-29 -29 -70 -29t-69 29t-29 70z" />
    <glyph glyph-name="Eth" unicode="&#xd0;" horiz-adv-x="942" 
d="M705 698q0 305 -95 437q-78 111 -231 110h-84v-477h237v-127h-237v-520h74q104 0 179 55q157 115 157 522zM395 1366q465 0 465 -668q0 -541 -282 -661q-90 -37 -199 -37h-227v641h-132v127h132v598h243z" />
    <glyph glyph-name="Ntilde" unicode="&#xd1;" horiz-adv-x="980" 
d="M274 0h-139v1366h144l428 -1006v1006h139v-1366h-113l-459 1090v-1090zM722 1569q-32 -37 -91 -37t-130 45q-29 17 -53 31t-44 14q-39 0 -70 -90l-90 33q48 161 144 159q63 -1 126 -45q24 -16 48 -30q56 -33 92 2q17 16 32 69l88 -28q-20 -86 -52 -123z" />
    <glyph glyph-name="Ograve" unicode="&#xd2;" horiz-adv-x="978" 
d="M492 1264q-250 0 -250 -579t250 -583q245 0 245 579q0 580 -245 583zM310 24q-224 149 -224 659q0 509 224 658q78 51 182 51t180 -50q221 -150 221 -659t-221 -658q-76 -51 -180 -51q-104 -2 -182 50zM651 1454l-332 254l97 98l301 -284z" />
    <glyph glyph-name="Oacute" unicode="&#xd3;" horiz-adv-x="978" 
d="M492 1264q-250 0 -250 -579t250 -583q245 0 245 579q0 580 -245 583zM310 24q-224 149 -224 659q0 509 224 658q78 51 182 51t180 -50q221 -150 221 -659t-221 -658q-76 -51 -180 -51q-104 -2 -182 50zM395 1454l-65 68l301 284l96 -98z" />
    <glyph glyph-name="Ocircumflex" unicode="&#xd4;" horiz-adv-x="978" 
d="M492 1264q-250 0 -250 -579t250 -583q245 0 245 579q0 580 -245 583zM310 24q-224 149 -224 659q0 509 224 658q78 51 182 51t180 -50q221 -150 221 -659t-221 -658q-76 -51 -180 -51q-104 -2 -182 50zM737 1503l-92 -49l-147 193l-138 -197l-100 51l191 268h96z" />
    <glyph glyph-name="Otilde" unicode="&#xd5;" horiz-adv-x="978" 
d="M492 1264q-250 0 -250 -579t250 -583q245 0 245 579q0 580 -245 583zM310 24q-224 149 -224 659q0 509 224 658q78 51 182 51t180 -50q221 -150 221 -659t-221 -658q-76 -51 -180 -51q-104 -2 -182 50zM716 1569q-32 -37 -91 -37t-130 45q-28 17 -53 31q-26 14 -46 14
q-40 0 -68 -90l-90 33q48 161 144 159q63 -1 126 -45q24 -16 48 -30q56 -33 92 2q17 16 32 69l88 -28q-20 -86 -52 -123z" />
    <glyph glyph-name="Odieresis" unicode="&#xd6;" horiz-adv-x="978" 
d="M492 1264q-250 0 -250 -579t250 -583q245 0 245 579q0 580 -245 583zM310 24q-224 149 -224 659q0 509 224 658q78 51 182 51t180 -50q221 -150 221 -659t-221 -658q-76 -51 -180 -51q-104 -2 -182 50zM551 1610q0 42 29 70q30 28 70 28t69 -29t29 -69t-29 -70
q-29 -29 -70 -29t-69 29t-29 70zM248 1610q0 42 28 70t70 28q41 0 70 -29q28 -29 28 -69t-28 -70q-28 -29 -70 -29q-41 0 -70 29q-28 29 -28 70z" />
    <glyph glyph-name="multiply" unicode="&#xd7;" horiz-adv-x="819" 
d="M702 303l-290 285l-291 -287l-94 107l286 280l-276 275l94 106l279 -278l280 278l94 -104l-276 -275l285 -282z" />
    <glyph glyph-name="Oslash" unicode="&#xd8;" horiz-adv-x="978" 
d="M737 684q0 151 -20 279l-406 -732q63 -129 181 -129q245 0 245 582zM492 1264q-250 0 -250 -580q0 -200 26 -315l412 739q-63 156 -188 156zM893 684q0 -511 -221 -659q-76 -51 -180 -52q-162 0 -259 119l-96 -170l-86 60l119 213q-84 180 -84 489q0 509 224 657
q77 51 182 52q170 0 270 -140l90 162l84 -57l-117 -211q74 -180 74 -463z" />
    <glyph glyph-name="Ugrave" unicode="&#xd9;" horiz-adv-x="944" 
d="M262 406q0 -306 209 -306q115 0 163 83t48 223v960h143v-965q0 -211 -98 -320q-98 -108 -254 -108q-250 0 -328 227q-27 79 -26 187v979h143v-960zM621 1454l-332 254l96 98l301 -284z" />
    <glyph glyph-name="Uacute" unicode="&#xda;" horiz-adv-x="944" 
d="M262 406q0 -306 209 -306q115 0 163 83t48 223v960h143v-965q0 -211 -98 -320q-98 -108 -254 -108q-250 0 -328 227q-27 79 -26 187v979h143v-960zM406 1454l-66 68l301 284l96 -98z" />
    <glyph glyph-name="Ucircumflex" unicode="&#xdb;" horiz-adv-x="944" 
d="M262 406q0 -306 209 -306q115 0 163 83t48 223v960h143v-965q0 -211 -98 -320q-98 -108 -254 -108q-250 0 -328 227q-27 79 -26 187v979h143v-960zM719 1503l-92 -49l-148 193l-137 -197l-100 51l190 268h96z" />
    <glyph glyph-name="Udieresis" unicode="&#xdc;" horiz-adv-x="944" 
d="M262 406q0 -306 209 -306q115 0 163 83t48 223v960h143v-965q0 -211 -98 -320q-98 -108 -254 -108q-250 0 -328 227q-27 79 -26 187v979h143v-960zM537 1610q1 42 29 70t69 28t70 -29t29 -69t-30 -70q-28 -29 -69 -29t-70 29q-28 29 -28 70zM233 1610q0 42 29 70t70 28
q42 0 70 -29t28 -69t-29 -70q-29 -29 -69 -29t-70 29q-29 29 -29 70z" />
    <glyph glyph-name="Yacute" unicode="&#xdd;" horiz-adv-x="860" 
d="M496 0h-144v655l-311 711h154l235 -557l240 557h149l-323 -711v-655zM391 1454l-65 68l301 284l96 -98z" />
    <glyph glyph-name="Thorn" unicode="&#xde;" horiz-adv-x="819" 
d="M406 428q98 0 148 66t50 220t-49 222t-160 68h-121v-576h132zM758 711q0 -402 -350 -404h-134v-307h-139v1366h127v-242h146q184 0 267 -104t83 -309z" />
    <glyph glyph-name="germandbls" unicode="&#xdf;" horiz-adv-x="854" 
d="M803 252q0 -122 -69 -198q-69 -77 -169 -77q-100 -1 -157 49t-86 142l112 45q22 -61 50 -88t80 -27t82 40t30 110t-30 123t-119 103t-136 108t-47 142q0 200 157 249q44 14 89 14v57q0 124 -46 174t-98 50t-82 -12q-94 -38 -96 -248v-1008h-133v848h-98v129h98v55
q0 172 85 266t214 95q202 0 264 -196q23 -69 23 -167v-158h-113q-66 0 -102 -34t-35 -90q0 -54 26 -92q25 -38 115 -88t140 -122t51 -194z" />
    <glyph glyph-name="agrave" unicode="&#xe0;" horiz-adv-x="694" 
d="M322 96q44 0 80 28t51 62v330q-111 -5 -160 -39q-49 -33 -73 -78t-23 -120q0 -183 125 -183zM453 723q0 164 -108 164q-56 0 -87 -30t-57 -79l-99 68q40 76 98 116t159 40t164 -69q62 -69 63 -214v-719h-123l-6 74q-15 -33 -59 -65t-126 -32t-147 76q-63 76 -63 204
t39 196q97 165 352 178v92zM516 1114l-332 254l97 98l301 -284z" />
    <glyph glyph-name="aacute" unicode="&#xe1;" horiz-adv-x="694" 
d="M322 96q44 0 80 28t51 62v330q-111 -5 -160 -39q-49 -33 -73 -78t-23 -120q0 -183 125 -183zM453 723q0 164 -108 164q-56 0 -87 -30t-57 -79l-99 68q40 76 98 116t159 40t164 -69q62 -69 63 -214v-719h-123l-6 74q-15 -33 -59 -65t-126 -32t-147 76q-63 76 -63 204
t39 196q97 165 352 178v92zM264 1114l-65 68l301 284l96 -98z" />
    <glyph glyph-name="acircumflex" unicode="&#xe2;" horiz-adv-x="694" 
d="M322 96q44 0 80 28t51 62v330q-111 -5 -160 -39q-49 -33 -73 -78t-23 -120q0 -183 125 -183zM453 723q0 164 -108 164q-56 0 -87 -30t-57 -79l-99 68q40 76 98 116t159 40t164 -69q62 -69 63 -214v-719h-123l-6 74q-15 -33 -59 -65t-126 -32t-147 76q-63 76 -63 204
t39 196q97 165 352 178v92zM598 1163l-92 -49l-148 193l-137 -197l-100 51l190 269h97z" />
    <glyph glyph-name="atilde" unicode="&#xe3;" horiz-adv-x="694" 
d="M322 96q44 0 80 28t51 62v330q-111 -5 -160 -39q-49 -33 -73 -78t-23 -120q0 -183 125 -183zM453 723q0 164 -108 164q-56 0 -87 -30t-57 -79l-99 68q40 76 98 116t159 40t164 -69q62 -69 63 -214v-719h-123l-6 74q-15 -33 -59 -65t-126 -32t-147 76q-63 76 -63 204
t39 196q97 165 352 178v92zM496 1192q-50 0 -87 16t-84 45t-67 29q-39 0 -70 -90l-90 33q48 161 145 159q45 0 73 -14t53 -30t49 -31q56 -33 91 2q17 16 32 69l88 -28q-20 -86 -52 -123q-31 -37 -81 -37z" />
    <glyph glyph-name="adieresis" unicode="&#xe4;" horiz-adv-x="694" 
d="M322 96q44 0 80 28t51 62v330q-111 -5 -160 -39q-49 -33 -73 -78t-23 -120q0 -183 125 -183zM453 723q0 164 -108 164q-56 0 -87 -30t-57 -79l-99 68q40 76 98 116t159 40t164 -69q62 -69 63 -214v-719h-123l-6 74q-15 -33 -59 -65t-126 -32t-147 76q-63 76 -63 204
t39 196q97 165 352 178v92zM410 1270q0 42 28 70t70 28q41 0 70 -29q28 -29 28 -69t-28 -70q-28 -29 -70 -29q-41 0 -70 29q-28 29 -28 70zM106 1270q0 42 29 70t70 28t69 -29t29 -69q0 -40 -29 -70q-30 -29 -70 -29t-69 29t-29 70z" />
    <glyph glyph-name="aring" unicode="&#xe5;" horiz-adv-x="694" 
d="M322 96q44 0 80 28t51 62v330q-111 -5 -160 -39q-49 -33 -73 -78t-23 -120q0 -183 125 -183zM453 723q0 164 -108 164q-56 0 -87 -30t-57 -79l-99 68q40 76 98 116t159 40t164 -69q62 -69 63 -214v-719h-123l-6 74q-15 -33 -59 -65t-126 -32t-147 76q-63 76 -63 204
t39 196q97 165 352 178v92zM256 1311q0 -45 32 -77t77 -32t77 32t31 77q0 45 -32 77q-33 32 -77 32t-76 -32t-32 -77zM182 1309q0 78 52 131t130 53t132 -53q53 -53 53 -131t-53 -130q-53 -53 -131 -53q-79 0 -131 52t-52 131z" />
    <glyph glyph-name="ae" unicode="&#xe6;" horiz-adv-x="1153" 
d="M940 612q-4 150 -47 212t-102 62q-132 1 -160 -274h309zM498 295v215q-131 -6 -187 -36q-114 -62 -112 -193q0 -174 131 -175q82 0 125 52t43 137zM360 1001q166 0 209 -153q76 154 230 154q293 -1 293 -496h-463q0 -408 178 -408q93 0 133 97q10 27 16 51l119 -47
q-29 -92 -93 -157t-175 -65q-188 0 -246 168q-91 -165 -254 -168q-109 0 -177 79t-69 204q0 125 43 192q107 167 394 171v24q0 228 -142 230q-87 0 -145 -109l-100 66q83 167 249 167z" />
    <glyph glyph-name="ccedilla" unicode="&#xe7;" horiz-adv-x="686" 
d="M338 -18q-264 29 -264 507q0 363 174 475q58 38 130 38q203 -1 261 -238l-119 -37q-12 59 -46 107t-85 47q-51 0 -84 -35q-86 -91 -86 -357q0 -389 166 -389q102 0 143 150l117 -41q-29 -99 -83 -153t-120 -70l-28 -72q90 -35 90 -117t-51 -123t-121 -41t-121 37l37 88
q31 -26 65 -26q72 0 72 55t-102 68z" />
    <glyph glyph-name="egrave" unicode="&#xe8;" horiz-adv-x="741" 
d="M528 612q-4 150 -47 212t-102 62q-134 1 -162 -274h311zM395 -23q-321 0 -321 517q0 248 84 378t230 129q146 0 218 -130q74 -130 74 -365h-465q0 -408 180 -408q92 0 132 97q11 27 18 51l119 -47q-29 -92 -94 -157t-175 -65zM528 1114l-331 254l96 98l301 -284z" />
    <glyph glyph-name="eacute" unicode="&#xe9;" horiz-adv-x="741" 
d="M528 612q-4 150 -47 212t-102 62q-134 1 -162 -274h311zM395 -23q-321 0 -321 517q0 248 84 378t230 129q146 0 218 -130q74 -130 74 -365h-465q0 -408 180 -408q92 0 132 97q11 27 18 51l119 -47q-29 -92 -94 -157t-175 -65zM285 1114l-66 68l301 284l96 -98z" />
    <glyph glyph-name="ecircumflex" unicode="&#xea;" horiz-adv-x="741" 
d="M528 612q-4 150 -47 212t-102 62q-134 1 -162 -274h311zM395 -23q-321 0 -321 517q0 248 84 378t230 129q146 0 218 -130q74 -130 74 -365h-465q0 -408 180 -408q92 0 132 97q11 27 18 51l119 -47q-29 -92 -94 -157t-175 -65zM631 1163l-92 -49l-148 193l-137 -197
l-100 51l190 269h96z" />
    <glyph glyph-name="edieresis" unicode="&#xeb;" horiz-adv-x="741" 
d="M528 612q-4 150 -47 212t-102 62q-134 1 -162 -274h311zM395 -23q-321 0 -321 517q0 248 84 378t230 129q146 0 218 -130q74 -130 74 -365h-465q0 -408 180 -408q92 0 132 97q11 27 18 51l119 -47q-29 -92 -94 -157t-175 -65zM446 1270q0 42 29 70t70 28t69 -29t29 -69
q0 -40 -29 -70q-30 -29 -70 -29t-69 29t-29 70zM143 1270q0 42 29 70t70 28q42 0 70 -29t28 -69t-29 -70q-29 -29 -69 -29t-70 29q-29 29 -29 70z" />
    <glyph glyph-name="igrave" unicode="&#xec;" horiz-adv-x="376" 
d="M121 0v977h135v-977h-135zM326 1114l-332 254l96 98l301 -284z" />
    <glyph glyph-name="iacute" unicode="&#xed;" horiz-adv-x="376" 
d="M121 0v977h135v-977h-135zM74 1114l-66 68l301 284l97 -98z" />
    <glyph glyph-name="icircumflex" unicode="&#xee;" horiz-adv-x="376" 
d="M121 0v977h135v-977h-135zM426 1163l-92 -49l-148 193l-137 -197l-100 51l190 269h97z" />
    <glyph glyph-name="idieresis" unicode="&#xef;" horiz-adv-x="376" 
d="M121 0v977h135v-977h-135zM244 1270q0 42 28 70t70 28q41 0 70 -29q28 -29 28 -69t-28 -70q-28 -29 -70 -29q-41 0 -70 29q-28 29 -28 70zM-59 1270q1 42 29 70t69 28t70 -29t29 -69t-30 -70q-28 -29 -69 -29t-70 29q-28 29 -28 70z" />
    <glyph glyph-name="eth" unicode="&#xf0;" horiz-adv-x="792" 
d="M401 98q92 0 137 125q33 96 33 224q0 256 -43 374q-54 43 -127 43q-167 0 -172 -375q0 -263 88 -356q33 -35 84 -35zM719 489q0 -359 -178 -474q-59 -38 -139 -38t-140 38q-116 75 -160 270q-20 95 -20 205q0 226 79 358q79 133 226 133q70 0 111 -27q-54 130 -154 201
l-80 -108l-90 59l80 111q-74 40 -201 67l25 107q135 -19 248 -80l80 112l92 -61l-84 -111q145 -98 225 -293t80 -469z" />
    <glyph glyph-name="ntilde" unicode="&#xf1;" horiz-adv-x="817" 
d="M421 885q-85 0 -165 -92v-793h-135v977h125l6 -64q43 39 91 64q47 25 117 25q119 -1 181 -72q62 -70 64 -174v-756h-136v692q0 102 -31 148q-32 45 -117 45zM634 1229q-32 -37 -91 -37t-130 45q-28 17 -53 31q-26 14 -46 14q-38 0 -68 -90l-90 33q48 161 144 159
q63 -1 126 -45q24 -16 48 -30q56 -33 92 2q17 16 32 69l88 -28q-20 -86 -52 -123z" />
    <glyph glyph-name="ograve" unicode="&#xf2;" horiz-adv-x="784" 
d="M567 490q0 390 -174 391q-96 0 -141 -125q-35 -96 -35 -269t35 -264q45 -123 141 -123q174 0 174 390zM711 489q0 -361 -179 -474q-59 -38 -141 -38t-141 38q-176 113 -176 474t179 475q60 38 141 38q160 -1 238 -140q79 -139 79 -373zM553 1114l-332 254l96 98l301 -284
z" />
    <glyph glyph-name="oacute" unicode="&#xf3;" horiz-adv-x="784" 
d="M567 490q0 390 -174 391q-96 0 -141 -125q-35 -96 -35 -269t35 -264q45 -123 141 -123q174 0 174 390zM711 489q0 -361 -179 -474q-59 -38 -141 -38t-141 38q-176 113 -176 474t179 475q60 38 141 38q160 -1 238 -140q79 -139 79 -373zM305 1114l-65 68l301 284l96 -98z
" />
    <glyph glyph-name="ocircumflex" unicode="&#xf4;" horiz-adv-x="784" 
d="M567 490q0 390 -174 391q-96 0 -141 -125q-35 -96 -35 -269t35 -264q45 -123 141 -123q174 0 174 390zM711 489q0 -361 -179 -474q-59 -38 -141 -38t-141 38q-176 113 -176 474t179 475q60 38 141 38q160 -1 238 -140q79 -139 79 -373zM643 1163l-92 -49l-148 193
l-137 -197l-100 51l190 269h97z" />
    <glyph glyph-name="otilde" unicode="&#xf5;" horiz-adv-x="784" 
d="M567 490q0 390 -174 391q-96 0 -141 -125q-35 -96 -35 -269t35 -264q45 -123 141 -123q174 0 174 390zM711 489q0 -361 -179 -474q-59 -38 -141 -38t-141 38q-176 113 -176 474t179 475q60 38 141 38q160 -1 238 -140q79 -139 79 -373zM532 1192q-49 0 -86 16t-84 45
q-48 29 -68 29q-39 0 -69 -90l-90 33q48 161 145 159q46 0 74 -14t52 -30t48 -31q56 -33 92 2q17 16 32 69l88 -28q-20 -86 -52 -123t-82 -37z" />
    <glyph glyph-name="odieresis" unicode="&#xf6;" horiz-adv-x="784" 
d="M567 490q0 390 -174 391q-96 0 -141 -125q-35 -96 -35 -269t35 -264q45 -123 141 -123q174 0 174 390zM711 489q0 -361 -179 -474q-59 -38 -141 -38t-141 38q-176 113 -176 474t179 475q60 38 141 38q160 -1 238 -140q79 -139 79 -373zM463 1270q0 42 29 70q30 28 70 28
t69 -29t29 -69t-30 -70q-28 -29 -69 -29t-69 29t-29 70zM160 1270q0 42 28 70t70 28q41 0 70 -29q28 -29 28 -69t-28 -70q-28 -29 -70 -29q-41 0 -70 29q-28 29 -28 70z" />
    <glyph glyph-name="divide" unicode="&#xf7;" horiz-adv-x="819" 
d="M305 1022q0 43 30 74q30 30 73 30q44 0 74 -30t30 -74q0 -43 -31 -73q-31 -29 -73 -29t-73 30q-30 30 -30 72zM305 311q0 43 30 74t73 31q44 0 74 -31t30 -74t-31 -73t-73 -29q-42 -1 -73 29q-30 30 -30 73zM72 604v133h676v-133h-676z" />
    <glyph glyph-name="oslash" unicode="&#xf8;" horiz-adv-x="784" 
d="M544 242q28 74 27 238q0 163 -26 251l-244 -598q39 -35 93 -35t88 35t62 109zM222 630q-8 -71 -9 -184q0 -113 27 -198l245 598q-41 37 -94 37t-88 -35t-54 -91t-27 -127zM711 489q0 -361 -179 -474q-59 -38 -138 -38t-142 35l-59 -147l-91 49l72 172q-102 135 -100 403
q0 362 179 475q60 38 140 38t142 -37l59 145l88 -43l-72 -176q101 -135 101 -402z" />
    <glyph glyph-name="ugrave" unicode="&#xf9;" horiz-adv-x="817" 
d="M565 63q-93 -88 -209 -88q-117 -1 -180 71t-63 175v756h135v-692q0 -101 32 -147t103 -46q98 0 178 92v793h135v-977h-125zM547 1114l-332 254l96 98l301 -284z" />
    <glyph glyph-name="uacute" unicode="&#xfa;" horiz-adv-x="817" 
d="M565 63q-93 -88 -209 -88q-117 -1 -180 71t-63 175v756h135v-692q0 -101 32 -147t103 -46q98 0 178 92v793h135v-977h-125zM326 1114l-66 68l301 284l96 -98z" />
    <glyph glyph-name="ucircumflex" unicode="&#xfb;" horiz-adv-x="817" 
d="M565 63q-93 -88 -209 -88q-117 -1 -180 71t-63 175v756h135v-692q0 -101 32 -147t103 -46q98 0 178 92v793h135v-977h-125zM645 1163l-92 -49l-147 193l-138 -197l-100 51l190 269h97z" />
    <glyph glyph-name="udieresis" unicode="&#xfc;" horiz-adv-x="817" 
d="M565 63q-93 -88 -209 -88q-117 -1 -180 71t-63 175v756h135v-692q0 -101 32 -147t103 -46q98 0 178 92v793h135v-977h-125zM465 1270q0 42 29 70q30 28 70 28t69 -29t29 -69t-29 -70q-29 -29 -70 -29t-69 29t-29 70zM162 1270q0 42 28 70t70 28q41 0 70 -29
q28 -29 28 -69t-28 -70q-28 -29 -70 -29q-41 0 -70 29q-28 29 -28 70z" />
    <glyph glyph-name="yacute" unicode="&#xfd;" horiz-adv-x="712" 
d="M128 -295q40 0 62 32t43 109l52 189l-248 942h143l174 -723l183 723h139l-330 -1186q-28 -104 -82 -160q-46 -43 -112 -44q-67 -1 -125 28l32 106q29 -16 69 -16zM305 1114l-65 68l301 284l96 -98z" />
    <glyph glyph-name="thorn" unicode="&#xfe;" horiz-adv-x="788" 
d="M565 498q0 381 -168 381q-91 0 -141 -113v-625q41 -41 120 -42t134 99t55 300zM256 -389h-135v1755h131v-453q35 39 76 63t112 23q119 1 196 -123t77 -370t-95 -387q-95 -142 -235 -142q-72 0 -127 35v-401z" />
    <glyph glyph-name="ydieresis" unicode="&#xff;" horiz-adv-x="712" 
d="M128 -295q40 0 62 32t43 109l52 189l-248 942h143l174 -723l183 723h139l-330 -1186q-28 -104 -82 -160q-46 -43 -112 -44q-67 -1 -125 28l32 106q29 -16 69 -16zM428 1270q0 42 29 70t69 28t70 -29q29 -29 29 -69t-29 -70q-29 -29 -70 -29q-42 0 -70 29t-28 70z
M125 1270q0 42 29 70q30 28 70 28t69 -29t29 -69t-29 -70q-29 -29 -70 -29t-69 29t-29 70z" />
    <glyph glyph-name="Amacron" unicode="&#x100;" horiz-adv-x="897" 
d="M442 1083l-151 -622h307zM713 0l-84 336h-367l-82 -336h-139l354 1366h99l362 -1366h-143zM207 1571v119h477v-119h-477z" />
    <glyph glyph-name="amacron" unicode="&#x101;" horiz-adv-x="694" 
d="M322 96q44 0 80 28t51 62v330q-111 -5 -160 -39q-49 -33 -73 -78t-23 -120q0 -183 125 -183zM453 723q0 164 -108 164q-56 0 -87 -30t-57 -79l-99 68q40 76 98 116t159 40t164 -69q62 -69 63 -214v-719h-123l-6 74q-15 -33 -59 -65t-126 -32t-147 76q-63 76 -63 204
t39 196q97 165 352 178v92zM125 1231v119h477v-119h-477z" />
    <glyph glyph-name="Abreve" unicode="&#x102;" horiz-adv-x="897" 
d="M442 1083l-151 -622h307zM713 0l-84 336h-367l-82 -336h-139l354 1366h99l362 -1366h-143zM453 1591q67 0 113 32t59 122h108q-7 -131 -89 -196q-82 -64 -189 -64q-189 0 -261 141q-26 49 -28 119h115q21 -154 172 -154z" />
    <glyph glyph-name="abreve" unicode="&#x103;" horiz-adv-x="694" 
d="M322 96q44 0 80 28t51 62v330q-111 -5 -160 -39q-49 -33 -73 -78t-23 -120q0 -183 125 -183zM453 723q0 164 -108 164q-56 0 -87 -30t-57 -79l-99 68q40 76 98 116t159 40t164 -69q62 -69 63 -214v-719h-123l-6 74q-15 -33 -59 -65t-126 -32t-147 76q-63 76 -63 204
t39 196q97 165 352 178v92zM373 1145q-189 0 -261 141q-26 49 -28 119h115q21 -154 172 -154q67 0 113 32t59 122h108q-7 -133 -89 -197q-82 -63 -189 -63z" />
    <glyph glyph-name="Aogonek" unicode="&#x104;" horiz-adv-x="897" 
d="M442 1083l-151 -622h307zM743 -171q0 -91 62 -89q33 0 67 18l31 -92q-48 -29 -120 -30q-73 -1 -117 40t-45 119q0 115 92 207l-84 334h-367l-82 -336h-139l354 1366h99l362 -1366h-20q-93 -80 -93 -171z" />
    <glyph glyph-name="aogonek" unicode="&#x105;" horiz-adv-x="694" 
d="M322 96q44 0 80 28t51 62v330q-111 -5 -160 -39q-49 -33 -73 -78t-23 -120q0 -183 125 -183zM453 723q0 164 -108 164q-56 0 -87 -30t-57 -79l-99 68q40 76 98 116t159 40t164 -69q62 -69 63 -214v-719h-19q-106 -76 -104 -180q0 -82 61 -80q33 0 68 18l31 -92
q-48 -29 -120 -30q-73 -1 -118 40t-45 119q0 125 121 219l-4 60q-15 -33 -59 -65t-126 -32t-147 76q-63 76 -63 204t39 196q97 165 352 178v92z" />
    <glyph glyph-name="Cacute" unicode="&#x106;" horiz-adv-x="843" 
d="M242 676q0 -572 227 -574q113 0 165 122q15 36 30 79l129 -47q-49 -185 -190 -255q-56 -28 -142 -28t-158 40q-217 121 -217 665q0 365 104 540t289 175q129 0 201 -76t106 -205l-133 -47q-35 98 -63 132q-53 65 -119 67q-123 0 -176 -154t-53 -434zM383 1456l-66 68
l301 284l97 -98z" />
    <glyph glyph-name="cacute" unicode="&#x107;" horiz-adv-x="686" 
d="M219 489q0 -389 166 -389q102 0 143 150l117 -41q-35 -119 -105 -175t-156 -56q-310 -2 -310 511q0 363 174 475q58 38 130 38q203 -1 261 -238l-119 -37q-12 59 -46 107t-85 47q-51 0 -84 -35q-86 -91 -86 -357zM309 1114l-65 68l301 284l96 -98z" />
    <glyph glyph-name="Ccircumflex" unicode="&#x108;" horiz-adv-x="843" 
d="M242 676q0 -572 227 -574q113 0 165 122q15 36 30 79l129 -47q-49 -185 -190 -255q-56 -28 -142 -28t-158 40q-217 121 -217 665q0 365 104 540t289 175q129 0 201 -76t106 -205l-133 -47q-35 98 -63 132q-53 65 -119 67q-123 0 -176 -154t-53 -434zM713 1503l-92 -49
l-148 193l-137 -197l-100 51l190 268h96z" />
    <glyph glyph-name="ccircumflex" unicode="&#x109;" horiz-adv-x="686" 
d="M219 489q0 -389 166 -389q102 0 143 150l117 -41q-35 -119 -105 -175t-156 -56q-310 -2 -310 511q0 363 174 475q58 38 130 38q203 -1 261 -238l-119 -37q-12 59 -46 107t-85 47q-51 0 -84 -35q-86 -91 -86 -357zM629 1163l-92 -49l-148 193l-137 -197l-100 51l190 269
h96z" />
    <glyph glyph-name="Cdotaccent" unicode="&#x10a;" horiz-adv-x="843" 
d="M242 676q0 -572 227 -574q113 0 165 122q15 36 30 79l129 -47q-49 -185 -190 -255q-56 -28 -142 -28t-158 40q-217 121 -217 665q0 365 104 540t289 175q129 0 201 -76t106 -205l-133 -47q-35 98 -63 132q-53 65 -119 67q-123 0 -176 -154t-53 -434zM379 1632q0 41 29 71
q30 30 70 30t70 -30t30 -71q0 -42 -30 -70t-71 -28t-69 28t-29 70z" />
    <glyph glyph-name="cdotaccent" unicode="&#x10b;" horiz-adv-x="686" 
d="M219 489q0 -389 166 -389q102 0 143 150l117 -41q-35 -119 -105 -175t-156 -56q-310 -2 -310 511q0 363 174 475q58 38 130 38q203 -1 261 -238l-119 -37q-12 59 -46 107t-85 47q-51 0 -84 -35q-86 -91 -86 -357zM285 1292q0 41 28 71q29 30 70 30t71 -30t30 -71
q0 -42 -30 -70t-71 -28t-69 28t-29 70z" />
    <glyph glyph-name="Ccaron" unicode="&#x10c;" horiz-adv-x="843" 
d="M242 676q0 -572 227 -574q113 0 165 122q15 36 30 79l129 -47q-49 -185 -190 -255q-56 -28 -142 -28t-158 40q-217 121 -217 665q0 365 104 540t289 175q129 0 201 -76t106 -205l-133 -47q-35 98 -63 132q-53 65 -119 67q-123 0 -176 -154t-53 -434zM524 1454h-96
l-190 309l100 52l137 -238l146 233l94 -49z" />
    <glyph glyph-name="ccaron" unicode="&#x10d;" horiz-adv-x="686" 
d="M219 489q0 -389 166 -389q102 0 143 150l117 -41q-35 -119 -105 -175t-156 -56q-310 -2 -310 511q0 363 174 475q58 38 130 38q203 -1 261 -238l-119 -37q-12 59 -46 107t-85 47q-51 0 -84 -35q-86 -91 -86 -357zM444 1114h-96l-190 309l100 52l137 -238l146 233l94 -49z
" />
    <glyph glyph-name="Dcaron" unicode="&#x10e;" horiz-adv-x="925" 
d="M688 698q0 305 -94 437q-78 111 -232 110h-83v-1124h73q104 0 179 55q157 115 157 522zM379 1366q465 0 465 -668q0 -542 -283 -661q-90 -37 -199 -37h-227v1366h244zM461 1442h-96l-191 309l100 51l138 -237l145 233l94 -49z" />
    <glyph glyph-name="dcaron" unicode="&#x10f;" horiz-adv-x="847" 
d="M223 498q0 -400 176 -400q90 0 133 113v620q-46 46 -125 47q-79 2 -131 -96t-53 -284zM76 485q0 254 96 395q84 121 217 119q83 0 143 -41v408h136v-1366h-125l-6 63q-63 -84 -152 -85q-90 -1 -145 36q-164 110 -164 471zM766 1018v348h133l-49 -348h-84z" />
    <glyph glyph-name="Dcroat" unicode="&#x110;" horiz-adv-x="942" 
d="M705 698q0 305 -95 437q-78 111 -231 110h-84v-477h237v-127h-237v-520h74q104 0 179 55q157 115 157 522zM395 1366q465 0 465 -668q0 -541 -282 -661q-90 -37 -199 -37h-227v641h-132v127h132v598h243z" />
    <glyph glyph-name="dcroat" unicode="&#x111;" horiz-adv-x="788" 
d="M223 498q0 -400 176 -400q90 0 133 113v620q-46 46 -125 47q-79 2 -131 -96t-53 -284zM532 1151h-251v113h251v102h136v-102h118v-113h-118v-1151h-125l-6 63q-63 -84 -152 -85q-90 -1 -145 36q-164 110 -164 471q0 137 26 235q78 282 297 280q72 0 133 -42v193z" />
    <glyph glyph-name="Emacron" unicode="&#x112;" horiz-adv-x="774" 
d="M129 0v1366h578v-123h-433v-465h316v-123h-318v-532h449v-123h-592zM190 1571v119h478v-119h-478z" />
    <glyph glyph-name="emacron" unicode="&#x113;" horiz-adv-x="741" 
d="M528 612q-4 150 -47 212t-102 62q-134 1 -162 -274h311zM395 -23q-321 0 -321 517q0 248 84 378t230 129q146 0 218 -130q74 -130 74 -365h-465q0 -408 180 -408q92 0 132 97q11 27 18 51l119 -47q-29 -92 -94 -157t-175 -65zM145 1231v119h478v-119h-478z" />
    <glyph glyph-name="Ebreve" unicode="&#x114;" horiz-adv-x="774" 
d="M129 0v1366h578v-123h-433v-465h316v-123h-318v-532h449v-123h-592zM426 1587q66 0 113 32t59 122h109q-7 -132 -90 -196q-82 -64 -189 -64q-189 0 -261 141q-26 49 -28 119h115q21 -154 172 -154z" />
    <glyph glyph-name="ebreve" unicode="&#x115;" horiz-adv-x="741" 
d="M528 612q-4 150 -47 212t-102 62q-134 1 -162 -274h311zM395 -23q-321 0 -321 517q0 248 84 378t230 129q146 0 218 -130q74 -130 74 -365h-465q0 -408 180 -408q92 0 132 97q11 27 18 51l119 -47q-29 -92 -94 -157t-175 -65zM650 1284q-74 -139 -254 -139
q-181 0 -256 141q-26 49 -27 119h114q21 -154 172 -154q66 0 113 32t59 122h109q-4 -72 -30 -121z" />
    <glyph glyph-name="Edotaccent" unicode="&#x116;" horiz-adv-x="774" 
d="M129 0v1366h578v-123h-433v-465h316v-123h-318v-532h449v-123h-592zM336 1622q0 41 29 71q29 29 69 29t71 -30q30 -30 30 -70q0 -41 -30 -70q-30 -28 -71 -28q-42 0 -70 28t-28 70z" />
    <glyph glyph-name="edotaccent" unicode="&#x117;" horiz-adv-x="741" 
d="M528 612q-4 150 -47 212t-102 62q-134 1 -162 -274h311zM395 -23q-321 0 -321 517q0 248 84 378t230 129q146 0 218 -130q74 -130 74 -365h-465q0 -408 180 -408q92 0 132 97q11 27 18 51l119 -47q-29 -92 -94 -157t-175 -65zM295 1292q0 41 29 71q30 30 70 30t70 -30
t30 -71q0 -42 -30 -70t-71 -28t-69 28t-29 70z" />
    <glyph glyph-name="Eogonek" unicode="&#x118;" horiz-adv-x="774" 
d="M455 -205q0 121 88 205h-414v1366h578v-123h-433v-465h316v-123h-318v-532h449v-123h-51q-94 -76 -93 -169t62 -91q33 0 68 18l30 -92q-48 -29 -120 -30t-117 40t-45 119z" />
    <glyph glyph-name="eogonek" unicode="&#x119;" horiz-adv-x="741" 
d="M528 612q-4 150 -47 212t-102 62q-134 1 -162 -274h311zM388 1001q146 0 218 -130q74 -130 74 -365h-465q0 -408 180 -408q92 0 132 97q11 27 18 51l119 -47q-37 -111 -160 -201q-90 -63 -90 -178q0 -82 61 -80q33 0 68 18l30 -92q-48 -29 -120 -30t-117 40t-45 131
t69 173q-288 25 -286 514q0 248 84 378t230 129z" />
    <glyph glyph-name="Ecaron" unicode="&#x11a;" horiz-adv-x="774" 
d="M129 0v1366h578v-123h-433v-465h316v-123h-318v-532h449v-123h-592zM475 1454h-96l-191 309l101 52l137 -238l145 233l95 -49z" />
    <glyph glyph-name="ecaron" unicode="&#x11b;" horiz-adv-x="741" 
d="M528 612q-4 150 -47 212t-102 62q-134 1 -162 -274h311zM395 -23q-321 0 -321 517q0 248 84 378t230 129q146 0 218 -130q74 -130 74 -365h-465q0 -408 180 -408q92 0 132 97q11 27 18 51l119 -47q-29 -92 -94 -157t-175 -65zM440 1114h-96l-190 309l100 52l137 -238
l146 233l94 -49z" />
    <glyph glyph-name="Gcircumflex" unicode="&#x11c;" horiz-adv-x="903" 
d="M520 102q72 0 142 29v389h-168v123h311v-592q-124 -74 -261 -76q-136 -2 -218 38q-163 80 -211 343q-25 134 -25 322q0 356 108 546q97 169 279 169q133 0 206 -75t108 -206l-134 -47q-35 94 -73 146q-39 52 -109 53q-229 0 -229 -588q0 -319 64 -446q65 -128 210 -128z
M719 1503l-92 -49l-148 193l-137 -197l-100 51l190 268h96z" />
    <glyph glyph-name="gcircumflex" unicode="&#x11d;" horiz-adv-x="763" 
d="M404 -301q89 0 146 48q56 49 56 155t-111 145q-43 13 -124 20q-80 7 -88 11q-86 -66 -85 -172t59 -156t147 -51zM543 662q0 114 -49 168q-50 54 -110 54t-110 -52q-50 -54 -49 -170q0 -116 49 -170q50 -54 110 -54t110 54t49 170zM240 266q0 -33 36 -47t113 -20
q163 -13 243 -65q107 -71 107 -226t-94 -237q-94 -83 -246 -84q-151 -1 -241 77t-90 227t118 222q-79 36 -77 123q0 57 32 94q33 37 74 53q-74 50 -112 173q-13 46 -13 120q0 144 92 243q80 82 188 82t173 -47l75 109l99 -68l-90 -129q53 -83 53 -185q0 -178 -86 -269
q-86 -90 -213 -90q-42 0 -90 12q-51 -9 -51 -68zM649 1163l-92 -49l-147 193l-138 -197l-100 51l190 269h97z" />
    <glyph glyph-name="Gbreve" unicode="&#x11e;" horiz-adv-x="903" 
d="M520 102q72 0 142 29v389h-168v123h311v-592q-124 -74 -261 -76q-136 -2 -218 38q-163 80 -211 343q-25 134 -25 322q0 356 108 546q97 169 279 169q133 0 206 -75t108 -206l-134 -47q-35 94 -73 146q-39 52 -109 53q-229 0 -229 -588q0 -319 64 -446q65 -128 210 -128z
M734 1624q-74 -139 -254 -139q-181 0 -256 141q-26 49 -27 119h114q21 -154 172 -154q66 0 113 32t59 122h109q-4 -72 -30 -121z" />
    <glyph glyph-name="gbreve" unicode="&#x11f;" horiz-adv-x="763" 
d="M404 -301q89 0 146 48q56 49 56 155t-111 145q-43 13 -124 20q-80 7 -88 11q-86 -66 -85 -172t59 -156t147 -51zM543 662q0 114 -49 168q-50 54 -110 54t-110 -52q-50 -54 -49 -170q0 -116 49 -170q50 -54 110 -54t110 54t49 170zM240 266q0 -33 36 -47t113 -20
q163 -13 243 -65q107 -71 107 -226t-94 -237q-94 -83 -246 -84q-151 -1 -241 77t-90 227t118 222q-79 36 -77 123q0 57 32 94q33 37 74 53q-74 50 -112 173q-13 46 -13 120q0 144 92 243q80 82 188 82t173 -47l75 109l99 -68l-90 -129q53 -83 53 -185q0 -178 -86 -269
q-86 -90 -213 -90q-42 0 -90 12q-51 -9 -51 -68zM652 1290q-74 -139 -254 -139q-181 0 -256 141q-26 49 -27 119h114q21 -154 172 -154q66 0 113 32t59 122h109q-4 -72 -30 -121z" />
    <glyph glyph-name="Gdotaccent" unicode="&#x120;" horiz-adv-x="903" 
d="M520 102q72 0 142 29v389h-168v123h311v-592q-124 -74 -261 -76q-136 -2 -218 38q-163 80 -211 343q-25 134 -25 322q0 356 108 546q97 169 279 169q133 0 206 -75t108 -206l-134 -47q-35 94 -73 146q-39 52 -109 53q-229 0 -229 -588q0 -319 64 -446q65 -128 210 -128z
M391 1632q0 41 29 71q30 30 70 30t70 -30t30 -71q0 -42 -30 -70t-71 -28t-69 28t-29 70z" />
    <glyph glyph-name="gdotaccent" unicode="&#x121;" horiz-adv-x="763" 
d="M404 -301q89 0 146 48q56 49 56 155t-111 145q-43 13 -124 20q-80 7 -88 11q-86 -66 -85 -172t59 -156t147 -51zM543 662q0 114 -49 168q-50 54 -110 54t-110 -52q-50 -54 -49 -170q0 -116 49 -170q50 -54 110 -54t110 54t49 170zM240 266q0 -33 36 -47t113 -20
q163 -13 243 -65q107 -71 107 -226t-94 -237q-94 -83 -246 -84q-151 -1 -241 77t-90 227t118 222q-79 36 -77 123q0 57 32 94q33 37 74 53q-74 50 -112 173q-13 46 -13 120q0 144 92 243q80 82 188 82t173 -47l75 109l99 -68l-90 -129q53 -83 53 -185q0 -178 -86 -269
q-86 -90 -213 -90q-42 0 -90 12q-51 -9 -51 -68zM299 1292q0 41 29 71q30 30 70 30t70 -30t30 -71q0 -42 -30 -70t-71 -28t-69 28t-29 70z" />
    <glyph glyph-name="Gcommaaccent" unicode="&#x122;" horiz-adv-x="903" 
d="M520 102q72 0 142 29v389h-168v123h311v-592q-124 -74 -261 -76q-136 -2 -218 38q-163 80 -211 343q-25 134 -25 322q0 356 108 546q97 169 279 169q133 0 206 -75t108 -206l-134 -47q-35 94 -73 146q-39 52 -109 53q-229 0 -229 -588q0 -319 64 -446q65 -128 210 -128z
M442 -356h-104l104 266h148z" />
    <glyph glyph-name="gcommaaccent" unicode="&#x123;" horiz-adv-x="763" 
d="M404 -301q89 0 146 48q56 49 56 155t-111 145q-43 13 -124 20q-80 7 -88 11q-86 -66 -85 -172t59 -156t147 -51zM543 662q0 114 -49 168q-50 54 -110 54t-110 -52q-50 -54 -49 -170q0 -116 49 -170q50 -54 110 -54t110 54t49 170zM240 266q0 -33 36 -47t113 -20
q163 -13 243 -65q107 -71 107 -226t-94 -237q-94 -83 -246 -84q-151 -1 -241 77t-90 227t118 222q-79 36 -77 123q0 57 32 94q33 37 74 53q-74 50 -112 173q-13 46 -13 120q0 144 92 243q80 82 188 82t173 -47l75 109l99 -68l-90 -129q53 -83 53 -185q0 -178 -86 -269
q-86 -90 -213 -90q-42 0 -90 12q-51 -9 -51 -68zM477 1417h117l-105 -272h-159z" />
    <glyph glyph-name="Hcircumflex" unicode="&#x124;" horiz-adv-x="976" 
d="M700 0v639h-421v-639h-144v1366h144v-602h421v602h142v-1366h-142zM731 1503l-92 -49l-147 193l-138 -197l-100 51l190 268h97z" />
    <glyph glyph-name="hcircumflex" unicode="&#x125;" horiz-adv-x="817" 
d="M705 0h-136v692q0 102 -30 148q-31 45 -110 45t-173 -92v-793h-135v1366h135v-448q100 85 213 84t173 -72q61 -71 63 -174v-756zM635 1503l-92 -49l-148 193l-137 -197l-100 51l190 268h96z" />
    <glyph glyph-name="Hbar" unicode="&#x126;" horiz-adv-x="1009" 
d="M717 764v332h-422v-332h422zM18 1208h134v158h143v-158h422v158h141v-158h133v-112h-133v-1096h-141v639h-422v-639h-143v1096h-134v112z" />
    <glyph glyph-name="hbar" unicode="&#x127;" horiz-adv-x="817" 
d="M429 885q-79 0 -173 -92v-793h-135v1151h-109v113h109v102h135v-102h262v-113h-262v-233q100 85 213 84t173 -72q61 -71 63 -174v-756h-136v692q0 102 -30 148q-31 45 -110 45z" />
    <glyph glyph-name="Itilde" unicode="&#x128;" horiz-adv-x="413" 
d="M135 0v1366h144v-1366h-144zM423 1569q-32 -37 -91 -37t-130 45q-28 17 -52 31t-46 14q-20 0 -36 -20t-33 -70l-90 33q48 161 144 159q63 -1 126 -45q25 -16 49 -30q56 -33 91 2q17 16 32 69l88 -28q-20 -86 -52 -123z" />
    <glyph glyph-name="itilde" unicode="&#x129;" horiz-adv-x="376" 
d="M121 0v977h135v-977h-135zM-72 1231q48 160 145 160q46 0 76 -16t98 -60q57 -33 92 2q17 16 32 69l88 -28q-20 -86 -52 -123q-31 -37 -81 -37t-87 16t-84 45t-67 29q-39 0 -70 -90z" />
    <glyph glyph-name="Imacron" unicode="&#x12a;" horiz-adv-x="413" 
d="M135 0v1366h144v-1366h-144zM-31 1571v119h477v-119h-477z" />
    <glyph glyph-name="imacron" unicode="&#x12b;" horiz-adv-x="376" 
d="M121 0v977h135v-977h-135zM-49 1227v119h477v-119h-477z" />
    <glyph glyph-name="Ibreve" unicode="&#x12c;" horiz-adv-x="413" 
d="M135 0v1366h144v-1366h-144zM215 1485q-189 0 -261 141q-26 49 -28 119h115q21 -154 172 -154q66 0 113 32t59 122h109q-7 -132 -90 -196q-82 -64 -189 -64z" />
    <glyph glyph-name="ibreve" unicode="&#x12d;" horiz-adv-x="376" 
d="M121 0v977h135v-977h-135zM197 1145q-187 0 -262 141q-26 49 -27 119h115q21 -154 172 -154q67 0 113 32t59 122h108q-7 -131 -89 -196q-82 -64 -189 -64z" />
    <glyph glyph-name="Iogonek" unicode="&#x12e;" horiz-adv-x="413" 
d="M43 -205q0 113 92 207v1364h144v-1366h-21q-94 -76 -93 -169t62 -91q33 0 68 18l31 -92q-48 -29 -120 -30q-73 -1 -118 40t-45 119z" />
    <glyph glyph-name="iogonek" unicode="&#x12f;" horiz-adv-x="376" 
d="M90 1292q0 41 29 71t69 30t71 -30q30 -30 30 -71q0 -42 -30 -70t-71 -28q-42 0 -70 28t-28 70zM143 -169q0 -93 62 -91q33 0 67 18l31 -92q-48 -29 -120 -30q-73 -1 -117 40t-46 119q0 123 101 215v967h135v-977h-20q-93 -76 -93 -169z" />
    <glyph glyph-name="Idotaccent" unicode="&#x130;" horiz-adv-x="413" 
d="M135 0v1366h144v-1366h-144zM111 1638q0 41 28 71q29 30 70 30t71 -30t30 -71q0 -42 -30 -70t-71 -28t-69 28t-29 70z" />
    <glyph glyph-name="dotlessi" unicode="&#x131;" horiz-adv-x="376" 
d="M121 0v977h135v-977h-135z" />
    <glyph glyph-name="IJ" unicode="&#x132;" horiz-adv-x="849" 
d="M135 0v1366h144v-1366h-144zM715 1366v-1303q0 -287 -273 -337l-34 122q96 27 130 77t33 138v1303h144z" />
    <glyph glyph-name="ij" unicode="&#x133;" horiz-adv-x="745" 
d="M121 0v977h135v-977h-135zM92 1292q0 41 29 71t69 30t71 -30q30 -30 30 -71q0 -42 -30 -70t-71 -28q-42 0 -70 28t-28 70zM625 977v-1004q0 -203 -117 -320q-33 -32 -64 -56l-75 98q53 51 87 112t33 166v1004h136zM459 1292q0 41 28 71q29 30 70 30t71 -30t30 -71
q0 -42 -30 -70t-71 -28t-69 28t-29 70z" />
    <glyph glyph-name="Jcircumflex" unicode="&#x134;" horiz-adv-x="419" 
d="M285 1366v-1303q0 -287 -273 -337l-35 122q96 27 131 77q34 50 33 138v1303h144zM446 1503l-92 -49l-147 193l-137 -197l-101 51l191 268h96z" />
    <glyph glyph-name="jcircumflex" unicode="&#x135;" horiz-adv-x="376" 
d="M258 977v-1004q0 -207 -117 -320q-33 -32 -63 -56l-76 98q53 51 87 112t34 166v1004h135zM432 1163l-92 -49l-147 193l-138 -197l-100 51l190 269h97z" />
    <glyph glyph-name="Kcommaaccent" unicode="&#x136;" horiz-adv-x="835" 
d="M272 0h-143v1366h143v-618l367 618h152l-312 -522l332 -844h-172l-262 698l-105 -174v-524zM391 -356h-104l104 266h148z" />
    <glyph glyph-name="kcommaaccent" unicode="&#x137;" horiz-adv-x="729" 
d="M256 0h-135v1366h135v-770l256 381h150l-224 -326l271 -651h-140l-225 535l-88 -127v-408zM344 -356h-104l104 266h148z" />
    <glyph glyph-name="kgreenlandic" unicode="&#x138;" horiz-adv-x="729" 
d="M256 0h-135v977h135v-438l301 438h150l-269 -389l271 -588h-152l-213 475l-88 -125v-350z" />
    <glyph glyph-name="Lacute" unicode="&#x139;" horiz-adv-x="712" 
d="M135 0v1366h144v-1241h413v-125h-557zM100 1454l-65 68l301 284l96 -98z" />
    <glyph glyph-name="lacute" unicode="&#x13a;" horiz-adv-x="376" 
d="M121 0v1366h135v-1366h-135zM72 1454l-66 68l301 284l96 -98z" />
    <glyph glyph-name="Lcommaaccent" unicode="&#x13b;" horiz-adv-x="712" 
d="M135 0v1366h144v-1241h413v-125h-557zM340 -356h-104l104 266h147z" />
    <glyph glyph-name="lcommaaccent" unicode="&#x13c;" horiz-adv-x="376" 
d="M121 0v1366h135v-1366h-135zM111 -356h-105l105 266h147z" />
    <glyph glyph-name="Lcaron" unicode="&#x13d;" horiz-adv-x="712" 
d="M135 0v1366h144v-1241h413v-125h-557zM440 1018v348h133l-49 -348h-84z" />
    <glyph glyph-name="lcaron" unicode="&#x13e;" horiz-adv-x="432" 
d="M121 0v1366h135v-1366h-135zM350 1018v348h133l-49 -348h-84z" />
    <glyph glyph-name="Ldot" unicode="&#x13f;" horiz-adv-x="729" 
d="M135 0v1366h144v-1241h413v-125h-557zM469 672q0 40 29 70q30 30 70 30t70 -30t30 -70t-30 -70q-30 -29 -71 -29t-69 29t-29 70z" />
    <glyph glyph-name="ldot" unicode="&#x140;" horiz-adv-x="600" 
d="M121 0v1366h135v-1366h-135zM389 639q0 41 29 71q30 30 70 30t70 -30t30 -71t-30 -70t-71 -29t-69 30q-28 28 -29 69z" />
    <glyph glyph-name="Lslash" unicode="&#x141;" horiz-adv-x="747" 
d="M184 0v590l-147 -96l-57 98l204 133v641h144v-565l268 176l63 -98l-331 -215v-539h413v-125h-557z" />
    <glyph glyph-name="lslash" unicode="&#x142;" horiz-adv-x="479" 
d="M172 0v588l-127 -82l-57 102l184 119v639h135v-565l150 98l63 -100l-213 -140v-659h-135z" />
    <glyph glyph-name="Nacute" unicode="&#x143;" horiz-adv-x="980" 
d="M274 0h-139v1366h144l428 -1006v1006h139v-1366h-113l-459 1090v-1090zM403 1454l-65 68l301 284l96 -98z" />
    <glyph glyph-name="nacute" unicode="&#x144;" horiz-adv-x="817" 
d="M421 885q-85 0 -165 -92v-793h-135v977h125l6 -64q43 39 91 64q47 25 117 25q119 -1 181 -72q62 -70 64 -174v-756h-136v692q0 102 -31 148q-32 45 -117 45zM367 1114l-66 68l301 284l96 -98z" />
    <glyph glyph-name="Ncommaaccent" unicode="&#x145;" horiz-adv-x="980" 
d="M274 0h-139v1366h144l428 -1006v1006h139v-1366h-113l-459 1090v-1090zM451 -356h-105l105 266h147z" />
    <glyph glyph-name="ncommaaccent" unicode="&#x146;" horiz-adv-x="817" 
d="M421 885q-85 0 -165 -92v-793h-135v977h125l6 -64q43 39 91 64q47 25 117 25q119 -1 181 -72q62 -70 64 -174v-756h-136v692q0 102 -31 148q-32 45 -117 45zM344 -356h-104l104 266h148z" />
    <glyph glyph-name="Ncaron" unicode="&#x147;" horiz-adv-x="980" 
d="M274 0h-139v1366h144l428 -1006v1006h139v-1366h-113l-459 1090v-1090zM553 1450h-96l-191 309l101 51l137 -237l145 233l94 -49z" />
    <glyph glyph-name="ncaron" unicode="&#x148;" horiz-adv-x="817" 
d="M421 885q-85 0 -165 -92v-793h-135v977h125l6 -64q43 39 91 64q47 25 117 25q119 -1 181 -72q62 -70 64 -174v-756h-136v692q0 102 -31 148q-32 45 -117 45zM451 1114h-97l-190 309l100 52l137 -238l146 233l94 -49z" />
    <glyph glyph-name="napostrophe" unicode="&#x149;" horiz-adv-x="817" 
d="M421 885q-85 0 -165 -92v-793h-135v977h125l6 -64q43 39 91 64q47 25 117 25q119 -1 181 -72q62 -70 64 -174v-756h-136v692q0 102 -31 148q-32 45 -117 45zM319 1308q0 -50 -16 -87q-46 -106 -170 -140l-14 49q86 37 110 99q-31 4 -49 31q-18 26 -18 64t21 65
q22 27 57 27t57 -30q22 -28 22 -78z" />
    <glyph glyph-name="Eng" unicode="&#x14a;" horiz-adv-x="980" 
d="M274 0h-139v1366h144l428 -1006v1006h139v-1393q0 -203 -117 -320q-33 -32 -63 -56l-76 98q53 51 87 112t34 166v93l-437 1024v-1090z" />
    <glyph glyph-name="eng" unicode="&#x14b;" horiz-adv-x="817" 
d="M421 885q-85 0 -165 -92v-793h-135v977h125l6 -64q43 39 91 64q47 25 117 25q119 -1 181 -72q62 -70 64 -174v-795q-5 -192 -119 -306q-31 -30 -62 -54l-75 98q53 51 87 113t33 165v715q0 102 -31 148q-32 45 -117 45z" />
    <glyph glyph-name="Omacron" unicode="&#x14c;" horiz-adv-x="978" 
d="M492 1264q-250 0 -250 -579t250 -583q245 0 245 579q0 580 -245 583zM310 24q-224 149 -224 659q0 509 224 658q78 51 182 51t180 -50q221 -150 221 -659t-221 -658q-76 -51 -180 -51q-104 -2 -182 50zM250 1571v119h477v-119h-477z" />
    <glyph glyph-name="omacron" unicode="&#x14d;" horiz-adv-x="784" 
d="M567 490q0 390 -174 391q-96 0 -141 -125q-35 -96 -35 -269t35 -264q45 -123 141 -123q174 0 174 390zM711 489q0 -361 -179 -474q-59 -38 -141 -38t-141 38q-176 113 -176 474t179 475q60 38 141 38q160 -1 238 -140q79 -139 79 -373zM160 1231v119h477v-119h-477z" />
    <glyph glyph-name="Obreve" unicode="&#x14e;" horiz-adv-x="978" 
d="M492 1264q-250 0 -250 -579t250 -583q245 0 245 579q0 580 -245 583zM310 24q-224 149 -224 659q0 509 224 658q78 51 182 51t180 -50q221 -150 221 -659t-221 -658q-76 -51 -180 -51q-104 -2 -182 50zM494 1595q66 0 112 32t60 122h108q-7 -131 -89 -196
q-82 -64 -189 -64q-187 0 -262 141q-26 49 -27 119h115q21 -154 172 -154z" />
    <glyph glyph-name="obreve" unicode="&#x14f;" horiz-adv-x="784" 
d="M567 490q0 390 -174 391q-96 0 -141 -125q-35 -96 -35 -269t35 -264q45 -123 141 -123q174 0 174 390zM711 489q0 -361 -179 -474q-59 -38 -141 -38t-141 38q-176 113 -176 474t179 475q60 38 141 38q160 -1 238 -140q79 -139 79 -373zM406 1251q66 0 112 32t60 122h108
q-7 -131 -89 -196q-82 -64 -189 -64q-187 0 -262 141q-26 49 -27 119h114q21 -154 173 -154z" />
    <glyph glyph-name="Ohungarumlaut" unicode="&#x150;" horiz-adv-x="978" 
d="M492 1264q-250 0 -250 -579t250 -583q245 0 245 579q0 580 -245 583zM310 24q-224 149 -224 659q0 509 224 658q78 51 182 51t180 -50q221 -150 221 -659t-221 -658q-76 -51 -180 -51q-104 -2 -182 50zM305 1432l-65 67l245 279l107 -92zM578 1432l-66 67l246 279
l106 -92z" />
    <glyph glyph-name="ohungarumlaut" unicode="&#x151;" horiz-adv-x="784" 
d="M567 490q0 390 -174 391q-96 0 -141 -125q-35 -96 -35 -269t35 -264q45 -123 141 -123q174 0 174 390zM711 489q0 -361 -179 -474q-59 -38 -141 -38t-141 38q-176 113 -176 474t179 475q60 38 141 38q160 -1 238 -140q79 -139 79 -373zM244 1092l-66 67l246 279l106 -92z
M516 1092l-65 67l245 279l107 -92z" />
    <glyph glyph-name="OE" unicode="&#x152;" horiz-adv-x="1347" 
d="M702 1245h-73q-185 0 -287 -143q-102 -142 -102 -412t104 -420t291 -149h67v1124zM1294 0h-663q-255 0 -400 186t-145 509t149 497t396 174h649v-123h-432v-465h315v-123h-317v-532h448v-123z" />
    <glyph glyph-name="oe" unicode="&#x153;" horiz-adv-x="1220" 
d="M1008 612q-4 150 -47 212t-103 62q-132 1 -162 -274h312zM556 348q8 70 7 191q-1 122 -27 198t-59 111t-84 35t-84 -35q-88 -94 -88 -358t88 -357q33 -35 84 -35t84 35t52 90t27 125zM858 1001q154 0 228 -131t73 -364h-465q0 -408 180 -408q94 0 134 97q10 27 16 51
l119 -47q-29 -92 -93 -157t-164 -65q-201 0 -261 179q-75 -178 -231 -178q-86 0 -144 37q-112 75 -156 270q-20 95 -20 205q0 231 83 372t242 140q160 -1 224 -183q35 86 96 134t139 48z" />
    <glyph glyph-name="Racute" unicode="&#x154;" horiz-adv-x="843" 
d="M596 995q0 250 -186 250h-142v-524h117q115 -1 163 69t48 205zM750 1004q0 -280 -189 -367l211 -637h-158l-190 600h-156v-600h-137v1366h307q160 0 236 -101t76 -261zM313 1454l-65 68l301 284l96 -98z" />
    <glyph glyph-name="racute" unicode="&#x155;" horiz-adv-x="512" 
d="M397 870q-69 0 -141 -90v-780h-135v977h121l10 -76q77 96 156 96q30 0 79 -14l-20 -123q-40 10 -70 10zM219 1114l-65 68l301 284l96 -98z" />
    <glyph glyph-name="Rcommaaccent" unicode="&#x156;" horiz-adv-x="843" 
d="M596 995q0 250 -186 250h-142v-524h117q115 -1 163 69t48 205zM750 1004q0 -280 -189 -367l211 -637h-158l-190 600h-156v-600h-137v1366h307q160 0 236 -101t76 -261zM377 -356h-105l105 266h147z" />
    <glyph glyph-name="rcommaaccent" unicode="&#x157;" horiz-adv-x="512" 
d="M397 870q-69 0 -141 -90v-780h-135v977h121l10 -76q77 96 156 96q30 0 79 -14l-20 -123q-40 10 -70 10zM102 -356h-104l104 266h148z" />
    <glyph glyph-name="Rcaron" unicode="&#x158;" horiz-adv-x="843" 
d="M596 995q0 250 -186 250h-142v-524h117q115 -1 163 69t48 205zM750 1004q0 -280 -189 -367l211 -637h-158l-190 600h-156v-600h-137v1366h307q160 0 236 -101t76 -261zM440 1454h-96l-190 309l100 52l137 -238l146 233l94 -49z" />
    <glyph glyph-name="rcaron" unicode="&#x159;" horiz-adv-x="512" 
d="M397 870q-69 0 -141 -90v-780h-135v977h121l10 -76q77 96 156 96q30 0 79 -14l-20 -123q-40 10 -70 10zM348 1114h-96l-191 309l101 52l137 -238l145 233l95 -49z" />
    <glyph glyph-name="Sacute" unicode="&#x15a;" horiz-adv-x="759" 
d="M535 696q153 -125 153 -327t-93 -300t-223 -98t-214 67q-82 67 -113 175l131 51q35 -84 78 -122q42 -38 114 -38t122 58t50 177t-47 187q-48 68 -159 135t-160 128q-100 123 -99 279t92 239q91 84 220 86q215 0 299 -224l-133 -57q-25 74 -65 113t-108 39t-114 -52
q-45 -52 -45 -128t22 -132q29 -74 201 -190q47 -32 91 -66zM287 1454l-66 68l301 284l96 -98z" />
    <glyph glyph-name="sacute" unicode="&#x15b;" horiz-adv-x="610" 
d="M293 94q121 0 121 154q0 76 -20 113q-39 69 -135 115q-183 88 -183 272q0 118 68 186t159 68q166 -1 227 -171l-104 -55q-35 78 -71 98q-17 10 -42 11q-59 0 -85 -39t-26 -79q1 -74 25 -104t121 -88q94 -51 146 -119q51 -69 51 -199t-70 -205t-177 -75q-192 0 -251 199
l115 45q16 -47 44 -87t87 -40zM213 1114l-66 68l302 284l96 -98z" />
    <glyph glyph-name="Scircumflex" unicode="&#x15c;" horiz-adv-x="759" 
d="M535 696q153 -125 153 -327t-93 -300t-223 -98t-214 67q-82 67 -113 175l131 51q35 -84 78 -122q42 -38 114 -38t122 58t50 177t-47 187q-48 68 -159 135t-160 128q-100 123 -99 279t92 239q91 84 220 86q215 0 299 -224l-133 -57q-25 74 -65 113t-108 39t-114 -52
q-45 -52 -45 -128t22 -132q29 -74 201 -190q47 -32 91 -66zM633 1505l-92 -49l-148 193l-137 -197l-100 51l190 269h96z" />
    <glyph glyph-name="scircumflex" unicode="&#x15d;" horiz-adv-x="610" 
d="M293 94q121 0 121 154q0 76 -20 113q-39 69 -135 115q-183 88 -183 272q0 118 68 186t159 68q166 -1 227 -171l-104 -55q-35 78 -71 98q-17 10 -42 11q-59 0 -85 -39t-26 -79q1 -74 25 -104t121 -88q94 -51 146 -119q51 -69 51 -199t-70 -205t-177 -75q-192 0 -251 199
l115 45q16 -47 44 -87t87 -40zM549 1163l-92 -49l-148 193l-137 -197l-100 51l190 269h96z" />
    <glyph glyph-name="Scedilla" unicode="&#x15e;" horiz-adv-x="759" 
d="M500 -203q0 -82 -51 -123t-121 -41t-121 37l37 88q31 -26 65 -26q70 0 72 57q0 53 -102 66l53 118q-106 8 -182 73t-105 167l131 51q35 -84 78 -122q42 -38 114 -38t122 58t50 177t-47 187q-48 68 -159 135t-160 128q-100 123 -99 279t92 239q91 84 220 86
q215 0 299 -224l-133 -57q-25 74 -65 113t-108 39t-114 -52q-45 -52 -45 -128t22 -132q29 -74 174 -171t186 -155q86 -119 86 -277q-1 -159 -73 -253t-180 -116l-26 -66q90 -35 90 -117z" />
    <glyph glyph-name="scedilla" unicode="&#x15f;" horiz-adv-x="610" 
d="M422 -203q0 -82 -51 -123t-121 -41t-121 37l37 88q31 -26 65 -26q72 0 72 55t-102 68l55 125q-163 21 -209 196l115 45q16 -47 44 -87t87 -40q121 0 121 154q0 76 -20 113q-39 69 -135 115q-183 88 -183 272q0 118 68 186t159 68q166 -1 227 -171l-104 -55q-35 78 -71 98
q-17 10 -42 11q-59 0 -85 -39t-26 -79q1 -74 25 -104t121 -88q94 -51 146 -119q51 -69 51 -188q0 -118 -49 -190t-136 -92l-28 -72q90 -35 90 -117z" />
    <glyph glyph-name="Scaron" unicode="&#x160;" horiz-adv-x="759" 
d="M535 696q153 -125 153 -327t-93 -300t-223 -98t-214 67q-82 67 -113 175l131 51q35 -84 78 -122q42 -38 114 -38t122 58t50 177t-47 187q-48 68 -159 135t-160 128q-100 123 -99 279t92 239q91 84 220 86q215 0 299 -224l-133 -57q-25 74 -65 113t-108 39t-114 -52
q-45 -52 -45 -128t22 -132q29 -74 201 -190q47 -32 91 -66zM436 1454h-96l-190 309l100 52l137 -238l145 233l95 -49z" />
    <glyph glyph-name="scaron" unicode="&#x161;" horiz-adv-x="610" 
d="M293 94q121 0 121 154q0 76 -20 113q-39 69 -135 115q-183 88 -183 272q0 118 68 186t159 68q166 -1 227 -171l-104 -55q-35 78 -71 98q-17 10 -42 11q-59 0 -85 -39t-26 -79q1 -74 25 -104t121 -88q94 -51 146 -119q51 -69 51 -199t-70 -205t-177 -75q-192 0 -251 199
l115 45q16 -47 44 -87t87 -40zM362 1114h-96l-190 309l100 52l137 -238l146 233l94 -49z" />
    <glyph glyph-name="uni0162" unicode="&#x162;" horiz-adv-x="796" 
d="M504 -203q0 -82 -51 -123t-121 -41t-121 37l37 88q31 -26 65 -26q72 0 72 55t-102 68l65 145h-20v1241h-283v125h707v-125h-281v-1241h-22l-35 -86q90 -35 90 -117z" />
    <glyph glyph-name="uni0163" unicode="&#x163;" horiz-adv-x="522" 
d="M387 -326q-51 -41 -120 -41t-122 37l37 88q31 -26 65 -26q72 0 72 55t-102 68l57 129q-121 27 -120 213v661h-119v119h119v266h137v-266h180v-119h-182v-657q0 -107 67 -107q51 0 95 37l47 -88q-45 -45 -123 -61l-27 -68q92 -36 91 -117q-1 -82 -52 -123z" />
    <glyph glyph-name="Tcaron" unicode="&#x164;" horiz-adv-x="796" 
d="M471 1241v-1241h-143v1241h-283v125h707v-125h-281zM451 1454h-97l-190 309l100 52l137 -238l146 233l94 -49z" />
    <glyph glyph-name="tcaron" unicode="&#x165;" horiz-adv-x="522" 
d="M154 197v661h-119v119h119v266h137v-266h180v-119h-182v-657q0 -107 67 -107q51 0 95 37l47 -88q-64 -64 -172 -66q-172 0 -172 220zM391 1069v348h133l-49 -348h-84z" />
    <glyph glyph-name="Tbar" unicode="&#x166;" horiz-adv-x="796" 
d="M471 1241v-512h213v-113h-213v-616h-143v616h-215v113h215v512h-283v125h707v-125h-281z" />
    <glyph glyph-name="tbar" unicode="&#x167;" horiz-adv-x="524" 
d="M154 197v243h-119v119h119v299h-119v119h119v266h137v-266h180v-119h-182v-299h182v-119h-182v-239q0 -107 67 -107q51 0 95 37l47 -88q-64 -64 -172 -66q-172 0 -172 220z" />
    <glyph glyph-name="Utilde" unicode="&#x168;" horiz-adv-x="944" 
d="M262 406q0 -306 209 -306q115 0 163 83t48 223v960h143v-965q0 -211 -98 -320q-98 -108 -254 -108q-250 0 -328 227q-27 79 -26 187v979h143v-960zM614 1532q-49 0 -86 16t-84 45q-48 29 -68 29q-39 0 -69 -90l-90 33q48 161 145 159q46 0 74 -14t72 -44q45 -30 74 -31
t46 15t31 70l89 -28q-20 -86 -52 -123t-82 -37z" />
    <glyph glyph-name="utilde" unicode="&#x169;" horiz-adv-x="817" 
d="M565 63q-93 -88 -209 -88q-117 -1 -180 71t-63 175v756h135v-692q0 -101 32 -147t103 -46q98 0 178 92v793h135v-977h-125zM158 1194q48 160 144 160q46 0 74 -14t52 -31t48 -31t50 -14t42 16q17 16 32 70l88 -29q-20 -86 -52 -123t-81 -37t-84 16t-85 45t-70 29
q-38 0 -68 -90z" />
    <glyph glyph-name="Umacron" unicode="&#x16a;" horiz-adv-x="944" 
d="M262 406q0 -306 209 -306q115 0 163 83t48 223v960h143v-965q0 -211 -98 -320q-98 -108 -254 -108q-250 0 -328 227q-27 79 -26 187v979h143v-960zM240 1571v119h477v-119h-477z" />
    <glyph glyph-name="umacron" unicode="&#x16b;" horiz-adv-x="817" 
d="M565 63q-93 -88 -209 -88q-117 -1 -180 71t-63 175v756h135v-692q0 -101 32 -147t103 -46q98 0 178 92v793h135v-977h-125zM176 1231v119h477v-119h-477z" />
    <glyph glyph-name="Ubreve" unicode="&#x16c;" horiz-adv-x="944" 
d="M262 406q0 -306 209 -306q115 0 163 83t48 223v960h143v-965q0 -211 -98 -320q-98 -108 -254 -108q-250 0 -328 227q-27 79 -26 187v979h143v-960zM494 1591q66 0 112 32t60 122h108q-7 -131 -89 -196q-82 -64 -189 -64q-187 0 -262 141q-26 49 -27 119h115
q21 -154 172 -154z" />
    <glyph glyph-name="ubreve" unicode="&#x16d;" horiz-adv-x="817" 
d="M565 63q-93 -88 -209 -88q-117 -1 -180 71t-63 175v756h135v-692q0 -101 32 -147t103 -46q98 0 178 92v793h135v-977h-125zM424 1251q66 0 113 32t59 122h109q-7 -132 -90 -196q-82 -64 -189 -64q-189 0 -261 141q-26 49 -28 119h115q21 -154 172 -154z" />
    <glyph glyph-name="Uring" unicode="&#x16e;" horiz-adv-x="944" 
d="M262 406q0 -306 209 -306q115 0 163 83t48 223v960h143v-965q0 -211 -98 -320q-98 -108 -254 -108q-250 0 -328 227q-27 79 -26 187v979h143v-960zM377 1651q0 -45 32 -77q33 -32 77 -32t76 32t32 77t-32 77t-77 31q-45 1 -77 -31t-31 -77zM303 1649q0 78 52 131t130 53
t131 -53q54 -53 54 -131t-54 -130q-54 -53 -131 -53q-78 0 -130 52t-52 131z" />
    <glyph glyph-name="uring" unicode="&#x16f;" horiz-adv-x="817" 
d="M565 63q-93 -88 -209 -88q-117 -1 -180 71t-63 175v756h135v-692q0 -101 32 -147t103 -46q98 0 178 92v793h135v-977h-125zM315 1311q0 -45 32 -77t77 -32t77 32t31 77q0 45 -31 77q-32 32 -77 32t-77 -32t-32 -77zM242 1309q0 78 52 131t130 53t131 -53t53 -131
t-53 -130q-53 -53 -131 -53t-130 52t-52 131z" />
    <glyph glyph-name="Uhungarumlaut" unicode="&#x170;" horiz-adv-x="944" 
d="M262 406q0 -306 209 -306q115 0 163 83t48 223v960h143v-965q0 -211 -98 -320q-98 -108 -254 -108q-250 0 -328 227q-27 79 -26 187v979h143v-960zM293 1432l-66 67l246 279l107 -92zM565 1432l-65 67l245 279l107 -92z" />
    <glyph glyph-name="uhungarumlaut" unicode="&#x171;" horiz-adv-x="817" 
d="M565 63q-93 -88 -209 -88q-117 -1 -180 71t-63 175v756h135v-692q0 -101 32 -147t103 -46q98 0 178 92v793h135v-977h-125zM211 1092l-66 67l246 279l107 -92zM483 1092l-65 67l246 279l106 -92z" />
    <glyph glyph-name="Uogonek" unicode="&#x172;" horiz-adv-x="944" 
d="M262 406q0 -306 209 -306q115 0 163 83t48 223v960h143v-965q0 -164 -58 -262t-153 -139q-92 -75 -92 -180q0 -82 62 -80q33 0 67 18l31 -92q-48 -29 -120 -30q-73 -1 -118 40t-45 133t66 164q-246 6 -321 229q-26 77 -25 185v979h143v-960z" />
    <glyph glyph-name="uogonek" unicode="&#x173;" horiz-adv-x="817" 
d="M565 63q-93 -88 -209 -88q-117 -1 -180 71t-63 175v756h135v-692q0 -101 32 -147t103 -46q98 0 178 92v793h135v-977h-20q-94 -76 -93 -169t62 -91q33 0 68 18l30 -92q-48 -29 -120 -30t-117 40t-45 119q0 125 108 221z" />
    <glyph glyph-name="Wcircumflex" unicode="&#x174;" horiz-adv-x="1206" 
d="M924 0h-123l-195 1104l-194 -1104h-123l-238 1366h133l176 -1032l183 1032h125l188 -1030l170 1030h129zM838 1503l-93 -49l-147 193l-137 -197l-101 51l191 268h96z" />
    <glyph glyph-name="wcircumflex" unicode="&#x175;" horiz-adv-x="1021" 
d="M774 0h-119l-145 711l-143 -711h-119l-211 977h135l141 -733l150 733h94l156 -733l137 733h135zM741 1163l-92 -49l-147 193l-137 -197l-101 51l191 269h96z" />
    <glyph glyph-name="Ycircumflex" unicode="&#x176;" horiz-adv-x="860" 
d="M496 0h-144v655l-311 711h154l235 -557l240 557h149l-323 -711v-655zM672 1503l-92 -49l-148 193l-137 -197l-100 51l190 268h96z" />
    <glyph glyph-name="ycircumflex" unicode="&#x177;" horiz-adv-x="712" 
d="M128 -295q40 0 62 32t43 109l52 189l-248 942h143l174 -723l183 723h139l-330 -1186q-28 -104 -82 -160q-46 -43 -112 -44q-67 -1 -125 28l32 106q29 -16 69 -16zM606 1163l-92 -49l-147 193l-138 -197l-100 51l190 269h97z" />
    <glyph glyph-name="Ydieresis" unicode="&#x178;" horiz-adv-x="860" 
d="M496 0h-144v655l-311 711h154l235 -557l240 557h149l-323 -711v-655zM502 1610q0 42 28 70t70 28q41 0 70 -29q28 -29 28 -69t-28 -70q-28 -29 -70 -29q-41 0 -70 29q-28 29 -28 70zM199 1610q1 42 29 70t69 28t70 -29t29 -69t-30 -70q-28 -29 -69 -29t-70 29
q-28 29 -28 70z" />
    <glyph glyph-name="Zacute" unicode="&#x179;" horiz-adv-x="792" 
d="M61 0v133l514 1110h-489v123h619v-158l-502 -1085h522v-123h-664zM313 1454l-65 68l301 284l96 -98z" />
    <glyph glyph-name="zacute" unicode="&#x17a;" horiz-adv-x="647" 
d="M55 0v143l398 715h-381v119h503v-152l-397 -706h408v-119h-531zM240 1114l-66 68l301 284l96 -98z" />
    <glyph glyph-name="Zdotaccent" unicode="&#x17b;" horiz-adv-x="792" 
d="M61 0v133l514 1110h-489v123h619v-158l-502 -1085h522v-123h-664zM307 1632q0 41 29 71t70 30q40 0 70 -30t30 -71q0 -42 -30 -70t-70 -28t-70 28q-29 28 -29 70z" />
    <glyph glyph-name="zdotaccent" unicode="&#x17c;" horiz-adv-x="647" 
d="M55 0v143l398 715h-381v119h503v-152l-397 -706h408v-119h-531zM229 1292q0 41 29 71t70 30q40 0 70 -30t30 -71q0 -42 -30 -70t-70 -28t-70 28q-29 28 -29 70z" />
    <glyph glyph-name="Zcaron" unicode="&#x17d;" horiz-adv-x="792" 
d="M61 0v133l514 1110h-489v123h619v-158l-502 -1085h522v-123h-664zM457 1454h-97l-190 309l100 52l138 -238l145 233l94 -49z" />
    <glyph glyph-name="zcaron" unicode="&#x17e;" horiz-adv-x="647" 
d="M55 0v143l398 715h-381v119h503v-152l-397 -706h408v-119h-531zM389 1112h-96l-191 309l101 52l137 -238l145 233l95 -49z" />
    <glyph glyph-name="longs" unicode="&#x17f;" horiz-adv-x="464" 
d="M346 1278q-50 0 -70 -40t-20 -126v-1112h-135v1133q0 123 56 191t152 69q96 0 177 -50l-45 -98q-66 33 -115 33z" />
    <glyph glyph-name="florin" unicode="&#x192;" horiz-adv-x="819" 
d="M176 782v142h164l14 86q60 368 381 368v-141q-102 0 -151 -46q-68 -62 -88 -204l-11 -63h246v-142h-268l-68 -448q-32 -195 -61 -298t-81 -169q-110 -140 -276 -148v140q135 15 197 138q48 96 86 363l62 422h-146z" />
    <glyph glyph-name="Scommaaccent" unicode="&#x218;" horiz-adv-x="759" 
d="M535 696q153 -125 153 -327t-93 -300t-223 -98t-214 67q-82 67 -113 175l131 51q35 -84 78 -122q42 -38 114 -38t122 58t50 177t-47 187q-48 68 -159 135t-160 128q-100 123 -99 279t92 239q91 84 220 86q215 0 299 -224l-133 -57q-25 74 -65 113t-108 39t-114 -52
q-45 -52 -45 -128t22 -132q29 -74 201 -190q47 -32 91 -66zM309 -356h-104l104 266h148z" />
    <glyph glyph-name="scommaaccent" unicode="&#x219;" horiz-adv-x="610" 
d="M293 94q121 0 121 154q0 76 -20 113q-39 69 -135 115q-183 88 -183 272q0 118 68 186t159 68q166 -1 227 -171l-104 -55q-35 78 -71 98q-17 10 -42 11q-59 0 -85 -39t-26 -79q1 -74 25 -104t121 -88q94 -51 146 -119q51 -69 51 -199t-70 -205t-177 -75q-192 0 -251 199
l115 45q16 -47 44 -87t87 -40zM231 -356h-104l104 266h148z" />
    <glyph glyph-name="uni021A" unicode="&#x21a;" horiz-adv-x="796" 
d="M471 1241v-1241h-143v1241h-283v125h707v-125h-281zM330 -356h-105l105 266h147z" />
    <glyph glyph-name="uni021B" unicode="&#x21b;" horiz-adv-x="522" 
d="M154 197v661h-119v119h119v266h137v-266h180v-119h-182v-657q0 -107 67 -107q51 0 95 37l47 -88q-64 -64 -172 -66q-172 0 -172 220zM240 -356h-105l105 266h147z" />
    <glyph glyph-name="dotlessj" unicode="&#x237;" horiz-adv-x="380" 
d="M260 977v-1004q0 -207 -117 -320q-33 -32 -63 -56l-76 98q53 51 87 112t34 166v1004h135z" />
    <glyph glyph-name="circumflex" unicode="&#x2c6;" horiz-adv-x="917" 
d="M698 1163l-92 -49l-147 193l-137 -197l-101 51l191 269h96z" />
    <glyph glyph-name="caron" unicode="&#x2c7;" horiz-adv-x="917" 
d="M508 1114h-96l-191 309l101 52l137 -238l145 233l94 -49z" />
    <glyph glyph-name="uni02C9" unicode="&#x2c9;" horiz-adv-x="917" 
d="M188 1231v119h478v-119h-478z" />
    <glyph glyph-name="breve" unicode="&#x2d8;" horiz-adv-x="917" 
d="M463 1251q67 0 113 32t59 122h108q-7 -133 -89 -197q-82 -63 -189 -63q-189 0 -261 141q-26 49 -28 119h115q21 -154 172 -154z" />
    <glyph glyph-name="dotaccent" unicode="&#x2d9;" horiz-adv-x="917" 
d="M360 1292q0 41 29 71t70 30t71 -30t29 -71q0 -42 -30 -70q-31 -28 -71 -28t-69 28t-29 70z" />
    <glyph glyph-name="ring" unicode="&#x2da;" horiz-adv-x="917" 
d="M350 1311q0 -45 32 -77t77 -32t77 32t31 77q0 45 -31 77q-32 32 -77 32t-77 -32t-32 -77zM276 1309q0 78 52 131t131 53q78 0 131 -53t53 -131t-53 -130q-53 -53 -131 -53q-79 0 -131 52t-52 131z" />
    <glyph glyph-name="ogonek" unicode="&#x2db;" horiz-adv-x="917" 
d="M248 -205q0 137 125 236l90 -6v-25q-94 -76 -93 -169t62 -91q33 0 68 18l30 -92q-48 -29 -120 -30t-117 40t-45 119z" />
    <glyph glyph-name="tilde" unicode="&#x2dc;" horiz-adv-x="917" 
d="M673 1229q-32 -37 -91 -37t-130 45q-28 17 -53 31t-45 14q-40 0 -69 -90l-90 33q48 161 144 159q63 -1 126 -45q25 -16 49 -30q56 -33 91 2q17 16 32 69l88 -28q-20 -86 -52 -123z" />
    <glyph glyph-name="hungarumlaut" unicode="&#x2dd;" horiz-adv-x="917" 
d="M209 1092l-66 67l246 279l107 -92zM481 1092l-65 67l246 279l106 -92z" />
    <glyph glyph-name="tonos" unicode="&#x384;" horiz-adv-x="905" 
d="M434 1087l-100 31l133 418l145 -37z" />
    <glyph glyph-name="dieresistonos" unicode="&#x385;" horiz-adv-x="905" 
d="M659 1331q0 41 29 70t70 29q42 0 70 -29t28 -70t-29 -69t-69 -29q-40 1 -70 29q-29 28 -29 69zM98 1331q0 41 29 70t70 29t69 -29t29 -70q0 -41 -29 -69q-30 -28 -70 -29q-40 1 -69 29t-29 69zM432 1149l-96 43l190 395l140 -55z" />
    <glyph glyph-name="Alphatonos" unicode="&#x386;" horiz-adv-x="899" 
d="M98 920l-102 30l121 418l145 -37zM438 1083l-151 -622h307zM709 0l-84 336h-367l-82 -336h-139l354 1366h98l363 -1366h-143z" />
    <glyph glyph-name="Epsilontonos" unicode="&#x388;" horiz-adv-x="831" 
d="M-51 920l-103 30l121 418l146 -37zM172 0v1366h578v-123h-433v-465h316v-123h-318v-532h449v-123h-592z" />
    <glyph glyph-name="Etatonos" unicode="&#x389;" horiz-adv-x="1013" 
d="M-51 920l-103 30l121 418l146 -37zM729 0v639h-422v-639h-143v1366h143v-602h422v602h141v-1366h-141z" />
    <glyph glyph-name="Iotatonos" unicode="&#x38a;" horiz-adv-x="462" 
d="M-51 920l-103 30l121 418l146 -37zM176 0v1366h143v-1366h-143z" />
    <glyph glyph-name="Omicrontonos" unicode="&#x38c;" horiz-adv-x="1015" 
d="M766 681q0 579 -246 583q-245 0 -250 -580q0 -579 250 -582q246 0 246 579zM822 164q-100 -189 -302 -190q-203 -1 -305 189t-100 521q0 509 224 657q77 51 181 51t180 -50q76 -52 125 -144q97 -182 97 -514q0 -331 -100 -520zM-10 920l-103 30l121 418l146 -37z" />
    <glyph glyph-name="Upsilontonos" unicode="&#x38e;" horiz-adv-x="1050" 
d="M670 315v-315h-144v365q0 78 -7 158q-15 171 -129 414t-232 355l110 92q101 -92 208 -301t128 -387q30 170 132 383q103 212 192 307l114 -83q-90 -90 -218 -356q-73 -152 -108 -270q-34 -118 -40 -196q-6 -77 -6 -166zM-51 920l-103 30l121 418l146 -37z" />
    <glyph glyph-name="Omegatonos" unicode="&#x38f;" horiz-adv-x="1060" 
d="M-20 920l-103 30l121 418l145 -37zM967 760q0 -373 -207 -619h192v-141h-331v141q76 87 136 252q60 164 60 374t-71 346t-209 136t-213 -143q-74 -143 -74 -377q0 -326 199 -588v-141h-336v141h192q-206 229 -209 602q0 281 115 465q115 183 325 184q211 1 321 -175
t110 -457z" />
    <glyph glyph-name="iotadieresistonos" unicode="&#x390;" horiz-adv-x="430" 
d="M121 164v813h135v-778q0 -47 8 -73t48 -26t77 17l17 -113q-39 -25 -125 -27q-160 0 -160 187zM383 1331q0 41 29 70q30 29 70 29t69 -29t29 -70t-29 -69t-70 -29q-41 1 -69 29t-29 69zM-178 1331q0 41 28 70q29 29 70 29t70 -29q28 -29 28 -70t-28 -69t-70 -29
q-42 1 -70 29t-28 69zM156 1149l-97 43l191 395l139 -55z" />
    <glyph glyph-name="Alpha" unicode="&#x391;" horiz-adv-x="913" 
d="M451 1083l-152 -622h307zM721 0l-84 336h-367l-82 -336h-139l354 1366h99l362 -1366h-143z" />
    <glyph glyph-name="Beta" unicode="&#x392;" horiz-adv-x="829" 
d="M594 381q0 139 -46 207t-151 67h-121v-534h152q166 0 166 260zM553 1030q0 215 -150 215h-127v-469h117q78 0 119 70t41 184zM750 381q0 -177 -81 -279t-220 -102h-310v1366h258q154 0 229 -93q74 -93 74 -239t-50 -217q-50 -72 -115 -92q137 -25 193 -189
q22 -63 22 -155z" />
    <glyph glyph-name="Gamma" unicode="&#x393;" horiz-adv-x="768" 
d="M287 1237v-1237h-144v1366h580v-129h-436z" />
    <glyph glyph-name="uni0394" unicode="&#x394;" horiz-adv-x="901" 
d="M446 1083l-221 -960h451zM51 0l348 1366h99l356 -1366h-803z" />
    <glyph glyph-name="Epsilon" unicode="&#x395;" horiz-adv-x="796" 
d="M137 0v1366h578v-123h-432v-465h315v-123h-317v-532h448v-123h-592z" />
    <glyph glyph-name="Zeta" unicode="&#x396;" horiz-adv-x="808" 
d="M70 0v133l514 1110h-490v123h619v-158l-502 -1085h522v-123h-663z" />
    <glyph glyph-name="Eta" unicode="&#x397;" horiz-adv-x="993" 
d="M709 0v639h-422v-639h-144v1366h144v-602h422v602h141v-1366h-141z" />
    <glyph glyph-name="Theta" unicode="&#x398;" horiz-adv-x="995" 
d="M754 681q0 579 -254 583q-258 0 -258 -580q0 -405 131 -533q49 -48 127 -49q254 0 254 579zM901 684q0 -333 -99 -521t-302 -189t-305 187q-101 188 -101 523q0 509 224 657q78 51 182 51t180 -50q221 -150 221 -658zM317 750h355v-123h-355v123z" />
    <glyph glyph-name="Iota" unicode="&#x399;" horiz-adv-x="430" 
d="M143 0v1366h144v-1366h-144z" />
    <glyph glyph-name="Kappa" unicode="&#x39a;" horiz-adv-x="851" 
d="M281 0h-144v1366h144v-618l366 618h152l-312 -522l332 -844h-172l-262 698l-104 -174v-524z" />
    <glyph glyph-name="Lambda" unicode="&#x39b;" horiz-adv-x="872" 
d="M430 1067l-235 -1067h-146l324 1366h119l331 -1366h-143z" />
    <glyph glyph-name="Mu" unicode="&#x39c;" horiz-adv-x="1167" 
d="M895 0v1075l-266 -1087h-78l-279 1079v-1067h-129v1366h172l277 -1104l262 1104h170v-1366h-129z" />
    <glyph glyph-name="Nu" unicode="&#x39d;" horiz-adv-x="997" 
d="M283 0h-140v1366h144l428 -1006v1006h139v-1366h-113l-458 1090v-1090z" />
    <glyph glyph-name="Xi" unicode="&#x39e;" horiz-adv-x="770" 
d="M145 647v127h478v-127h-478zM76 1235v131h618v-131h-618zM68 0v131h634v-131h-634z" />
    <glyph glyph-name="Omicron" unicode="&#x39f;" horiz-adv-x="995" 
d="M500 1264q-250 0 -250 -579t250 -583q245 0 245 579q0 580 -245 583zM901 684q0 -333 -99 -521t-302 -189t-305 187q-101 188 -101 523q0 509 224 657q78 51 182 51t180 -50q221 -150 221 -658z" />
    <glyph glyph-name="Pi" unicode="&#x3a0;" horiz-adv-x="999" 
d="M715 0v1241h-428v-1241h-144v1366h713v-1366h-141z" />
    <glyph glyph-name="Rho" unicode="&#x3a1;" horiz-adv-x="845" 
d="M612 955q0 153 -49 222t-160 68h-120v-575h96q125 0 179 66t54 219zM766 959q0 -201 -98 -305t-273 -105h-112v-549h-140v1366h273q184 0 267 -103t83 -304z" />
    <glyph glyph-name="Sigma" unicode="&#x3a3;" horiz-adv-x="800" 
d="M82 0v127l369 553l-381 557v129h653v-125h-496l381 -559l-372 -557h512v-125h-666z" />
    <glyph glyph-name="Tau" unicode="&#x3a4;" horiz-adv-x="813" 
d="M479 1241v-1241h-143v1241h-283v125h707v-125h-281z" />
    <glyph glyph-name="Upsilon" unicode="&#x3a5;" horiz-adv-x="950" 
d="M545 315v-315h-144v365q0 78 -7 158q-15 171 -129 414t-232 355l110 92q101 -92 208 -301t128 -387q30 170 132 383q103 212 192 307l115 -83q-92 -92 -223 -364t-142 -439q-8 -91 -8 -185z" />
    <glyph glyph-name="Phi" unicode="&#x3a6;" horiz-adv-x="1114" 
d="M219 684q0 -184 75 -286t200 -105v776q-127 -4 -201 -102q-74 -99 -74 -283zM901 680q0 188 -79 288t-195 101v-776q121 2 197 100q76 99 77 287zM627 -23h-133v193q-199 10 -312 141q-112 131 -112 364t114 369q114 137 310 150v199h133v-199q189 -10 303 -139t114 -362
t-112 -372t-305 -151v-193z" />
    <glyph glyph-name="Chi" unicode="&#x3a7;" horiz-adv-x="829" 
d="M633 0l-221 559l-219 -559h-148l297 711l-270 655h151l193 -500l194 500h146l-269 -649l297 -717h-151z" />
    <glyph glyph-name="Psi" unicode="&#x3a8;" horiz-adv-x="1097" 
d="M852 907v459h143v-479q0 -205 -91 -332t-286 -141v-414h-139v414q-205 12 -291 127t-86 327v498h144v-473q0 -184 56 -267t177 -83v823h139v-823q234 4 234 364z" />
    <glyph glyph-name="Omega" unicode="&#x3a9;" horiz-adv-x="1058" 
d="M248 729q0 -320 198 -588v-141h-335v141h192q-206 229 -209 602q0 281 115 465q115 183 325 184q211 1 321 -175t110 -472t-134 -503q-37 -57 -73 -101h192v-141h-332v141q77 89 137 253q60 163 60 373t-71 346t-209 136t-213 -143q-74 -144 -74 -377z" />
    <glyph glyph-name="Iotadieresis" unicode="&#x3aa;" horiz-adv-x="430" 
d="M143 0v1366h144v-1366h-144zM270 1610q0 42 29 70t70 28t69 -29t29 -69q0 -40 -29 -70q-30 -29 -70 -29t-69 29t-29 70zM-33 1610q0 42 29 70t70 28q42 0 70 -29t28 -69t-29 -70q-29 -29 -69 -29t-70 29q-29 29 -29 70z" />
    <glyph glyph-name="Upsilondieresis" unicode="&#x3ab;" horiz-adv-x="950" 
d="M545 315v-315h-144v365q0 78 -7 158q-15 171 -129 414t-232 355l110 92q101 -92 208 -301t128 -387q30 170 132 383q103 212 192 307l115 -83q-92 -92 -223 -364t-142 -439q-8 -91 -8 -185zM530 1610q0 42 29 70t70 28t69 -29t29 -69q0 -40 -29 -70q-30 -29 -70 -29
t-69 29t-29 70zM227 1610q0 42 29 70t70 28q42 0 70 -29t28 -69t-29 -70q-29 -29 -69 -29t-70 29q-29 29 -29 70z" />
    <glyph glyph-name="alphatonos" unicode="&#x3ac;" horiz-adv-x="880" 
d="M387 100q188 0 188 398q0 246 -82 338q-34 37 -90 36q-84 0 -128 -104t-44 -292q0 -376 156 -376zM378 1001q192 0 234 -176q6 76 43 181l131 -33q-83 -266 -81 -555q0 -248 44 -285q23 -20 45 -20t44 4l10 -129q-17 -5 -82 -11q-145 0 -164 166q-12 -31 -27 -51
q-49 -70 -98 -92t-108 -23q-139 0 -213 123t-74 365q0 365 171 492q59 44 125 44zM481 1087l-100 31l133 418l145 -37z" />
    <glyph glyph-name="epsilontonos" unicode="&#x3ad;" horiz-adv-x="708" 
d="M86 262q0 98 51 163t115 83q-63 29 -106 86q-42 57 -42 135q0 125 77 199t218 74t242 -84l-70 -107q-85 66 -165 67q-160 2 -160 -151q0 -57 32 -109q32 -51 119 -51h156v-116h-82q-79 0 -111 -7q-57 -6 -95 -51t-38 -124t48 -124t147 -45t190 60l47 -107
q-96 -74 -254 -75q-157 -1 -238 73t-81 211zM401 1087l-100 31l133 418l146 -37z" />
    <glyph glyph-name="etatonos" unicode="&#x3ae;" horiz-adv-x="851" 
d="M122 993q46 -1 82 -25t46 -100q35 66 96 100t131 33q131 0 189 -67q69 -82 69 -258v-1063h-135v1003q0 81 -7 139t-37 91t-96 33t-107 -39q-62 -61 -65 -164q-1 -37 -1 -60v-616h-135v797q0 76 -48 75q-21 0 -43 -10l-24 111q39 20 85 20zM477 1087l-100 31l133 418
l145 -37z" />
    <glyph glyph-name="iotatonos" unicode="&#x3af;" horiz-adv-x="430" 
d="M121 164v813h135v-778q0 -47 8 -73t48 -26t77 17l17 -113q-39 -25 -125 -27q-160 0 -160 187zM231 1087l-100 31l133 418l146 -37z" />
    <glyph glyph-name="upsilondieresistonos" unicode="&#x3b0;" horiz-adv-x="821" 
d="M119 993q131 0 151 -135q11 -64 11 -174v-346q0 -173 66 -215q28 -19 75 -19q85 -1 122 65q22 38 38 144t16 213t-2 154q-4 89 -16 187l-13 104l135 20q29 -215 29 -379t-8 -264q-34 -369 -311 -371q-146 -1 -206 95t-61 260v397q0 63 -7 100t-46 37q-12 0 -23 -2l-22 -4
l-18 117q48 16 90 16zM582 1331q0 41 28 70q29 29 70 29t70 -29q28 -29 28 -70t-28 -69t-70 -29q-42 1 -70 29t-28 69zM20 1331q0 41 29 70t70 29t69 -29t29 -70q0 -41 -29 -69q-30 -28 -70 -29q-40 1 -69 29t-29 69zM354 1149l-96 43l191 395l139 -55z" />
    <glyph glyph-name="alpha" unicode="&#x3b1;" horiz-adv-x="880" 
d="M387 100q188 0 188 398q0 246 -82 338q-34 37 -90 36q-84 0 -128 -104t-44 -292q0 -376 156 -376zM378 1001q192 0 234 -176q6 76 43 181l131 -33q-83 -266 -81 -555q0 -248 44 -285q23 -20 45 -20t44 4l10 -129q-17 -5 -82 -11q-145 0 -164 166q-12 -31 -27 -51
q-49 -70 -98 -92t-108 -23q-139 0 -213 123t-74 365q0 365 171 492q59 44 125 44z" />
    <glyph glyph-name="beta" unicode="&#x3b2;" horiz-adv-x="864" 
d="M379 807q186 -1 186 217q0 237 -143 240q-118 0 -149 -131q-17 -85 -17 -218v-692q97 -122 221 -125q166 0 166 262q0 174 -68 245t-196 71v131zM252 -389h-131v1345q1 151 27 224t61 116q77 95 215 95q137 -1 209 -91t72 -259t-115 -256q-33 -24 -68 -35
q182 -22 242 -208q22 -69 22 -162q-1 -189 -77 -296t-221 -107t-236 107v-473z" />
    <glyph glyph-name="gamma" unicode="&#x3b3;" horiz-adv-x="831" 
d="M496 -301v-86h-136q0 269 -12 387q-38 374 -178 793q-16 41 -34 53t-40 12q-23 0 -43 -8l-28 117q47 24 103 24q110 0 152 -97q79 -184 131 -501q19 -115 29 -237q92 533 203 839l135 -37q-113 -300 -198 -666q-84 -365 -84 -593z" />
    <glyph glyph-name="delta" unicode="&#x3b4;" horiz-adv-x="819" 
d="M403 106q193 0 193 371q0 145 -35 239t-88 165q-246 -35 -248 -406q0 -264 98 -342q34 -27 80 -27zM696 1366v-127h-360q310 -301 372 -519q54 -189 16 -400t-164 -297q-65 -45 -158 -45t-153 40q-167 114 -167 441t183 459q60 43 141 57q-104 126 -222 237l35 154h477z
" />
    <glyph glyph-name="epsilon" unicode="&#x3b5;" horiz-adv-x="708" 
d="M86 262q0 98 51 163t115 83q-63 29 -106 86q-42 57 -42 135q0 125 77 199t218 74t242 -84l-70 -107q-85 66 -165 67q-160 2 -160 -151q0 -57 32 -109q32 -51 119 -51h156v-116h-82q-79 0 -111 -7q-57 -6 -95 -51t-38 -124t48 -124t147 -45t190 60l47 -107
q-96 -74 -254 -75q-157 -1 -238 73t-81 211z" />
    <glyph glyph-name="zeta" unicode="&#x3b6;" horiz-adv-x="675" 
d="M414 1360q122 0 223 14v-119q-25 -23 -49 -45q-94 -87 -174 -215q-122 -198 -164 -398q-23 -105 -23 -201q-1 -96 17 -152q34 -107 168 -131q68 -13 168 -15q29 -2 43 -17t14 -81t-29 -180t-49 -174l-119 28q56 229 60 306h-11q-201 0 -294 79q-113 96 -113 316
q0 310 188 618q81 133 161 216q24 26 42 40q-53 -6 -155 -6t-175 23l19 116q130 -22 252 -22z" />
    <glyph glyph-name="eta" unicode="&#x3b7;" horiz-adv-x="851" 
d="M122 993q46 -1 82 -25t46 -100q35 66 96 100t131 33q131 0 189 -67q69 -82 69 -258v-1063h-135v1003q0 81 -7 139t-37 91t-96 33t-107 -39q-62 -61 -65 -164q-1 -37 -1 -60v-616h-135v797q0 76 -48 75q-21 0 -43 -10l-24 111q39 20 85 20z" />
    <glyph glyph-name="theta" unicode="&#x3b8;" horiz-adv-x="796" 
d="M403 1264q-99 0 -139 -166q-25 -103 -33 -359h338q-5 241 -26 337q-19 96 -53 142t-87 46zM231 625q0 -519 170 -519q100 0 141 163q27 116 27 356h-338zM707 687q0 -321 -56 -489q-73 -219 -252 -220t-254 219q-55 163 -55 479q0 488 164 655q62 61 154 61t150 -58
q149 -149 149 -647z" />
    <glyph glyph-name="iota" unicode="&#x3b9;" horiz-adv-x="430" 
d="M121 164v813h135v-778q0 -47 8 -73t48 -26t77 17l17 -113q-39 -25 -125 -27q-160 0 -160 187z" />
    <glyph glyph-name="kappa" unicode="&#x3ba;" horiz-adv-x="823" 
d="M264 0h-135v977h135v-477q34 62 140 249q107 187 175 219q39 17 91 17q53 0 92 -24l-25 -130q-61 33 -117 4q-26 -13 -49 -51l-102 -166l309 -618h-151l-238 492l-125 -216v-276z" />
    <glyph glyph-name="lambda" unicode="&#x3bb;" horiz-adv-x="821" 
d="M720 104q28 0 60 13l21 -117q-33 -21 -116 -22q-83 -2 -122 56t-59 154l-129 572l-199 -760h-143l276 981l-30 117q-16 59 -34 87q-36 59 -145 -1l-39 114q21 14 69 32t99 18q133 0 181 -189l237 -958q13 -51 29 -74t44 -23z" />
    <glyph glyph-name="uni03BC" unicode="&#x3bc;" horiz-adv-x="849" 
d="M700 209q0 -107 50 -107q28 0 47 7l16 -109q-31 -20 -79 -20t-85 24t-53 92q-41 -66 -85 -92q-45 -26 -105 -27q-110 0 -158 95v-459h-125v1364h131v-623q0 -135 33 -192q33 -58 107 -58q115 -1 155 117q18 53 18 154v602h133v-768z" />
    <glyph glyph-name="nu" unicode="&#x3bd;" horiz-adv-x="811" 
d="M98 860q-22 0 -45 -8l-28 119q43 22 99 22q56 -1 89 -27t54 -86q77 -219 130 -530q19 -105 29 -203q75 408 207 846l125 -30q-161 -559 -260 -963h-162q-84 502 -178 788q-12 40 -26 56q-12 16 -34 16z" />
    <glyph glyph-name="xi" unicode="&#x3be;" horiz-adv-x="712" 
d="M354 1360q99 0 267 12v-119q-29 -6 -49 -10t-35 -9t-33 -10q-125 -36 -178 -100q-54 -65 -54 -155q-1 -167 150 -191q37 -6 94 -6h62v-119q-162 0 -210 -25q-50 -24 -78 -60q-62 -77 -62 -175q-1 -98 21 -147q23 -49 69 -80q80 -53 298 -68q29 -2 43 -17t15 -80t-29 -180
q-29 -115 -49 -175l-119 28q49 202 58 308q-199 10 -303 71q-150 87 -150 305q0 132 66 222t155 125q-117 38 -157 153q-15 43 -15 95q0 104 66 189q66 84 161 111q-28 -4 -58 -4h-50q-88 0 -141 17l18 116q128 -22 227 -22z" />
    <glyph glyph-name="omicron" unicode="&#x3bf;" horiz-adv-x="800" 
d="M575 490q0 390 -174 391q-96 0 -141 -125q-35 -96 -35 -269t35 -264q45 -123 141 -123q174 0 174 390zM637 118q-81 -141 -237 -141t-237 139t-81 373q0 362 179 475q60 38 141 38q160 -1 238 -140q79 -139 79 -372q0 -231 -82 -372z" />
    <glyph glyph-name="pi" unicode="&#x3c0;" horiz-adv-x="993" 
d="M637 164v696h-268v-860h-133v860h-13q-35 0 -61 -26t-49 -66l-95 66q52 99 146 131q34 12 102 12h647v-119h-141v-663q0 -45 10 -73t43 -28t66 15l20 -105q-39 -25 -108 -27q-166 0 -166 187z" />
    <glyph glyph-name="rho" unicode="&#x3c1;" horiz-adv-x="823" 
d="M414 94q180 0 180 392t-166 388q-85 0 -126 -69t-50 -193q-4 -30 -4 -58v-364q80 -96 166 -96zM424 1001q317 0 317 -501q0 -362 -164 -481q-58 -42 -161 -42t-172 84v-448h-133v928q0 229 85 345t228 115z" />
    <glyph glyph-name="sigma1" unicode="&#x3c2;" horiz-adv-x="696" 
d="M82 504q0 351 176 461q60 37 130 37q120 -1 189 -83q49 -59 70 -155l-119 -37q-12 59 -46 107t-85 47q-51 0 -84 -35q-86 -91 -86 -346q0 -293 187 -368q58 -24 110 -30t66 -19t14 -84t-34 -195q-34 -125 -46 -158l-118 28q44 180 59 314q-383 49 -383 516z" />
    <glyph glyph-name="sigma" unicode="&#x3c3;" horiz-adv-x="837" 
d="M444 852q-106 0 -164 -97t-59 -290q0 -68 9 -132q32 -231 171 -231q94 0 142 118q33 85 34 239q2 294 -118 393h-15zM717 479q0 -217 -72 -346q-87 -156 -249 -156t-244 156q-70 132 -70 345q0 212 90 344t250 149q64 6 151 6h220v-119h-203q68 -68 98 -174t29 -205z" />
    <glyph glyph-name="tau" unicode="&#x3c4;" horiz-adv-x="768" 
d="M322 858h-43q-37 0 -60 -10q-47 -20 -102 -100l-103 69q66 110 142 139q57 21 125 21h421v-119h-245v-635q0 -61 14 -93t61 -32t86 21l23 -113q-60 -27 -151 -28q-170 -2 -168 206v674z" />
    <glyph glyph-name="upsilon" unicode="&#x3c5;" horiz-adv-x="821" 
d="M119 993q131 0 151 -135q11 -64 11 -174v-346q0 -173 66 -215q28 -19 75 -19q85 -1 122 65q22 38 38 144t16 213t-2 154q-4 89 -16 187l-13 104l135 20q29 -215 29 -379t-8 -264q-34 -369 -311 -371q-146 -1 -206 95t-61 260v397q0 63 -7 100t-46 37q-12 0 -23 -2l-22 -4
l-18 117q48 16 90 16z" />
    <glyph glyph-name="phi" unicode="&#x3c6;" horiz-adv-x="999" 
d="M438 856q-98 -12 -164 -101t-66 -267t63 -266q62 -89 167 -103v737zM791 494q0 178 -66 265t-166 97v-737q100 17 166 107t66 268zM930 492q0 -223 -108 -351t-263 -141v-387h-121v387q-172 16 -270 136t-98 348t107 354t261 139v389h121v-389q74 -4 141 -37
q142 -69 200 -240q30 -89 30 -208z" />
    <glyph glyph-name="chi" unicode="&#x3c7;" horiz-adv-x="747" 
d="M677 -401q-69 0 -111 50t-77 154l-116 351l-205 -568l-117 45l258 703l-127 418q-16 57 -32 88q-27 52 -99 20l-31 119q33 22 83 22q49 0 75 -8q50 -16 82 -84q16 -35 33 -88l98 -332l182 512l123 -38l-247 -650l163 -477q16 -51 34 -81q30 -48 104 -21l24 -117
q-28 -18 -97 -18z" />
    <glyph glyph-name="psi" unicode="&#x3c8;" horiz-adv-x="1085" 
d="M246 827v-366q0 -172 53 -259t184 -93v1132h133v-1132q227 5 238 335q2 59 2 178t-27 349l134 20q28 -243 28 -394t-12 -249q-19 -168 -115 -261t-248 -107v-369h-133v369q-303 17 -355 281q-17 87 -17 202v266q0 167 -11 240l133 22q13 -95 13 -164z" />
    <glyph glyph-name="omega" unicode="&#x3c9;" horiz-adv-x="1153" 
d="M1067 464q0 -486 -274 -487q-174 0 -222 211q-25 -90 -81 -150t-143 -60t-136 35t-78 97q-51 108 -51 333t79 444q22 61 44 102l133 -45q-45 -92 -78 -223t-33 -288q-1 -157 19 -217t46 -85t66 -25q76 0 108 88q38 106 38 366v153h133v-67l4 -226q10 -159 32 -212
q42 -102 118 -102q75 0 103 96t28 210q0 240 -70 434q-20 57 -45 98l129 45q80 -118 120 -364q11 -73 11 -161z" />
    <glyph glyph-name="iotadieresis" unicode="&#x3ca;" horiz-adv-x="430" 
d="M121 164v813h135v-778q0 -47 8 -73t48 -26t77 17l17 -113q-39 -25 -125 -27q-160 0 -160 187zM248 1270q0 42 28 70t70 28q41 0 70 -29q28 -29 28 -69t-28 -70q-28 -29 -70 -29q-41 0 -70 29q-28 29 -28 70zM-55 1270q1 42 29 70t69 28t70 -29t29 -69t-30 -70
q-28 -29 -69 -29t-70 29q-28 29 -28 70z" />
    <glyph glyph-name="upsilondieresis" unicode="&#x3cb;" horiz-adv-x="821" 
d="M119 993q131 0 151 -135q11 -64 11 -174v-346q0 -173 66 -215q28 -19 75 -19q85 -1 122 65q22 38 38 144t16 213t-2 154q-4 89 -16 187l-13 104l135 20q29 -215 29 -379t-8 -264q-34 -369 -311 -371q-146 -1 -206 95t-61 260v397q0 63 -7 100t-46 37q-12 0 -23 -2l-22 -4
l-18 117q48 16 90 16zM463 1270q0 42 29 70q30 28 70 28t69 -29t29 -69t-30 -70q-28 -29 -69 -29t-69 29t-29 70zM160 1270q0 42 28 70t70 28q41 0 70 -29q28 -29 28 -69t-28 -70q-28 -29 -70 -29q-41 0 -70 29q-28 29 -28 70z" />
    <glyph glyph-name="omicrontonos" unicode="&#x3cc;" horiz-adv-x="800" 
d="M575 490q0 390 -174 391q-96 0 -141 -125q-35 -96 -35 -269t35 -264q45 -123 141 -123q174 0 174 390zM637 118q-81 -141 -237 -141t-237 139t-81 373q0 362 179 475q60 38 141 38q160 -1 238 -140q79 -139 79 -372q0 -231 -82 -372zM430 1087l-100 31l133 418l145 -37z
" />
    <glyph glyph-name="upsilontonos" unicode="&#x3cd;" horiz-adv-x="821" 
d="M119 993q131 0 151 -135q11 -64 11 -174v-346q0 -173 66 -215q28 -19 75 -19q85 -1 122 65q22 38 38 144t16 213t-2 154q-4 89 -16 187l-13 104l135 20q29 -215 29 -379t-8 -264q-34 -369 -311 -371q-146 -1 -206 95t-61 260v397q0 63 -7 100t-46 37q-12 0 -23 -2l-22 -4
l-18 117q48 16 90 16zM434 1087l-100 31l133 418l145 -37z" />
    <glyph glyph-name="omegatonos" unicode="&#x3ce;" horiz-adv-x="1153" 
d="M1067 464q0 -486 -274 -487q-174 0 -222 211q-25 -90 -81 -150t-143 -60t-136 35t-78 97q-51 108 -51 333t79 444q22 61 44 102l133 -45q-45 -92 -78 -223t-33 -288q-1 -157 19 -217t46 -85t66 -25q76 0 108 88q38 106 38 366v153h133v-67l4 -226q10 -159 32 -212
q42 -102 118 -102q75 0 103 96t28 210q0 240 -70 434q-20 57 -45 98l129 45q80 -118 120 -364q11 -73 11 -161zM625 1087l-101 31l133 418l146 -37z" />
    <glyph glyph-name="uni0400" unicode="&#x400;" horiz-adv-x="774" 
d="M129 0v1366h578v-123h-433v-465h316v-123h-318v-532h449v-123h-592zM532 1462l-331 254l96 99l301 -285z" />
    <glyph glyph-name="afii10023" unicode="&#x401;" horiz-adv-x="774" 
d="M129 0v1366h578v-123h-433v-465h316v-123h-318v-532h449v-123h-592zM469 1610q0 42 29 70q30 28 70 28t69 -29t29 -69t-29 -70q-29 -29 -70 -29t-69 29t-29 70zM166 1610q0 42 29 70t69 28t70 -29q28 -29 28 -69t-28 -70q-28 -29 -70 -29t-70 29t-28 70z" />
    <glyph glyph-name="afii10051" unicode="&#x402;" horiz-adv-x="1060" 
d="M637 803q-129 0 -213 -98v-705h-143v1241h-236v125h627v-125h-248v-391q29 26 87 54t133 28q153 0 249 -114t96 -341t-98 -352t-254 -125h-72v127h64q94 0 153 80t60 254q0 342 -205 342z" />
    <glyph glyph-name="afii10052" unicode="&#x403;" horiz-adv-x="759" 
d="M279 1237v-1237h-144v1366h580v-129h-436zM326 1454l-66 68l301 284l96 -98z" />
    <glyph glyph-name="afii10053" unicode="&#x404;" horiz-adv-x="843" 
d="M461 -27q-86 0 -158 40q-217 121 -217 665q0 365 104 540t289 175q129 0 201 -76t106 -205l-133 -47q-35 98 -63 132q-53 65 -119 67q-113 0 -166 -127t-61 -363h319v-125h-321q4 -545 227 -547q113 0 165 122q15 36 30 79l129 -47q-49 -185 -190 -255q-56 -28 -142 -28z
" />
    <glyph glyph-name="afii10054" unicode="&#x405;" horiz-adv-x="759" 
d="M535 696q153 -125 153 -327t-93 -300t-223 -98t-214 67q-82 67 -113 175l131 51q35 -84 78 -122q42 -38 114 -38t122 58t50 177t-47 187q-48 68 -159 135t-160 128q-100 123 -99 279t92 239q91 84 220 86q215 0 299 -224l-133 -57q-25 74 -65 113t-108 39t-114 -52
q-45 -52 -45 -128t22 -132q29 -74 201 -190q47 -32 91 -66z" />
    <glyph glyph-name="afii10055" unicode="&#x406;" horiz-adv-x="413" 
d="M135 0v1366h144v-1366h-144z" />
    <glyph glyph-name="afii10056" unicode="&#x407;" horiz-adv-x="413" 
d="M135 0v1366h144v-1366h-144zM258 1610q0 42 29 70t69 28t70 -29q29 -29 29 -69t-29 -70q-29 -29 -70 -29q-42 0 -70 29t-28 70zM-45 1610q0 42 29 70q30 28 70 28t69 -29t29 -69t-29 -70q-29 -29 -70 -29t-69 29t-29 70z" />
    <glyph glyph-name="afii10057" unicode="&#x408;" horiz-adv-x="419" 
d="M285 1366v-1303q0 -287 -273 -337l-35 122q96 27 131 77q34 50 33 138v1303h144z" />
    <glyph glyph-name="afii10058" unicode="&#x409;" horiz-adv-x="1339" 
d="M1124 398q0 150 -61 212t-162 62h-78v-547h74q111 0 169 62q58 61 58 211zM920 797q354 0 354 -394q0 -203 -97 -303t-272 -100h-225v1241h-281v-176q-1 -681 -81 -875q-44 -108 -105 -149t-139 -41h-37v131h18q51 0 86 25t67 134t41 309t9 478v289h565v-569h97z" />
    <glyph glyph-name="afii10059" unicode="&#x40a;" horiz-adv-x="1333" 
d="M1118 398q0 150 -61 212t-162 62h-78v-547h74q111 0 169 62q58 61 58 211zM913 797q355 0 355 -394q0 -203 -98 -303t-271 -100h-225v672h-395v-672h-144v1366h144v-569h395v569h143v-569h96z" />
    <glyph glyph-name="afii10060" unicode="&#x40b;" horiz-adv-x="1085" 
d="M424 854q94 82 250 82q234 0 284 -219q15 -52 15 -176v-541h-148v526q0 35 -2 76q-10 201 -178 201q-137 0 -221 -98v-705h-143v1241h-236v125h627v-125h-248v-387z" />
    <glyph glyph-name="afii10061" unicode="&#x40c;" horiz-adv-x="849" 
d="M135 1366h133v-618h80q48 0 80 69q20 46 71 231t88 236q37 50 69 66t79 16h66v-127h-23q-56 0 -80 -34q-41 -58 -67 -160q-61 -238 -99 -305q-14 -26 -30 -44l303 -696h-152l-268 623h-117v-623h-133v1366zM377 1454l-66 68l301 284l97 -98z" />
    <glyph glyph-name="uni040D" unicode="&#x40d;" horiz-adv-x="995" 
d="M721 0v989l-449 -837v-152h-137v1366h137v-989l449 842v147h139v-1366h-139zM588 1462l-332 254l96 99l301 -285z" />
    <glyph glyph-name="afii10062" unicode="&#x40e;" horiz-adv-x="841" 
d="M125 -12v127h47q63 0 97 36q65 69 108 220l-357 995h150l281 -817q124 357 229 817h141q-136 -570 -323 -1061q-57 -151 -105 -208q-47 -58 -92 -84t-102 -25h-74zM311 1767q15 -168 133 -168q53 0 92 38q38 38 44 130h116q-4 -153 -74 -219t-180 -66q-108 0 -178 64
q-70 63 -74 221h121z" />
    <glyph glyph-name="afii10145" unicode="&#x40f;" horiz-adv-x="993" 
d="M575 0v-287h-143v287h-297v1366h146v-1241h434v1241h143v-1366h-283z" />
    <glyph glyph-name="afii10017" unicode="&#x410;" horiz-adv-x="897" 
d="M442 1083l-151 -622h307zM713 0l-84 336h-367l-82 -336h-139l354 1366h99l362 -1366h-143z" />
    <glyph glyph-name="afii10018" unicode="&#x411;" horiz-adv-x="837" 
d="M606 410q0 152 -54 215t-142 63h-131v-563h129q102 1 150 67t48 218zM760 411q0 -411 -354 -411h-271v1366h549v-125h-405v-424h133q160 0 254 -102t94 -304z" />
    <glyph glyph-name="afii10019" unicode="&#x412;" horiz-adv-x="813" 
d="M586 381q0 139 -46 207t-151 67h-121v-534h152q166 0 166 260zM545 1030q0 215 -150 215h-127v-469h117q78 0 119 70t41 184zM741 381q0 -177 -81 -279t-220 -102h-309v1366h258q155 0 229 -93t74 -239t-50 -217q-50 -72 -116 -92q139 -25 194 -189q21 -63 21 -155z" />
    <glyph glyph-name="afii10020" unicode="&#x413;" horiz-adv-x="759" 
d="M279 1237v-1237h-144v1366h580v-129h-436z" />
    <glyph glyph-name="afii10021" unicode="&#x414;" horiz-adv-x="989" 
d="M698 1241h-262q0 -407 -74 -733q-45 -213 -116 -383h452v1116zM776 -287v287h-596v-287h-143v412h63q192 415 200 1077q1 86 1 164h539v-1241h78v-412h-142z" />
    <glyph glyph-name="afii10022" unicode="&#x415;" horiz-adv-x="774" 
d="M129 0v1366h578v-123h-433v-465h316v-123h-318v-532h449v-123h-592z" />
    <glyph glyph-name="afii10024" unicode="&#x416;" horiz-adv-x="1232" 
d="M686 623v-623h-133v623h-104l-246 -623h-152l283 688q-51 57 -91 213t-62 234q-23 78 -57 95q-17 9 -46 9h-23v127h78q86 0 124 -68q32 -54 86 -248t69 -232q16 -38 34 -54t46 -16h61v618h133v-618h59q27 0 52 22t51 110t50 174t42 147q35 118 92 150q29 15 76 15h70
v-127h-23q-53 0 -74 -38t-68 -216q-47 -177 -72 -224t-42 -65l283 -696h-160l-240 623h-96z" />
    <glyph glyph-name="afii10025" unicode="&#x417;" horiz-adv-x="794" 
d="M713 358q0 -172 -92 -279q-92 -108 -227 -108q-136 1 -217 61t-132 183l125 64q43 -87 87 -133q45 -46 109 -46q198 0 197 271q0 123 -47 191t-133 75q-39 4 -64 4h-53v125q90 0 146 9q57 9 94 76t37 175t-37 172q-37 66 -115 66t-119 -52t-75 -137l-121 55
q87 261 321 263q145 -1 220 -97t75 -240t-56 -230q-56 -87 -130 -121q207 -71 207 -347z" />
    <glyph glyph-name="afii10026" unicode="&#x418;" horiz-adv-x="995" 
d="M721 0v989l-449 -837v-152h-137v1366h137v-989l449 842v147h139v-1366h-139z" />
    <glyph glyph-name="afii10027" unicode="&#x419;" horiz-adv-x="995" 
d="M721 0v989l-449 -837v-152h-137v1366h137v-989l449 842v147h139v-1366h-139zM387 1767q15 -168 133 -168q53 0 91 38t44 130h117q-4 -153 -75 -219t-179 -66t-178 64q-70 63 -74 221h121z" />
    <glyph glyph-name="afii10028" unicode="&#x41a;" horiz-adv-x="849" 
d="M135 1366h133v-618h80q48 0 80 69q20 46 71 231t88 236q37 50 69 66t79 16h66v-127h-23q-56 0 -80 -34q-41 -58 -67 -160q-61 -238 -99 -305q-14 -26 -30 -44l303 -696h-152l-268 623h-117v-623h-133v1366z" />
    <glyph glyph-name="afii10029" unicode="&#x41b;" horiz-adv-x="974" 
d="M698 0v1241h-299v-176q-1 -681 -81 -875q-44 -108 -105 -149t-139 -41h-37v131h18q51 0 86 25t67 134t41 309t9 478v289h582v-1366h-142z" />
    <glyph glyph-name="afii10030" unicode="&#x41c;" horiz-adv-x="1150" 
d="M887 0v1075l-266 -1087h-78l-279 1079v-1067h-129v1366h172l277 -1104l262 1104h170v-1366h-129z" />
    <glyph glyph-name="afii10031" unicode="&#x41d;" horiz-adv-x="976" 
d="M700 0v639h-421v-639h-144v1366h144v-602h421v602h142v-1366h-142z" />
    <glyph glyph-name="afii10032" unicode="&#x41e;" horiz-adv-x="978" 
d="M492 1264q-250 0 -250 -579t250 -583q245 0 245 579q0 580 -245 583zM310 24q-224 149 -224 659q0 509 224 658q78 51 182 51t180 -50q221 -150 221 -659t-221 -658q-76 -51 -180 -51q-104 -2 -182 50z" />
    <glyph glyph-name="afii10033" unicode="&#x41f;" horiz-adv-x="983" 
d="M707 0v1241h-428v-1241h-144v1366h713v-1366h-141z" />
    <glyph glyph-name="afii10034" unicode="&#x420;" horiz-adv-x="829" 
d="M604 955q0 153 -49 222t-160 68h-121v-575h97q125 0 179 66t54 219zM758 959q0 -201 -98 -305t-273 -105h-113v-549h-139v1366h273q184 0 267 -103t83 -304z" />
    <glyph glyph-name="afii10035" unicode="&#x421;" horiz-adv-x="843" 
d="M242 676q0 -572 227 -574q113 0 165 122q15 36 30 79l129 -47q-49 -185 -190 -255q-56 -28 -142 -28t-158 40q-217 121 -217 665q0 365 104 540t289 175q129 0 201 -76t106 -205l-133 -47q-35 98 -63 132q-53 65 -119 67q-123 0 -176 -154t-53 -434z" />
    <glyph glyph-name="afii10036" unicode="&#x422;" horiz-adv-x="796" 
d="M471 1241v-1241h-143v1241h-283v125h707v-125h-281z" />
    <glyph glyph-name="afii10037" unicode="&#x423;" horiz-adv-x="841" 
d="M125 -12v127h47q63 0 97 36q65 69 108 220l-357 995h150l281 -817q124 357 229 817h141q-136 -570 -323 -1061q-57 -151 -105 -208q-47 -58 -92 -84t-102 -25h-74z" />
    <glyph glyph-name="afii10038" unicode="&#x424;" horiz-adv-x="1097" 
d="M211 684q0 -184 75 -286t199 -105v776q-127 -4 -201 -102q-74 -99 -73 -283zM893 680q0 188 -79 288t-196 101v-776q121 2 198 100q77 99 77 287zM618 -23h-133v193q-199 10 -311 141t-113 363q0 232 115 370q115 137 309 150v199h133v-199q190 -10 304 -139t114 -362
t-112 -372t-306 -151v-193z" />
    <glyph glyph-name="afii10039" unicode="&#x425;" horiz-adv-x="813" 
d="M625 0l-222 559l-219 -559h-147l297 711l-271 655h152l193 -500l194 500h146l-269 -649l297 -717h-151z" />
    <glyph glyph-name="afii10040" unicode="&#x426;" horiz-adv-x="987" 
d="M772 -287v287h-637v1366h144v-1241h417v1241h142v-1241h77v-412h-143z" />
    <glyph glyph-name="afii10041" unicode="&#x427;" horiz-adv-x="925" 
d="M647 725v641h144v-1366h-144v592q-110 -47 -253 -47q-142 1 -213 73t-83 222q-6 64 -6 180v346h144v-328q0 -143 14 -230q22 -136 164 -136q141 0 233 53z" />
    <glyph glyph-name="afii10042" unicode="&#x428;" horiz-adv-x="1290" 
d="M135 0v1366h141v-1241h299v1241h140v-1241h297v1241h143v-1366h-1020z" />
    <glyph glyph-name="afii10043" unicode="&#x429;" horiz-adv-x="1310" 
d="M135 0v1366h141v-1241h299v1241h140v-1241h297v1241h143v-1225h84v-428h-143v287h-961z" />
    <glyph glyph-name="afii10044" unicode="&#x42a;" horiz-adv-x="827" 
d="M612 398q0 150 -61 212t-162 62h-78v-547h74q111 0 169 62q58 61 58 211zM408 797q354 0 354 -394q0 -203 -97 -303t-272 -100h-225v1241h-123v125h266v-569h97z" />
    <glyph glyph-name="afii10045" unicode="&#x42b;" horiz-adv-x="1165" 
d="M565 410q0 205 -135 248q-41 13 -88 14h-63v-547h59q111 -1 169 65t58 220zM360 797q355 0 355 -385q1 -204 -97 -308t-272 -104h-211v1366h144v-569h81zM887 0v1366h143v-1366h-143z" />
    <glyph glyph-name="afii10046" unicode="&#x42c;" horiz-adv-x="804" 
d="M362 125q112 0 170 62q58 63 58 213t-65 210t-158 62h-88v-547h83zM385 797q168 0 261 -96t93 -297q0 -200 -97 -302t-271 -102h-236v1366h144v-569h106z" />
    <glyph glyph-name="afii10047" unicode="&#x42d;" horiz-adv-x="866" 
d="M412 1393q266 1 342 -379q26 -132 26 -322q0 -555 -229 -675q-76 -40 -159 -40q-200 0 -296 176q-29 52 -45 111l133 49q38 -107 69 -140q58 -64 134 -64q127 0 183 143t61 397h-326v125h322q-13 241 -60 350q-58 135 -171 134t-169 -124q-16 -36 -30 -75l-129 45
q47 152 132 220t212 69z" />
    <glyph glyph-name="afii10048" unicode="&#x42e;" horiz-adv-x="1312" 
d="M592 684q0 -580 246 -582q133 -1 192 178q45 135 45 403t-45 403q-59 176 -192 178q-246 0 -246 -580zM276 639v-639h-141v1366h141v-600h166q19 453 226 582q72 45 173 45q101 1 175 -51q211 -147 211 -659t-211 -658q-74 -51 -177 -51q-196 -1 -296 176
q-99 177 -103 489h-164z" />
    <glyph glyph-name="afii10049" unicode="&#x42f;" horiz-adv-x="868" 
d="M590 1241h-172q-92 0 -140 -72q-48 -73 -48 -193t50 -197t152 -77h158v539zM590 0v578h-174q-64 -501 -206 -562q-40 -16 -79 -16h-53v125h28q20 0 44 11q81 39 131 466q-90 39 -147 130q-56 91 -56 253t86 272q86 109 242 109h327v-1366h-143z" />
    <glyph glyph-name="afii10065" unicode="&#x430;" horiz-adv-x="694" 
d="M322 96q44 0 80 28t51 62v330q-111 -5 -160 -39q-49 -33 -73 -78t-23 -120q0 -183 125 -183zM453 723q0 164 -108 164q-56 0 -87 -30t-57 -79l-99 68q40 76 98 116t159 40t164 -69q62 -69 63 -214v-719h-123l-6 74q-15 -33 -59 -65t-126 -32t-147 76q-63 76 -63 204
t39 196q97 165 352 178v92z" />
    <glyph glyph-name="afii10066" unicode="&#x431;" horiz-adv-x="790" 
d="M399 100q174 0 174 367t-174 367q-186 0 -186 -365q0 -163 31 -235q30 -72 66 -103t89 -31zM717 469q0 -351 -178 -457q-59 -35 -140 -35q-165 -1 -241 143t-76 477t77 504t255 187l43 4q45 4 69 22t29 79l107 -17q-6 -112 -54 -152t-131 -48l-61 -7q-102 -11 -155 -117
q-37 -74 -52 -231q31 61 89 97t132 36q141 0 214 -131t73 -354z" />
    <glyph glyph-name="afii10067" unicode="&#x432;" horiz-adv-x="763" 
d="M524 715q0 143 -104 143h-164v-305h154q59 0 87 48q27 48 27 114zM555 270q0 78 -33 122t-98 44h-168v-317h178q47 0 84 37t37 114zM692 279q0 -132 -69 -205q-69 -74 -168 -74h-334v977h303q110 -1 174 -63t64 -166t-37 -166q-37 -61 -84 -78q151 -34 151 -225z" />
    <glyph glyph-name="afii10068" unicode="&#x433;" horiz-adv-x="608" 
d="M567 977v-119h-311v-858h-135v977h446z" />
    <glyph glyph-name="afii10069" unicode="&#x434;" horiz-adv-x="827" 
d="M567 858h-233v-188q0 -161 -35 -316t-90 -235h358v739zM643 -221v221h-479v-221h-133v340h30q109 94 136 438q6 90 6 166v254h497v-858h76v-340h-133z" />
    <glyph glyph-name="afii10070" unicode="&#x435;" horiz-adv-x="741" 
d="M528 612q-4 150 -47 212t-102 62q-134 1 -162 -274h311zM395 -23q-321 0 -321 517q0 248 84 378t230 129q146 0 218 -130q74 -130 74 -365h-465q0 -408 180 -408q92 0 132 97q11 27 18 51l119 -47q-29 -92 -94 -157t-175 -65z" />
    <glyph glyph-name="afii10072" unicode="&#x436;" horiz-adv-x="1009" 
d="M958 858h-36q-33 0 -46 -34t-52 -138t-76 -158l202 -528h-133l-162 446h-86v-446h-120v446h-91l-159 -446h-136l197 526q-23 33 -68 149q-45 115 -58 149t-46 34h-37v119h72q65 0 93 -47q15 -25 63 -152t69 -164q20 -37 34 -46t32 -9h35v418h120v-418h31q34 0 58 40
q23 40 59 135q65 170 81 196q31 47 95 47h65v-119z" />
    <glyph glyph-name="afii10073" unicode="&#x437;" horiz-adv-x="686" 
d="M621 291q0 -154 -81 -234t-213 -80t-197 65t-89 167l119 37q19 -75 43 -103q45 -51 122 -51t121 46t43 132q0 154 -120 172q-23 4 -54 4h-57v109q69 0 115 9t74 54t28 117t-40 111q-39 39 -103 39t-102 -46t-60 -134l-113 40q29 119 102 188t191 69t186 -68t68 -173
t-42 -170t-101 -85q61 -14 111 -64t49 -151z" />
    <glyph glyph-name="afii10074" unicode="&#x438;" horiz-adv-x="825" 
d="M571 0v657l-317 -546v-111h-133v977h133v-660l317 547v113h134v-977h-134z" />
    <glyph glyph-name="afii10075" unicode="&#x439;" horiz-adv-x="825" 
d="M571 0v657l-317 -546v-111h-133v977h133v-660l317 547v113h134v-977h-134zM297 1427q15 -169 133 -167q53 0 91 38t44 129h117q-4 -153 -75 -219t-179 -66t-178 64q-70 63 -74 221h121z" />
    <glyph glyph-name="afii10076" unicode="&#x43a;" horiz-adv-x="724" 
d="M121 977h121v-418h45q34 0 61 42t75 166q47 124 73 156q44 54 110 54h66v-119h-37q-33 0 -57 -34t-62 -140q-39 -106 -76 -156l240 -528h-133l-201 446h-104v-446h-121v977z" />
    <glyph glyph-name="afii10077" unicode="&#x43b;" horiz-adv-x="804" 
d="M549 0v858h-232v-78q0 -342 -32 -526q-39 -254 -209 -254h-45v119h20q42 0 66 28t37 98q34 194 34 603v129h496v-977h-135z" />
    <glyph glyph-name="afii10078" unicode="&#x43c;" horiz-adv-x="933" 
d="M690 0v674l-205 -674h-45l-198 662v-662h-125v977h139l207 -731l211 731h143v-977h-127z" />
    <glyph glyph-name="afii10079" unicode="&#x43d;" horiz-adv-x="825" 
d="M573 0v449h-319v-449h-133v977h133v-410h319v410h132v-977h-132z" />
    <glyph glyph-name="afii10080" unicode="&#x43e;" horiz-adv-x="784" 
d="M567 490q0 390 -174 391q-96 0 -141 -125q-35 -96 -35 -269t35 -264q45 -123 141 -123q174 0 174 390zM711 489q0 -361 -179 -474q-59 -38 -141 -38t-141 38q-176 113 -176 474t179 475q60 38 141 38q160 -1 238 -140q79 -139 79 -373z" />
    <glyph glyph-name="afii10081" unicode="&#x43f;" horiz-adv-x="825" 
d="M571 0v854h-317v-854h-133v977h584v-977h-134z" />
    <glyph glyph-name="afii10082" unicode="&#x440;" horiz-adv-x="788" 
d="M565 498q0 381 -168 381q-91 0 -141 -113v-625q41 -41 120 -42t134 99t55 300zM256 -389h-135v1366h125l6 -64q35 39 76 63t112 23q119 1 196 -123t77 -370t-95 -387q-95 -142 -235 -142q-72 0 -127 35v-401z" />
    <glyph glyph-name="afii10083" unicode="&#x441;" horiz-adv-x="686" 
d="M219 489q0 -389 166 -389q102 0 143 150l117 -41q-35 -119 -105 -175t-156 -56q-310 -2 -310 511q0 363 174 475q58 38 130 38q203 -1 261 -238l-119 -37q-12 59 -46 107t-85 47q-51 0 -84 -35q-86 -91 -86 -357z" />
    <glyph glyph-name="afii10084" unicode="&#x442;" horiz-adv-x="651" 
d="M391 858v-858h-131v858h-219v119h569v-119h-219z" />
    <glyph glyph-name="afii10085" unicode="&#x443;" horiz-adv-x="712" 
d="M128 -295q40 0 62 32t43 109l52 189l-248 942h143l174 -723l183 723h139l-330 -1186q-28 -104 -82 -160q-46 -43 -112 -44q-67 -1 -125 28l32 106q29 -16 69 -16z" />
    <glyph glyph-name="afii10086" unicode="&#x444;" horiz-adv-x="983" 
d="M430 856q-98 -12 -164 -101t-66 -267t63 -266q62 -89 167 -103v737zM782 494q0 178 -65 265q-66 87 -166 97v-737q100 16 166 106q65 91 65 269zM922 492q0 -223 -108 -351t-263 -141v-387h-121v387q-172 16 -270 136t-98 347t106 354q107 127 262 140v389h121v-389
q74 -4 141 -37q142 -69 200 -240q30 -89 30 -208z" />
    <glyph glyph-name="afii10087" unicode="&#x445;" horiz-adv-x="665" 
d="M485 0l-153 367l-156 -367h-139l223 502l-213 475h139l150 -350l151 350h134l-215 -473l223 -504h-144z" />
    <glyph glyph-name="afii10088" unicode="&#x446;" horiz-adv-x="819" 
d="M639 -221v221h-518v977h131v-860h307v860h131v-860h78v-338h-129z" />
    <glyph glyph-name="afii10089" unicode="&#x447;" horiz-adv-x="792" 
d="M213 606q0 -105 40 -134q40 -30 126 -30t162 45v490h131v-977h-131v371q-84 -41 -207 -41t-177 54q-55 54 -65 124t-10 145v324h131v-371z" />
    <glyph glyph-name="afii10090" unicode="&#x448;" horiz-adv-x="1179" 
d="M121 0v977h131v-858h264v858h127v-858h287v858h129v-977h-938z" />
    <glyph glyph-name="afii10091" unicode="&#x449;" horiz-adv-x="1189" 
d="M121 0v977h131v-858h264v858h127v-858h287v858h129v-860h80v-338h-129v221h-889z" />
    <glyph glyph-name="afii10092" unicode="&#x44a;" horiz-adv-x="784" 
d="M412 119q174 -1 174 199t-174 200h-119v-399h119zM438 637q145 -1 217 -89t72 -230t-72 -230t-217 -88h-280v858h-117v119h252v-340h145z" />
    <glyph glyph-name="afii10093" unicode="&#x44b;" horiz-adv-x="1071" 
d="M535 328q-1 106 -47 148t-130 42h-102v-399h102q82 -1 130 51t47 158zM676 327q0 -143 -73 -235t-218 -92h-264v977h135v-340h129q145 0 218 -84t73 -226zM819 0v977h131v-977h-131z" />
    <glyph glyph-name="afii10094" unicode="&#x44c;" horiz-adv-x="733" 
d="M535 326q-1 106 -47 149t-130 43h-102v-399h102q82 1 130 51t47 156zM676 325q0 -141 -73 -233t-218 -92h-264v977h135v-340h129q145 0 218 -85t73 -227z" />
    <glyph glyph-name="afii10095" unicode="&#x44d;" horiz-adv-x="686" 
d="M612 489q0 -512 -313 -512q-88 1 -159 57t-99 175l121 41q34 -150 139 -150q160 0 170 351h-281v108h279q-21 322 -162 322q-53 0 -91 -47t-50 -107l-119 37q34 147 161 213q48 25 118 25q141 -1 214 -140q72 -139 72 -373z" />
    <glyph glyph-name="afii10096" unicode="&#x44e;" horiz-adv-x="1112" 
d="M724 100q171 0 171 390t-171 391q-171 -1 -171 -391t171 -390zM1038 489q0 -111 -19 -205q-40 -197 -155 -269q-59 -38 -139 -38q-151 0 -231 129t-84 349h-158v-455h-131v977h131v-404h160q19 300 186 397q55 32 132 32q153 -1 230 -140q78 -139 78 -373z" />
    <glyph glyph-name="afii10097" unicode="&#x44f;" horiz-adv-x="768" 
d="M520 858h-149q-70 0 -112 -50t-42 -146q0 -201 166 -201h137v397zM520 0v342h-170q-41 -301 -149 -333q-31 -9 -60 -9h-69v119h30q42 0 62 30q40 60 61 220q-59 26 -104 96t-45 169q0 247 182 320q55 23 121 23h268v-977h-127z" />
    <glyph glyph-name="uni0450" unicode="&#x450;" horiz-adv-x="741" 
d="M528 612q-4 150 -47 212t-102 62q-134 1 -162 -274h311zM395 -23q-321 0 -321 517q0 248 84 378t230 129q146 0 218 -130q74 -130 74 -365h-465q0 -408 180 -408q92 0 132 97q11 27 18 51l119 -47q-29 -92 -94 -157t-175 -65zM528 1114l-331 254l96 98l301 -284z" />
    <glyph glyph-name="afii10071" unicode="&#x451;" horiz-adv-x="741" 
d="M528 612q-4 150 -47 212t-102 62q-134 1 -162 -274h311zM395 -23q-321 0 -321 517q0 248 84 378t230 129q146 0 218 -130q74 -130 74 -365h-465q0 -408 180 -408q92 0 132 97q11 27 18 51l119 -47q-29 -92 -94 -157t-175 -65zM446 1270q0 42 29 70t70 28t69 -29t29 -69
q0 -40 -29 -70q-30 -29 -70 -29t-69 29t-29 70zM143 1270q0 42 29 70t70 28q42 0 70 -29t28 -69t-29 -70q-29 -29 -69 -29t-70 29q-29 29 -29 70z" />
    <glyph glyph-name="afii10099" unicode="&#x452;" horiz-adv-x="845" 
d="M285 850q89 84 205 84q117 0 180 -72t63 -174v-715q0 -207 -117 -320q-33 -32 -63 -56l-76 98q121 112 121 264v666q0 102 -32 147t-103 45q-103 0 -178 -92v-725h-135v1135h-109v118h109v113h135v-113h192v-118h-192v-285z" />
    <glyph glyph-name="afii10100" unicode="&#x453;" horiz-adv-x="608" 
d="M567 977v-119h-311v-858h-135v977h446zM233 1114l-65 68l301 284l96 -98z" />
    <glyph glyph-name="afii10101" unicode="&#x454;" horiz-adv-x="686" 
d="M74 489q0 363 174 475q58 38 130 38q203 -1 261 -238l-119 -37q-12 59 -46 107t-82 47q-48 0 -80 -27q-55 -47 -82 -175q-11 -58 -13 -120h279v-108h-281q10 -351 170 -351q105 0 139 150l121 -41q-35 -119 -105 -175t-156 -56q-310 -2 -310 511z" />
    <glyph glyph-name="afii10102" unicode="&#x455;" horiz-adv-x="610" 
d="M293 94q121 0 121 154q0 76 -20 113q-39 69 -135 115q-183 88 -183 272q0 118 68 186t159 68q166 -1 227 -171l-104 -55q-35 78 -71 98q-17 10 -42 11q-59 0 -85 -39t-26 -79q1 -74 25 -104t121 -88q94 -51 146 -119q51 -69 51 -199t-70 -205t-177 -75q-192 0 -251 199
l115 45q16 -47 44 -87t87 -40z" />
    <glyph glyph-name="afii10103" unicode="&#x456;" horiz-adv-x="376" 
d="M121 0v977h135v-977h-135zM92 1292q0 41 29 71t69 30t71 -30q30 -30 30 -71q0 -42 -30 -70t-71 -28q-42 0 -70 28t-28 70z" />
    <glyph glyph-name="afii10104" unicode="&#x457;" horiz-adv-x="376" 
d="M121 0v977h135v-977h-135zM244 1270q0 42 28 70t70 28q41 0 70 -29q28 -29 28 -69t-28 -70q-28 -29 -70 -29q-41 0 -70 29q-28 29 -28 70zM-59 1270q1 42 29 70t69 28t70 -29t29 -69t-30 -70q-28 -29 -69 -29t-70 29q-28 29 -28 70z" />
    <glyph glyph-name="afii10105" unicode="&#x458;" horiz-adv-x="376" 
d="M258 977v-1004q0 -207 -117 -320q-33 -32 -63 -56l-76 98q53 51 87 112t34 166v1004h135zM92 1292q0 41 29 71t69 30t71 -30q30 -30 30 -71q0 -42 -30 -70t-71 -28q-42 0 -70 28t-28 70z" />
    <glyph glyph-name="afii10106" unicode="&#x459;" horiz-adv-x="1138" 
d="M940 318q0 112 -44 156t-136 44h-101v-399h101q90 0 135 44q45 43 45 155zM1081 324q0 -140 -81 -232t-238 -92h-236v858h-209v-78q0 -342 -32 -526q-39 -254 -209 -254h-45v119h20q42 0 66 28t37 98q34 194 34 603v129h471v-340h117q147 0 226 -86t79 -227z" />
    <glyph glyph-name="afii10107" unicode="&#x45a;" horiz-adv-x="1138" 
d="M940 328q0 106 -46 148t-130 42h-102v-399h102q82 -1 129 51t47 158zM791 637q145 0 217 -84t73 -226q0 -142 -72 -235q-73 -92 -218 -92h-261v518h-278v-518h-131v977h131v-340h278v340h132v-340h129z" />
    <glyph glyph-name="afii10108" unicode="&#x45b;" horiz-adv-x="845" 
d="M285 850q89 84 205 84q117 0 180 -72t63 -174v-688h-135v625q0 102 -32 147t-103 45q-103 0 -178 -92v-725h-135v1135h-109v118h109v113h135v-113h192v-118h-192v-285z" />
    <glyph glyph-name="afii10109" unicode="&#x45c;" horiz-adv-x="724" 
d="M121 977h121v-418h45q34 0 61 42t75 166q47 124 73 156q44 54 110 54h66v-119h-37q-33 0 -57 -34t-62 -140q-39 -106 -76 -156l240 -528h-133l-201 446h-104v-446h-121v977zM287 1114l-66 68l301 284l96 -98z" />
    <glyph glyph-name="uni045D" unicode="&#x45d;" horiz-adv-x="825" 
d="M571 0v657l-317 -546v-111h-133v977h133v-660l317 547v113h134v-977h-134zM514 1114l-332 254l97 98l301 -284z" />
    <glyph glyph-name="afii10110" unicode="&#x45e;" horiz-adv-x="712" 
d="M128 -295q40 0 62 32t43 109l52 189l-248 942h143l174 -723l183 723h139l-330 -1186q-28 -104 -82 -160q-46 -43 -112 -44q-67 -1 -125 28l32 106q29 -16 69 -16zM248 1427q15 -169 133 -167q53 0 91 38t44 129h117q-4 -153 -75 -219t-179 -66t-178 64q-70 63 -74 221
h121z" />
    <glyph glyph-name="afii10193" unicode="&#x45f;" horiz-adv-x="823" 
d="M477 0v-221h-131v221h-225v977h135v-858h313v858h133v-977h-225z" />
    <glyph glyph-name="uni0462" unicode="&#x462;" horiz-adv-x="1001" 
d="M578 125q102 -1 150 73t48 245t-54 245t-142 74h-131v-637h129zM449 1145v-254h133q160 0 254 -112t94 -334q0 -221 -86 -333t-269 -112h-270v1145h-260v125h260v184h144v-184h329v-125h-329z" />
    <glyph glyph-name="uni0463" unicode="&#x463;" horiz-adv-x="966" 
d="M745 339q0 118 -64 164q-65 46 -159 46h-88v-424h84q111 0 169 48t58 166zM895 342q0 -168 -97 -255t-272 -87h-235v852h-250v125h250v389h143v-389h279v-125h-279v-178h107q168 0 261 -82t93 -250z" />
    <glyph glyph-name="uni0472" unicode="&#x472;" horiz-adv-x="978" 
d="M630 707q56 0 109 41q-10 516 -247 516q-232 0 -252 -484q56 39 104 39q68 0 149 -56t137 -56zM331 676q-48 0 -93 -35q10 -539 254 -539q127 0 190 151q48 113 57 355q-55 -43 -110 -44q-53 -2 -87 16t-67 40t-65 39t-79 17zM310 24q-224 149 -224 659q0 509 224 658
q78 51 182 51t180 -50q221 -150 221 -659t-221 -658q-76 -51 -180 -51q-104 -2 -182 50z" />
    <glyph glyph-name="uni0473" unicode="&#x473;" horiz-adv-x="784" 
d="M301 467q-55 0 -94 -45q5 -145 35 -207q32 -61 66 -88t86 -27q142 0 174 224q9 63 12 129q-39 -54 -107 -56q-32 -1 -71 23l-60 36t-41 11zM485 510q54 0 93 49q-10 150 -38 209t-62 86t-86 27q-97 0 -145 -111q-37 -83 -42 -244q43 52 92 52t87 -24t58 -34t43 -10z
M711 489q0 -361 -179 -474q-59 -38 -141 -38t-141 38q-176 113 -176 474t179 475q60 38 141 38q160 -1 238 -140q79 -139 79 -373z" />
    <glyph glyph-name="uni0474" unicode="&#x474;" horiz-adv-x="1009" 
d="M711 1341q45 43 132 43q86 0 156 -51l-53 -106q-41 27 -89 26t-71 -47q-24 -47 -41 -116l-241 -1090h-119l-340 1366h148l253 -1079l158 803q18 92 40 150t67 101z" />
    <glyph glyph-name="uni0475" unicode="&#x475;" horiz-adv-x="804" 
d="M477 805q35 188 186 188q77 0 132 -39l-39 -108q-37 20 -74 20t-55 -30t-33 -93l-164 -743h-147l-246 977h135l184 -797z" />
    <glyph glyph-name="uni048A" unicode="&#x48a;" horiz-adv-x="983" 
d="M387 1767q15 -168 133 -168q53 0 91 38t44 130h117q-4 -153 -75 -219t-179 -66t-178 64q-70 63 -74 221h121zM721 0v989l-449 -837v-152h-137v1366h137v-989l449 842v147h139v-1241h103l-107 -412h-137l80 287h-78z" />
    <glyph glyph-name="uni048B" unicode="&#x48b;" horiz-adv-x="827" 
d="M571 0v657l-317 -546v-111h-133v977h133v-660l317 547v113h134v-852h102l-90 -346h-133l63 221h-76zM295 1427q15 -169 133 -167q53 0 91 38t44 129h117q-4 -153 -75 -219t-179 -66t-178 64q-70 63 -74 221h121z" />
    <glyph glyph-name="uni048C" unicode="&#x48c;" horiz-adv-x="858" 
d="M434 125q102 1 150 73t49 241q0 169 -54 240t-143 71h-131v-625h129zM305 1063v-184h133q160 0 254 -110t94 -330q0 -219 -86 -329t-268 -110h-270v1063h-117v125h117v178h143v-178h232v-125h-232z" />
    <glyph glyph-name="uni048D" unicode="&#x48d;" horiz-adv-x="819" 
d="M598 331q0 113 -64 157t-159 44h-88v-407h84q111 0 169 46t58 160zM393 657q167 1 261 -79t94 -244t-98 -249t-271 -85h-236v793h-102v106h102v102h144v-102h225v-106h-225v-136h106z" />
    <glyph glyph-name="uni048E" unicode="&#x48e;" horiz-adv-x="849" 
d="M274 1245v-575h97q57 0 100 12l-90 154l94 59l92 -156q57 65 57 217t-52 221q-54 69 -177 68h-121zM778 965q0 -237 -141 -344l102 -172l-94 -60l-108 180q-63 -20 -150 -20h-113v-549h-139v1366h273q194 0 282 -103t88 -298z" />
    <glyph glyph-name="uni048F" unicode="&#x48f;" horiz-adv-x="800" 
d="M397 879q-91 0 -141 -113v-625q41 -41 96 -42q54 -1 82 14l-102 176l94 59l90 -153q60 106 62 303q0 381 -181 381zM379 -23q-68 0 -123 35v-401h-135v1366h125l6 -64q35 39 76 63t112 23q123 1 204 -123t81 -390t-135 -414l100 -170l-94 -60l-96 160q-53 -25 -121 -25z
" />
    <glyph glyph-name="afii10050" unicode="&#x490;" horiz-adv-x="757" 
d="M276 1237v-1237h-141v1366h445v168h133v-297h-437z" />
    <glyph glyph-name="afii10098" unicode="&#x491;" horiz-adv-x="628" 
d="M457 977v133h131v-252h-332v-858h-135v977h336z" />
    <glyph glyph-name="uni0492" unicode="&#x492;" horiz-adv-x="788" 
d="M164 762v604h579v-129h-436v-475h283v-123h-283v-639h-143v639h-119v123h119z" />
    <glyph glyph-name="uni0493" unicode="&#x493;" horiz-adv-x="657" 
d="M147 543v434h469v-129h-333v-305h180v-113h-180v-430h-136v430h-106v113h106z" />
    <glyph glyph-name="uni0494" unicode="&#x494;" horiz-adv-x="937" 
d="M750 711q94 -133 94 -418t-98 -436q-98 -150 -243 -150t-243 80l62 104q89 -55 172 -56q82 -1 142 103t60 329q0 224 -42 326q-50 122 -171 122q-120 0 -204 -78v-637h-144v1366h557v-125h-413v-459q87 60 232 61t239 -132z" />
    <glyph glyph-name="uni0495" unicode="&#x495;" horiz-adv-x="829" 
d="M464 573q124 -1 208 -115t84 -362t-96 -380t-248 -132q-102 0 -172 39l45 119q78 -31 118 -31q94 0 154 86q59 86 59 273t-28 256t-62 96t-86 27q-101 0 -176 -58v-391h-143v977h487v-125h-344v-328q76 49 200 49z" />
    <glyph glyph-name="uni0496" unicode="&#x496;" horiz-adv-x="1267" 
d="M1217 141v-428h-144v287h-51l-240 623h-96v-623h-133v623h-104l-246 -623h-152l283 688q-51 57 -91 213t-62 234q-23 78 -57 95q-17 9 -46 9h-23v127h78q86 0 124 -68q32 -54 86 -248t69 -232q16 -38 34 -54t46 -16h61v618h133v-618h59q27 0 52 22t51 110t50 174t42 147
q35 118 92 150q29 15 76 15h70v-127h-23q-53 0 -71 -34q-28 -52 -72 -222q-43 -170 -69 -219q-27 -50 -44 -68l225 -555h93z" />
    <glyph glyph-name="uni0497" unicode="&#x497;" horiz-adv-x="1017" 
d="M958 858h-36q-33 0 -46 -34t-52 -138t-76 -158l157 -411h82v-338h-123v221h-47l-162 446h-86v-446h-120v446h-91l-159 -446h-136l197 526q-23 33 -68 149q-45 115 -58 149t-46 34h-37v119h72q65 0 93 -47q15 -25 63 -152t69 -164q20 -37 34 -46t32 -9h35v418h120v-418h31
q34 0 58 40q23 40 59 135q65 170 81 196q31 47 95 47h65v-119z" />
    <glyph glyph-name="uni0498" unicode="&#x498;" horiz-adv-x="794" 
d="M504 -203q0 -82 -51 -123t-121 -41t-121 37l37 88q31 -26 65 -26q72 0 72 55t-102 68l53 118q-201 20 -291 242l125 64q43 -87 87 -133q45 -46 109 -46q198 0 197 271q0 123 -47 191t-133 75q-39 4 -64 4h-53v125q90 0 146 9q57 9 94 76t37 175t-37 172q-37 66 -115 66
t-119 -52t-75 -137l-121 55q87 261 321 263q145 -1 220 -97t75 -240t-56 -230q-56 -87 -130 -121q149 -51 190 -203q16 -59 17 -144q0 -160 -75 -260t-200 -121l-24 -63q90 -35 90 -117z" />
    <glyph glyph-name="uni0499" unicode="&#x499;" horiz-adv-x="686" 
d="M463 -203q0 -82 -51 -123t-121 -41t-121 37l37 88q31 -26 65 -26q72 0 72 55t-102 68l55 125q-204 11 -256 229l119 37q19 -75 43 -103q45 -51 122 -51t121 46t43 132q0 154 -120 172q-23 4 -54 4h-57v109q69 0 115 9t74 54t28 117t-40 111q-39 39 -103 39t-102 -46
t-60 -134l-113 40q29 119 102 188t191 69t186 -68t68 -173t-42 -170t-101 -85q61 -14 110 -64t49 -166t-58 -193t-161 -97l-28 -72q90 -35 90 -117z" />
    <glyph glyph-name="uni049A" unicode="&#x49a;" horiz-adv-x="917" 
d="M135 1366h133v-618h80q48 0 80 69q20 46 71 231t88 236q37 50 69 66t79 16h66v-127h-23q-56 0 -80 -34q-41 -58 -67 -160q-61 -238 -99 -305q-14 -26 -30 -44l241 -555h103v-428h-133v287h-60l-268 623h-117v-623h-133v1366z" />
    <glyph glyph-name="uni049B" unicode="&#x49b;" horiz-adv-x="761" 
d="M121 977h121v-418h45q34 0 61 42t75 166q47 124 73 156q44 54 110 54h66v-119h-37q-33 0 -57 -34t-62 -140q-39 -106 -76 -156l187 -411h84v-338h-123v221h-41l-201 446h-104v-446h-121v977z" />
    <glyph glyph-name="uni049C" unicode="&#x49c;" horiz-adv-x="944" 
d="M461 1038v-284q41 4 67 82q27 78 74 239t81 211q34 48 67 64t79 16h66v-127h-23q-56 0 -80 -34q-38 -53 -65 -158q-63 -239 -89 -286q-25 -47 -42 -65l303 -696h-151l-269 623h-18v-240h-107v240h-86v-623h-133v1366h133v-618h86v290h107z" />
    <glyph glyph-name="uni049D" unicode="&#x49d;" horiz-adv-x="806" 
d="M397 772v-211q25 3 49 59t65 163q42 107 67 139q43 55 110 55h66v-119h-37q-33 0 -57 -34t-63 -139t-75 -157l240 -528h-133l-201 446h-31v-192h-92v192h-63v-446h-121v977h121v-418h63v213h92z" />
    <glyph glyph-name="uni049E" unicode="&#x49e;" horiz-adv-x="878" 
d="M164 1153v213h133v-213h133v-123h-133v-282h80q48 0 80 69q17 39 70 229q53 189 89 239q36 49 68 65t80 16h65v-127h-22q-56 0 -80 -34q-39 -56 -67 -159q-27 -104 -52 -186q-37 -120 -78 -164l304 -696h-152l-268 623h-117v-623h-133v1030h-119v123h119z" />
    <glyph glyph-name="uni049F" unicode="&#x49f;" horiz-adv-x="739" 
d="M135 844v133h121v-133h94v-99h-94v-186h45q35 0 61 40t74 166t74 158q44 54 111 54h65v-119h-37q-33 0 -57 -34t-60 -135q-37 -101 -77 -161l239 -528h-133l-201 446h-104v-446h-121v745h-94v99h94z" />
    <glyph glyph-name="uni04A0" unicode="&#x4a0;" horiz-adv-x="919" 
d="M338 1366v-618h80q48 0 80 69q17 39 70 229q53 189 89 239q37 49 69 65t79 16h65v-127h-22q-56 0 -80 -34q-39 -56 -67 -159q-27 -104 -52 -186q-37 -120 -78 -164l303 -696h-151l-268 623h-117v-623h-133v1243h-160v123h293z" />
    <glyph glyph-name="uni04A1" unicode="&#x4a1;" horiz-adv-x="763" 
d="M281 977v-418h45q34 0 61 42t75 166q47 124 73 156q44 54 110 54h66v-119h-37q-33 0 -57 -34t-63 -139t-75 -157l240 -528h-133l-201 446h-104v-446h-121v854h-119v123h240z" />
    <glyph glyph-name="uni04A2" unicode="&#x4a2;" horiz-adv-x="1015" 
d="M842 141h102v-428h-143v287h-101v639h-421v-639h-144v1366h144v-602h421v602h142v-1225z" />
    <glyph glyph-name="uni04A3" unicode="&#x4a3;" horiz-adv-x="843" 
d="M705 117h88v-338h-123v221h-97v449h-319v-449h-133v977h133v-410h319v410h132v-860z" />
    <glyph glyph-name="uni04A4" unicode="&#x4a4;" horiz-adv-x="1046" 
d="M700 0v639h-421v-639h-144v1366h144v-602h421v602h301v-123h-159v-1243h-142z" />
    <glyph glyph-name="uni04A5" unicode="&#x4a5;" horiz-adv-x="864" 
d="M573 0v449h-319v-449h-133v977h133v-410h319v410h250v-123h-118v-854h-132z" />
    <glyph glyph-name="uni04A6" unicode="&#x4a6;" horiz-adv-x="1443" 
d="M827 0h-141v1241h-407v-1241h-144v1366h692v-584q87 60 233 61q144 1 238 -132t94 -418t-97 -436q-98 -150 -243 -150t-243 80l61 104q89 -55 172 -56q84 -1 144 103t59 329q0 224 -42 326q-50 122 -170 122q-119 0 -206 -78v-637z" />
    <glyph glyph-name="uni04A7" unicode="&#x4a7;" horiz-adv-x="1232" 
d="M884 569q123 0 208 -114q84 -115 84 -363t-96 -380t-249 -132q-100 0 -172 39l46 119q78 -31 118 -31q94 0 154 86q59 86 59 277q0 276 -91 348q-34 27 -85 26q-103 0 -176 -57v-387h-133v854h-297v-854h-133v977h563v-457q77 49 200 49z" />
    <glyph glyph-name="uni04A8" unicode="&#x4a8;" horiz-adv-x="1054" 
d="M799 614q-1 154 -15 209q-14 57 -34 83t-58 26q-95 0 -108 -199q-4 -57 -4 -161t24 -222q24 -117 70 -194q125 116 125 458zM866 -102q-131 0 -229 94q-49 -18 -107 -19q-216 0 -330 197t-114 508q0 495 204 655q75 59 180 59t185 -51l-61 -118q-53 37 -123 37
q-232 0 -238 -586q0 -236 77 -403t218 -169h23q-113 201 -113 510q0 202 56 329q56 126 198 126q206 0 240 -281q10 -82 10 -174q0 -186 -48 -329t-138 -224q53 -35 113 -35t98 15l30 -123q-61 -18 -131 -18z" />
    <glyph glyph-name="uni04A9" unicode="&#x4a9;" horiz-adv-x="845" 
d="M625 440q-1 106 -11 142q-20 71 -69 71q-78 0 -78 -211t68 -311q90 90 90 309zM250 18q-176 115 -176 472t169 472q58 40 133 39t142 -36l-53 -111q-53 28 -92 28q-79 1 -124 -115q-42 -103 -42 -282t32 -255q31 -76 71 -112t104 -36h18q-88 147 -88 358q0 328 201 328
q110 0 163 -98q38 -70 40 -230q0 -252 -144 -383q45 -29 93 -29t77 11l21 -100q-43 -15 -103 -15q-108 0 -188 72q-46 -18 -118 -18t-136 40z" />
    <glyph glyph-name="uni04AA" unicode="&#x4aa;" horiz-adv-x="843" 
d="M623 -185q1 -91 -51 -135t-127 -44t-126 30l31 92q33 -18 68 -18q80 0 81 87t-77 148q-164 19 -250 185t-86 525t104 533q104 175 289 175q129 0 201 -76t106 -205l-133 -47q-35 98 -63 132q-53 65 -119 67q-123 0 -176 -154t-53 -434q0 -572 227 -574q113 0 165 122
q15 36 30 79l129 -47q-41 -158 -150 -232q-43 -30 -102 -42q82 -77 82 -167z" />
    <glyph glyph-name="uni04AB" unicode="&#x4ab;" horiz-adv-x="686" 
d="M324 -260q80 0 81 89t-90 157q-241 53 -241 503q0 363 174 475q58 38 130 38q203 -1 261 -238l-119 -37q-12 59 -46 107t-85 47q-51 0 -84 -35q-86 -91 -86 -357q0 -389 166 -389q102 0 143 150l117 -41q-29 -99 -83 -153t-120 -70q88 -83 87 -172q-1 -90 -52 -134
t-127 -44t-125 30l31 92q33 -18 68 -18z" />
    <glyph glyph-name="uni04AC" unicode="&#x4ac;" horiz-adv-x="796" 
d="M471 1241v-1100h102v-428h-143v287h-102v1241h-283v125h707v-125h-281z" />
    <glyph glyph-name="uni04AD" unicode="&#x4ad;" horiz-adv-x="651" 
d="M391 858v-741h88v-338h-123v221h-96v858h-219v119h569v-119h-219z" />
    <glyph glyph-name="uni04AE" unicode="&#x4ae;" horiz-adv-x="860" 
d="M496 0h-144v655l-311 711h154l235 -557l240 557h149l-323 -711v-655z" />
    <glyph glyph-name="uni04AF" unicode="&#x4af;" horiz-adv-x="712" 
d="M289 -389v473l-252 893h135l184 -725l185 725h135l-252 -893v-473h-135z" />
    <glyph glyph-name="uni04B0" unicode="&#x4b0;" horiz-adv-x="860" 
d="M496 469v-469h-144v469h-219v125h219v61l-311 711h154l235 -557l240 557h149l-323 -711v-61h219v-125h-219z" />
    <glyph glyph-name="uni04B1" unicode="&#x4b1;" horiz-adv-x="712" 
d="M289 0v43l-252 934h135l184 -766l185 766h135l-252 -934v-43h174v-123h-174v-266h-135v266h-172v123h172z" />
    <glyph glyph-name="uni04B2" unicode="&#x4b2;" horiz-adv-x="870" 
d="M819 141v-428h-133v287h-61l-222 559l-219 -559h-147l297 711l-271 655h152l193 -500l194 500h146l-269 -649l238 -576h102z" />
    <glyph glyph-name="uni04B3" unicode="&#x4b3;" horiz-adv-x="690" 
d="M659 117v-338h-122v221h-48l-153 367l-156 -367h-139l223 502l-213 475h139l150 -350l152 350h133l-215 -473l170 -387h79z" />
    <glyph glyph-name="uni04B4" unicode="&#x4b4;" horiz-adv-x="1136" 
d="M428 1241v-1116h418v1241h141v-1241h78v-412h-143v287h-637v1241h-240v125h623v-125h-240z" />
    <glyph glyph-name="uni04B5" unicode="&#x4b5;" horiz-adv-x="892" 
d="M479 977v-123h-153v-737h307v860h131v-860h78v-338h-123v221h-524v854h-154v123h438z" />
    <glyph glyph-name="uni04B6" unicode="&#x4b6;" horiz-adv-x="966" 
d="M647 725v641h144v-1225h104v-428h-143v287h-105v592q-110 -47 -253 -47q-142 1 -213 73t-83 222q-6 64 -6 180v346h144v-328q0 -143 14 -230q22 -136 164 -136q141 0 233 53z" />
    <glyph glyph-name="uni04B7" unicode="&#x4b7;" horiz-adv-x="808" 
d="M213 606q0 -105 40 -134q40 -30 126 -30t162 45v490h131v-860h86v-338h-123v221h-94v371q-84 -41 -207 -41t-177 54q-55 54 -65 124t-10 145v324h131v-371z" />
    <glyph glyph-name="uni04B8" unicode="&#x4b8;" horiz-adv-x="946" 
d="M510 305h-107v240h-8q-143 1 -214 73t-83 222q-6 64 -6 180v346h144v-328q0 -226 34 -294t133 -72v278h107v-272q88 13 158 47v641h143v-1366h-143v592q-73 -28 -158 -39v-248z" />
    <glyph glyph-name="uni04B9" unicode="&#x4b9;" horiz-adv-x="800" 
d="M430 121h-92v209h-4q-123 0 -177 54q-55 54 -65 124t-10 145v324h131v-371q0 -98 36 -129t89 -35v197h92v-193q68 12 119 41v490h131v-977h-131v371q-68 -28 -119 -35v-215z" />
    <glyph glyph-name="uni04BA" unicode="&#x4ba;" horiz-adv-x="925" 
d="M279 0h-144v1366h144v-569q106 45 250 46t215 -72t83 -222q7 -75 7 -180v-369h-144v350q0 232 -38 299q-38 66 -158 67q-119 1 -215 -52v-664z" />
    <glyph glyph-name="uni04BB" unicode="&#x4bb;" horiz-adv-x="817" 
d="M705 0h-136v692q0 102 -30 148q-31 45 -110 45t-173 -92v-793h-135v1366h135v-448q100 85 213 84t173 -72q61 -71 63 -174v-756z" />
    <glyph glyph-name="uni04BC" unicode="&#x4bc;" horiz-adv-x="1146" 
d="M909 758q0 371 -121 468q-44 36 -110 36q-179 0 -231 -294q-15 -93 -21 -210h483zM1061 633h-637q9 -275 60 -391q61 -138 191 -138t183 164q16 49 29 105l141 -49q-25 -133 -101 -231q-99 -122 -247 -122q-397 0 -401 662q-242 8 -242 252q0 94 45 176l111 -47
q-35 -58 -35 -120q0 -131 123 -138q26 635 401 635q200 0 295 -184q82 -158 84 -474v-100z" />
    <glyph glyph-name="uni04BD" unicode="&#x4bd;" horiz-adv-x="888" 
d="M670 612q-4 150 -47 212t-103 62q-132 1 -162 -274h312zM520 1001q154 0 228 -130t73 -365h-465q0 -408 181 -408q112 0 149 148l119 -47q-29 -92 -93 -157t-175 -65q-322 0 -322 517v12q-178 12 -178 201q0 64 37 145l98 -45q-25 -40 -27 -92q0 -94 76 -103
q19 193 99 291t200 98z" />
    <glyph glyph-name="uni04BE" unicode="&#x4be;" horiz-adv-x="1146" 
d="M909 758q0 371 -121 468q-44 36 -110 36q-179 0 -231 -294q-15 -93 -21 -210h483zM1061 633h-637q9 -275 60 -391q61 -138 191 -138t183 164q16 49 29 105l141 -49q-42 -204 -179 -304q-52 -37 -122 -45v-262h-131v267q-161 34 -237 199t-80 454q-242 8 -242 252
q0 94 45 176l111 -47q-35 -58 -35 -120q0 -131 123 -138q26 635 401 635q200 0 295 -184q82 -158 84 -474v-100z" />
    <glyph glyph-name="uni04BF" unicode="&#x4bf;" horiz-adv-x="882" 
d="M670 612q-4 150 -47 212t-103 62q-132 1 -162 -274h312zM520 1001q154 0 228 -130t73 -365h-465q0 -408 181 -408q112 0 149 148l119 -47q-63 -196 -225 -217v-203h-117v207q-246 55 -248 508v12q-178 12 -178 201q0 64 37 145l98 -45q-25 -40 -27 -92q0 -94 76 -103
q19 193 99 291t200 98z" />
    <glyph glyph-name="uni04C0" unicode="&#x4c0;" horiz-adv-x="413" 
d="M135 0v1366h144v-1366h-144z" />
    <glyph glyph-name="uni04C1" unicode="&#x4c1;" horiz-adv-x="1232" 
d="M686 623v-623h-133v623h-104l-246 -623h-152l283 688q-51 57 -91 213t-62 234q-23 78 -57 95q-17 9 -46 9h-23v127h78q86 0 124 -68q32 -54 86 -248t69 -232q16 -38 34 -54t46 -16h61v618h133v-618h59q27 0 52 22t51 110t50 174t42 147q35 118 92 150q29 15 76 15h70
v-127h-23q-53 0 -74 -38t-68 -216q-47 -177 -72 -224t-42 -65l283 -696h-160l-240 623h-96zM487 1767q15 -168 131 -168q56 0 94 38t44 130h116q-4 -153 -74 -219t-180 -66q-108 0 -178 64q-70 63 -73 221h120z" />
    <glyph glyph-name="uni04C2" unicode="&#x4c2;" horiz-adv-x="1009" 
d="M958 858h-36q-33 0 -46 -34t-52 -138t-76 -158l202 -528h-133l-162 446h-86v-446h-120v446h-91l-159 -446h-136l197 526q-23 33 -68 149q-45 115 -58 149t-46 34h-37v119h72q65 0 93 -47q15 -25 63 -152t69 -164q20 -37 34 -46t32 -9h35v418h120v-418h31q34 0 58 40
q23 40 59 135q65 170 81 196q31 47 95 47h65v-119zM377 1427q15 -169 133 -167q53 0 91 38t44 129h117q-4 -153 -75 -219t-179 -66t-178 64q-70 63 -74 221h121z" />
    <glyph glyph-name="uni04C3" unicode="&#x4c3;" horiz-adv-x="927" 
d="M627 -74q59 92 59 294t-42 293q-51 110 -163 110h-213v-623h-133v1366h133v-618h72q51 0 80 60t79 240q50 179 87 233q38 53 70 69t79 16h66v-127h-23q-57 0 -79 -34q-35 -52 -63 -148q-27 -96 -42 -153q-27 -100 -70 -161q150 -16 230 -136t80 -372t-98 -390t-244 -138
t-242 80l61 104q209 -130 316 35z" />
    <glyph glyph-name="uni04C4" unicode="&#x4c4;" horiz-adv-x="798" 
d="M373 -289q94 0 153 86t60 277q0 274 -91 346q-34 27 -85 26h-168v-446h-121v977h121v-418h32q37 0 61 37t64 135q65 163 99 205q34 41 100 41h66v-119h-37q-33 0 -57 -34t-62 -133t-62 -134q129 -10 204 -120t75 -349t-99 -379q-91 -125 -245 -125q-100 0 -172 39l45 119
q78 -31 119 -31z" />
    <glyph glyph-name="uni04C5" unicode="&#x4c5;" horiz-adv-x="962" 
d="M698 0v1241h-299v-176q-1 -681 -81 -875q-44 -108 -105 -149t-139 -41h-37v131h18q51 0 86 25t67 134t41 309t9 478v289h582v-1241h102l-106 -412h-138l78 287h-78z" />
    <glyph glyph-name="uni04C6" unicode="&#x4c6;" horiz-adv-x="806" 
d="M684 125h102l-90 -346h-133l62 221h-76v858h-232v-78q0 -342 -32 -526q-39 -254 -209 -254h-45v119h20q42 0 66 28t37 98q34 194 34 603v129h496v-852z" />
    <glyph glyph-name="uni04C7" unicode="&#x4c7;" horiz-adv-x="976" 
d="M700 639h-421v-639h-144v1366h144v-602h421v602h142v-1393q0 -200 -116 -320q-32 -32 -64 -56l-82 98q120 111 120 264v680z" />
    <glyph glyph-name="uni04C8" unicode="&#x4c8;" horiz-adv-x="825" 
d="M705 977v-1004q0 -202 -114 -320q-32 -32 -63 -56l-75 98q120 111 120 264v490h-319v-449h-133v977h133v-410h319v410h132z" />
    <glyph glyph-name="uni04C9" unicode="&#x4c9;" horiz-adv-x="964" 
d="M842 125h102l-106 -412h-138l78 287h-78v639h-421v-639h-144v1366h144v-602h421v602h142v-1241z" />
    <glyph glyph-name="uni04CA" unicode="&#x4ca;" horiz-adv-x="827" 
d="M705 125h102l-90 -346h-133l61 221h-72v449h-319v-449h-133v977h133v-410h319v410h132v-852z" />
    <glyph glyph-name="uni04CB" unicode="&#x4cb;" horiz-adv-x="925" 
d="M647 725v641h144v-1366h-101v-287h-143v428h100v451q-110 -47 -253 -47q-142 1 -213 73t-83 222q-6 64 -6 180v346h144v-328q0 -143 14 -230q22 -136 164 -136q141 0 233 53z" />
    <glyph glyph-name="uni04CC" unicode="&#x4cc;" horiz-adv-x="792" 
d="M213 606q0 -105 40 -134q40 -30 126 -30t162 45v490h131v-977h-97v-221h-122v338h88v254q-84 -41 -207 -41t-177 54q-55 54 -65 124t-10 145v324h131v-371z" />
    <glyph glyph-name="uni04CD" unicode="&#x4cd;" horiz-adv-x="1136" 
d="M1016 125h100l-106 -412h-138l78 287h-63v1075l-266 -1087h-78l-279 1079v-1067h-129v1366h172l277 -1104l262 1104h170v-1241z" />
    <glyph glyph-name="uni04CE" unicode="&#x4ce;" horiz-adv-x="942" 
d="M821 125h101l-91 -346h-133l62 221h-66v674l-205 -674h-45l-198 662v-662h-125v977h139l207 -731l211 731h143v-852z" />
    <glyph glyph-name="uni04CF" unicode="&#x4cf;" horiz-adv-x="413" 
d="M135 0v1366h144v-1366h-144z" />
    <glyph glyph-name="uni04D0" unicode="&#x4d0;" horiz-adv-x="897" 
d="M442 1083l-151 -622h307zM713 0l-84 336h-367l-82 -336h-139l354 1366h99l362 -1366h-143zM313 1767q15 -168 133 -168q53 0 92 38q38 38 44 130h116q-4 -153 -74 -219t-180 -66q-108 0 -178 64q-70 63 -73 221h120z" />
    <glyph glyph-name="uni04D1" unicode="&#x4d1;" horiz-adv-x="694" 
d="M322 96q44 0 80 28t51 62v330q-111 -5 -160 -39q-49 -33 -73 -78t-23 -120q0 -183 125 -183zM453 723q0 164 -108 164q-56 0 -87 -30t-57 -79l-99 68q40 76 98 116t159 40t164 -69q62 -69 63 -214v-719h-123l-6 74q-15 -33 -59 -65t-126 -32t-147 76q-63 76 -63 204
t39 196q97 165 352 178v92zM217 1427q15 -169 133 -167q53 0 91 38t44 129h117q-4 -153 -75 -219t-179 -66t-178 64q-70 63 -74 221h121z" />
    <glyph glyph-name="uni04D2" unicode="&#x4d2;" horiz-adv-x="897" 
d="M442 1083l-151 -622h307zM713 0l-84 336h-367l-82 -336h-139l354 1366h99l362 -1366h-143zM506 1647q0 41 29 69t69 29q40 0 70 -29q28 -30 28 -70t-28 -69t-70 -29t-70 29t-28 70zM203 1647q1 41 29 69t69 29q41 0 70 -29q29 -30 29 -70t-30 -69q-28 -29 -69 -29t-70 29
q-28 29 -28 70z" />
    <glyph glyph-name="uni04D3" unicode="&#x4d3;" horiz-adv-x="694" 
d="M322 96q44 0 80 28t51 62v330q-111 -5 -160 -39q-49 -33 -73 -78t-23 -120q0 -183 125 -183zM453 723q0 164 -108 164q-56 0 -87 -30t-57 -79l-99 68q40 76 98 116t159 40t164 -69q62 -69 63 -214v-719h-123l-6 74q-15 -33 -59 -65t-126 -32t-147 76q-63 76 -63 204
t39 196q97 165 352 178v92zM397 1270q0 42 29 70t70 28q42 0 70 -29t28 -69t-29 -70q-29 -29 -69 -29t-70 29q-29 29 -29 70zM94 1270q0 42 29 70t70 28t69 -29t29 -69q0 -40 -29 -70q-30 -29 -70 -29t-69 29t-29 70z" />
    <glyph glyph-name="uni04D4" unicode="&#x4d4;" horiz-adv-x="1323" 
d="M678 567v684l-270 -684h270zM678 0v442h-320l-174 -442h-143l551 1366h663v-123h-432v-465h316v-123h-318v-532h449v-123h-592z" />
    <glyph glyph-name="uni04D5" unicode="&#x4d5;" horiz-adv-x="1153" 
d="M940 612q-4 150 -47 212t-102 62q-132 1 -160 -274h309zM498 295v215q-131 -6 -187 -36q-114 -62 -112 -193q0 -174 131 -175q82 0 125 52t43 137zM360 1001q166 0 209 -153q76 154 230 154q293 -1 293 -496h-463q0 -408 178 -408q93 0 133 97q10 27 16 51l119 -47
q-29 -92 -93 -157t-175 -65q-188 0 -246 168q-91 -165 -254 -168q-109 0 -177 79t-69 204q0 125 43 192q107 167 394 171v24q0 228 -142 230q-87 0 -145 -109l-100 66q83 167 249 167z" />
    <glyph glyph-name="uni04D6" unicode="&#x4d6;" horiz-adv-x="774" 
d="M129 0v1366h578v-123h-433v-465h316v-123h-318v-532h449v-123h-592zM293 1767q15 -168 133 -168q53 0 91 38t44 130h117q-4 -153 -75 -219t-179 -66t-178 64q-70 63 -74 221h121z" />
    <glyph glyph-name="uni04D7" unicode="&#x4d7;" horiz-adv-x="741" 
d="M528 612q-4 150 -47 212t-102 62q-134 1 -162 -274h311zM395 -23q-321 0 -321 517q0 248 84 378t230 129q146 0 218 -130q74 -130 74 -365h-465q0 -408 180 -408q92 0 132 97q11 27 18 51l119 -47q-29 -92 -94 -157t-175 -65zM250 1427q15 -169 133 -167q53 0 91 38
t44 129h117q-4 -153 -75 -219t-179 -66t-178 64q-70 63 -74 221h121z" />
    <glyph glyph-name="uni04D8" unicode="&#x4d8;" horiz-adv-x="954" 
d="M238 606q0 -370 120 -468q46 -36 110 -36q184 0 231 294q15 93 22 210h-483zM86 631v100h637q-9 275 -60 391q-61 138 -191 138t-183 -164q-16 -49 -29 -105l-141 49q26 128 98 227q96 126 250 126q314 0 381 -411q20 -128 20 -284q0 -721 -403 -725q-379 0 -379 658z
" />
    <glyph glyph-name="uni04D9" unicode="&#x4d9;" horiz-adv-x="753" 
d="M225 408q6 -242 94 -298q58 -37 112 -2q81 47 106 300h-312zM680 485q0 -247 -84 -377t-230 -130t-219 140q-74 140 -73 396h465q0 170 -41 268t-140 99q-112 0 -149 -148l-119 47q29 92 93 157q65 65 175 64q322 0 322 -516z" />
    <glyph glyph-name="uni04DA" unicode="&#x4da;" horiz-adv-x="954" 
d="M238 606q0 -370 120 -468q46 -36 110 -36q184 0 231 294q15 93 22 210h-483zM86 631v100h637q-9 275 -60 391q-61 138 -191 138t-183 -164q-16 -49 -29 -105l-141 49q26 128 98 227q96 126 250 126q314 0 381 -411q20 -128 20 -284q0 -721 -403 -725q-379 0 -379 658z
M549 1647q0 41 29 69q30 28 70 29q40 0 69 -29q29 -30 29 -70t-30 -69q-28 -29 -69 -29t-69 29t-29 70zM246 1647q0 41 28 69t70 29q41 0 70 -29q28 -30 28 -70t-28 -69t-70 -29q-41 0 -70 29q-28 29 -28 70z" />
    <glyph glyph-name="uni04DB" unicode="&#x4db;" horiz-adv-x="753" 
d="M225 408q6 -242 94 -298q58 -37 112 -2q81 47 106 300h-312zM680 485q0 -247 -84 -377t-230 -130t-219 140q-74 140 -73 396h465q0 170 -41 268t-140 99q-112 0 -149 -148l-119 47q29 92 93 157q65 65 175 64q322 0 322 -516zM426 1270q0 42 29 70t69 28t70 -29
q29 -29 29 -69t-29 -70q-29 -29 -70 -29q-42 0 -70 29t-28 70zM123 1270q0 42 29 70q30 28 70 28t69 -29t29 -69t-30 -70q-28 -29 -69 -29t-69 29t-29 70z" />
    <glyph glyph-name="uni04DC" unicode="&#x4dc;" horiz-adv-x="1232" 
d="M686 623v-623h-133v623h-104l-246 -623h-152l283 688q-51 57 -91 213t-62 234q-23 78 -57 95q-17 9 -46 9h-23v127h78q86 0 124 -68q32 -54 86 -248t69 -232q16 -38 34 -54t46 -16h61v618h133v-618h59q27 0 52 22t51 110t50 174t42 147q35 118 92 150q29 15 76 15h70
v-127h-23q-53 0 -74 -38t-68 -216q-47 -177 -72 -224t-42 -65l283 -696h-160l-240 623h-96zM676 1647q0 41 29 69t69 29q40 0 70 -29q28 -30 28 -70t-28 -69t-70 -29t-70 29t-28 70zM373 1647q1 41 29 69t69 29q41 0 70 -29q29 -30 29 -70t-30 -69q-28 -29 -69 -29t-70 29
q-28 29 -28 70z" />
    <glyph glyph-name="uni04DD" unicode="&#x4dd;" horiz-adv-x="1009" 
d="M958 858h-36q-33 0 -46 -34t-52 -138t-76 -158l202 -528h-133l-162 446h-86v-446h-120v446h-91l-159 -446h-136l197 526q-23 33 -68 149q-45 115 -58 149t-46 34h-37v119h72q65 0 93 -47q15 -25 63 -152t69 -164q20 -37 34 -46t32 -9h35v418h120v-418h31q34 0 58 40
q23 40 59 135q65 170 81 196q31 47 95 47h65v-119zM561 1270q0 42 29 70q30 28 70 28t69 -29t29 -69t-29 -70q-29 -29 -70 -29t-69 29t-29 70zM258 1270q0 42 29 70t69 28t70 -29q29 -29 29 -69t-29 -70q-29 -29 -70 -29q-42 0 -70 29t-28 70z" />
    <glyph glyph-name="uni04DE" unicode="&#x4de;" horiz-adv-x="794" 
d="M713 358q0 -172 -92 -279q-92 -108 -227 -108q-136 1 -217 61t-132 183l125 64q43 -87 87 -133q45 -46 109 -46q198 0 197 271q0 123 -47 191t-133 75q-39 4 -64 4h-53v125q90 0 146 9q57 9 94 76t37 175t-37 172q-37 66 -115 66t-119 -52t-75 -137l-121 55
q87 261 321 263q145 -1 220 -97t75 -240t-56 -230q-56 -87 -130 -121q207 -71 207 -347zM453 1647q1 41 29 69t69 29q41 0 70 -29q29 -30 29 -70t-30 -69q-28 -29 -69 -29t-70 29q-28 29 -28 70zM150 1647q0 41 28 69t70 29q42 0 70 -29q28 -30 28 -70t-29 -69t-69 -29
t-70 29q-28 29 -28 70z" />
    <glyph glyph-name="uni04DF" unicode="&#x4df;" horiz-adv-x="686" 
d="M621 291q0 -154 -81 -234t-213 -80t-197 65t-89 167l119 37q19 -75 43 -103q45 -51 122 -51t121 46t43 132q0 154 -120 172q-23 4 -54 4h-57v109q69 0 115 9t74 54t28 117t-40 111q-39 39 -103 39t-102 -46t-60 -134l-113 40q29 119 102 188t191 69t186 -68t68 -173
t-42 -170t-101 -85q61 -14 111 -64t49 -151zM385 1270q0 42 29 70q30 28 70 28t69 -29t29 -69t-29 -70q-29 -29 -70 -29t-69 29t-29 70zM82 1270q0 42 29 70t69 28t70 -29q29 -29 29 -69t-29 -70q-29 -29 -70 -29q-42 0 -70 29t-28 70z" />
    <glyph glyph-name="uni04E0" unicode="&#x4e0;" horiz-adv-x="794" 
d="M713 363q0 -172 -92 -282t-228 -110q-135 1 -216 61t-132 183l125 64q47 -91 77 -121q58 -56 120 -57q196 -3 196 282q0 125 -47 197t-122 77t-169 5v124l305 455h-442v125h594v-121l-320 -459q102 0 170 -36q181 -98 181 -387z" />
    <glyph glyph-name="uni04E1" unicode="&#x4e1;" horiz-adv-x="641" 
d="M440 -2q0 125 -42 197t-117 77q-39 4 -64 4h-53v125l246 451h-363v125h512v-121l-262 -455q150 -4 228 -142q65 -115 65 -284t-86 -279t-223 -110q-106 0 -175 66q-68 66 -96 166l121 43q48 -146 150 -146q159 0 159 283z" />
    <glyph glyph-name="uni04E2" unicode="&#x4e2;" horiz-adv-x="995" 
d="M721 0v989l-449 -837v-152h-137v1366h137v-989l449 842v147h139v-1366h-139zM252 1579v119h477v-119h-477z" />
    <glyph glyph-name="uni04E3" unicode="&#x4e3;" horiz-adv-x="825" 
d="M571 0v657l-317 -546v-111h-133v977h133v-660l317 547v113h134v-977h-134zM176 1231v119h477v-119h-477z" />
    <glyph glyph-name="uni04E4" unicode="&#x4e4;" horiz-adv-x="995" 
d="M721 0v989l-449 -837v-152h-137v1366h137v-989l449 842v147h139v-1366h-139zM561 1647q0 41 29 69q30 28 70 29q40 0 69 -29q29 -30 29 -70t-29 -69t-70 -29t-69 29t-29 70zM258 1647q0 41 29 69t69 29q40 0 70 -29q29 -30 29 -70t-29 -69t-70 -29q-42 0 -70 29t-28 70z
" />
    <glyph glyph-name="uni04E5" unicode="&#x4e5;" horiz-adv-x="825" 
d="M571 0v657l-317 -546v-111h-133v977h133v-660l317 547v113h134v-977h-134zM459 1270q1 42 29 70t69 28t70 -29t29 -69t-30 -70q-28 -29 -69 -29t-70 29q-28 29 -28 70zM156 1270q0 42 28 70t70 28q41 0 70 -29q28 -29 28 -69t-28 -70q-28 -29 -70 -29q-41 0 -70 29
q-28 29 -28 70z" />
    <glyph glyph-name="uni04E6" unicode="&#x4e6;" horiz-adv-x="978" 
d="M492 1264q-250 0 -250 -579t250 -583q245 0 245 579q0 580 -245 583zM310 24q-224 149 -224 659q0 509 224 658q78 51 182 51t180 -50q221 -150 221 -659t-221 -658q-76 -51 -180 -51q-104 -2 -182 50zM545 1647q1 41 29 69t69 29q41 0 70 -29q29 -30 29 -70t-30 -69
q-28 -29 -69 -29t-70 29q-28 29 -28 70zM242 1647q0 41 28 69t70 29q41 0 70 -29q28 -30 28 -70t-28 -69t-70 -29q-41 0 -70 29q-28 29 -28 70z" />
    <glyph glyph-name="uni04E7" unicode="&#x4e7;" horiz-adv-x="784" 
d="M567 490q0 390 -174 391q-96 0 -141 -125q-35 -96 -35 -269t35 -264q45 -123 141 -123q174 0 174 390zM711 489q0 -361 -179 -474q-59 -38 -141 -38t-141 38q-176 113 -176 474t179 475q60 38 141 38q160 -1 238 -140q79 -139 79 -373zM463 1270q0 42 29 70q30 28 70 28
t69 -29t29 -69t-30 -70q-28 -29 -69 -29t-69 29t-29 70zM160 1270q0 42 28 70t70 28q41 0 70 -29q28 -29 28 -69t-28 -70q-28 -29 -70 -29q-41 0 -70 29q-28 29 -28 70z" />
    <glyph glyph-name="uni04E8" unicode="&#x4e8;" horiz-adv-x="978" 
d="M492 1264q-126 0 -189 -149q-55 -130 -59 -351h491q-14 356 -131 460q-44 40 -112 40zM242 641q10 -539 250 -539q235 0 245 539h-495zM310 24q-224 149 -224 659q0 509 224 658q78 51 182 51t180 -50q221 -150 221 -659t-221 -658q-76 -51 -180 -51q-104 -2 -182 50z
" />
    <glyph glyph-name="uni04E9" unicode="&#x4e9;" horiz-adv-x="784" 
d="M393 881q-47 0 -79 -27q-88 -74 -95 -293h346q-10 148 -35 207q-26 59 -58 86t-79 27zM393 100q162 0 172 346h-348q5 -155 33 -221q28 -65 61 -95t82 -30zM711 489q0 -361 -179 -474q-59 -38 -141 -38t-141 38q-176 113 -176 474t179 475q60 38 141 38q160 -1 238 -140
q79 -139 79 -373z" />
    <glyph glyph-name="uni04EA" unicode="&#x4ea;" horiz-adv-x="978" 
d="M492 1264q-126 0 -189 -149q-55 -130 -59 -351h491q-14 356 -131 460q-44 40 -112 40zM242 641q10 -539 250 -539q235 0 245 539h-495zM310 24q-224 149 -224 659q0 509 224 658q78 51 182 51t180 -50q221 -150 221 -659t-221 -658q-76 -51 -180 -51q-104 -2 -182 50z
M549 1647q0 41 29 69q30 28 70 29q40 0 69 -29q29 -30 29 -70t-30 -69q-28 -29 -69 -29t-69 29t-29 70zM246 1647q0 41 28 69t70 29q41 0 70 -29q28 -30 28 -70t-28 -69t-70 -29q-41 0 -70 29q-28 29 -28 70z" />
    <glyph glyph-name="uni04EB" unicode="&#x4eb;" horiz-adv-x="784" 
d="M393 881q-47 0 -79 -27q-88 -74 -95 -293h346q-10 148 -35 207q-26 59 -58 86t-79 27zM393 100q162 0 172 346h-348q5 -155 33 -221q28 -65 61 -95t82 -30zM711 489q0 -361 -179 -474q-59 -38 -141 -38t-141 38q-176 113 -176 474t179 475q60 38 141 38q160 -1 238 -140
q79 -139 79 -373zM451 1270q1 42 29 70t69 28t69 -29t29 -69q0 -40 -29 -70q-30 -29 -70 -29t-69 29q-28 29 -28 70zM147 1270q0 42 29 70t70 28q42 0 70 -29t28 -69t-29 -70q-29 -29 -69 -29t-70 29q-29 29 -29 70z" />
    <glyph glyph-name="uni04EC" unicode="&#x4ec;" horiz-adv-x="866" 
d="M412 1393q266 1 342 -379q26 -132 26 -322q0 -555 -229 -675q-76 -40 -159 -40q-200 0 -296 176q-29 52 -45 111l133 49q38 -107 69 -140q58 -64 134 -64q127 0 183 143t61 397h-326v125h322q-13 241 -60 350q-58 135 -171 134t-169 -124q-16 -36 -30 -75l-129 45
q47 152 132 220t212 69zM481 1647q0 41 29 69t70 29q42 0 70 -29q28 -30 28 -70t-29 -69t-69 -29t-70 29q-29 29 -29 70zM178 1647q0 41 29 69t69 29q40 0 70 -29q29 -30 29 -70t-29 -69t-70 -29q-42 0 -70 29t-28 70z" />
    <glyph glyph-name="uni04ED" unicode="&#x4ed;" horiz-adv-x="686" 
d="M612 489q0 -512 -313 -512q-88 1 -159 57t-99 175l121 41q34 -150 139 -150q160 0 170 351h-281v108h279q-21 322 -162 322q-53 0 -91 -47t-50 -107l-119 37q34 147 161 213q48 25 118 25q141 -1 214 -140q72 -139 72 -373zM389 1270q0 42 29 70q30 28 70 28t69 -29
t29 -69t-29 -70q-29 -29 -70 -29t-69 29t-29 70zM86 1270q0 42 29 70t69 28t70 -29q29 -29 29 -69t-29 -70q-29 -29 -70 -29q-42 0 -70 29t-28 70z" />
    <glyph glyph-name="uni04EE" unicode="&#x4ee;" horiz-adv-x="841" 
d="M125 -12v127h47q63 0 97 36q65 69 108 220l-357 995h150l281 -817q124 357 229 817h141q-136 -570 -323 -1061q-57 -151 -105 -208q-47 -58 -92 -84t-102 -25h-74zM195 1579v119h477v-119h-477z" />
    <glyph glyph-name="uni04EF" unicode="&#x4ef;" horiz-adv-x="712" 
d="M128 -295q40 0 62 32t43 109l52 189l-248 942h143l174 -723l183 723h139l-330 -1186q-28 -104 -82 -160q-46 -43 -112 -44q-67 -1 -125 28l32 106q29 -16 69 -16zM106 1231v119h478v-119h-478z" />
    <glyph glyph-name="uni04F0" unicode="&#x4f0;" horiz-adv-x="841" 
d="M125 -12v127h47q63 0 97 36q65 69 108 220l-357 995h150l281 -817q124 357 229 817h141q-136 -570 -323 -1061q-57 -151 -105 -208q-47 -58 -92 -84t-102 -25h-74zM494 1647q0 41 28 69t70 29q41 0 70 -29q28 -30 28 -70t-28 -69t-70 -29q-41 0 -70 29q-28 29 -28 70z
M190 1647q0 41 29 69t70 29q41 0 69 -29q28 -30 29 -70q0 -40 -29 -69q-30 -29 -70 -29t-69 29t-29 70z" />
    <glyph glyph-name="uni04F1" unicode="&#x4f1;" horiz-adv-x="712" 
d="M128 -295q40 0 62 32t43 109l52 189l-248 942h143l174 -723l183 723h139l-330 -1186q-28 -104 -82 -160q-46 -43 -112 -44q-67 -1 -125 28l32 106q29 -16 69 -16zM408 1270q0 42 28 70t70 28t70 -29t28 -69t-29 -70q-29 -29 -69 -29t-70 29q-28 29 -28 70zM104 1270
q0 42 29 70t70 28t69 -29t29 -69q0 -40 -29 -70q-30 -29 -70 -29t-69 29t-29 70z" />
    <glyph glyph-name="uni04F2" unicode="&#x4f2;" horiz-adv-x="841" 
d="M125 -12v127h47q63 0 97 36q65 69 108 220l-357 995h150l281 -817q124 357 229 817h141q-136 -570 -323 -1061q-57 -151 -105 -208q-47 -58 -92 -84t-102 -25h-74zM244 1440l-66 67l246 279l106 -92zM516 1440l-65 67l245 279l107 -92z" />
    <glyph glyph-name="uni04F3" unicode="&#x4f3;" horiz-adv-x="712" 
d="M128 -295q40 0 62 32t43 109l52 189l-248 942h143l174 -723l183 723h139l-330 -1186q-28 -104 -82 -160q-46 -43 -112 -44q-67 -1 -125 28l32 106q29 -16 69 -16zM203 1092l-66 67l246 279l106 -92zM475 1092l-65 67l245 279l107 -92z" />
    <glyph glyph-name="uni04F4" unicode="&#x4f4;" horiz-adv-x="925" 
d="M647 725v641h144v-1366h-144v592q-110 -47 -253 -47q-142 1 -213 73t-83 222q-6 64 -6 180v346h144v-328q0 -143 14 -230q22 -136 164 -136q141 0 233 53zM510 1647q0 41 29 69t69 29q40 0 70 -29q29 -30 29 -70t-29 -69t-70 -29q-42 0 -70 29t-28 70zM207 1647
q0 41 29 69q30 28 70 29q40 0 69 -29q29 -30 29 -70t-30 -69q-28 -29 -69 -29t-69 29t-29 70z" />
    <glyph glyph-name="uni04F5" unicode="&#x4f5;" horiz-adv-x="792" 
d="M213 606q0 -105 40 -134q40 -30 126 -30t162 45v490h131v-977h-131v371q-84 -41 -207 -41t-177 54q-55 54 -65 124t-10 145v324h131v-371zM436 1270q0 42 29 70t70 28t69 -29t29 -69q0 -40 -29 -70q-30 -29 -70 -29t-69 29t-29 70zM133 1270q0 42 29 70q30 28 70 28
t69 -29t29 -69t-29 -70q-29 -29 -70 -29t-69 29t-29 70z" />
    <glyph glyph-name="uni04F6" unicode="&#x4f6;" horiz-adv-x="759" 
d="M279 1237v-1096h104v-428h-143v287h-105v1366h580v-129h-436z" />
    <glyph glyph-name="uni04F7" unicode="&#x4f7;" horiz-adv-x="608" 
d="M567 977v-119h-311v-741h88v-338h-129v221h-94v977h446z" />
    <glyph glyph-name="uni04F8" unicode="&#x4f8;" horiz-adv-x="1165" 
d="M565 410q0 205 -135 248q-41 13 -88 14h-63v-547h59q111 -1 169 65t58 220zM360 797q355 0 355 -385q1 -204 -97 -308t-272 -104h-211v1366h144v-569h81zM887 0v1366h143v-1366h-143zM651 1647q0 41 29 69t70 29q42 0 70 -29q28 -30 28 -70t-29 -69t-69 -29t-70 29
q-29 29 -29 70zM348 1647q0 41 29 69t69 29q40 0 70 -29q29 -30 29 -70t-29 -69t-70 -29q-42 0 -70 29t-28 70z" />
    <glyph glyph-name="uni04F9" unicode="&#x4f9;" horiz-adv-x="1071" 
d="M535 328q-1 106 -47 148t-130 42h-102v-399h102q82 -1 130 51t47 158zM676 327q0 -143 -73 -235t-218 -92h-264v977h135v-340h129q145 0 218 -84t73 -226zM819 0v977h131v-977h-131zM600 1270q0 42 29 70t69 28t70 -29q29 -29 29 -69t-29 -70q-29 -29 -70 -29
q-42 0 -70 29t-28 70zM297 1270q0 42 29 70q30 28 70 28t69 -29t29 -69t-29 -70q-29 -29 -70 -29t-69 29t-29 70z" />
    <glyph glyph-name="Wgrave" unicode="&#x1e80;" horiz-adv-x="1206" 
d="M924 0h-123l-195 1104l-194 -1104h-123l-238 1366h133l176 -1032l183 1032h125l188 -1030l170 1030h129zM725 1454l-332 254l96 98l302 -284z" />
    <glyph glyph-name="wgrave" unicode="&#x1e81;" horiz-adv-x="1021" 
d="M774 0h-119l-145 711l-143 -711h-119l-211 977h135l141 -733l150 733h94l156 -733l137 733h135zM627 1114l-332 254l96 98l301 -284z" />
    <glyph glyph-name="Wacute" unicode="&#x1e82;" horiz-adv-x="1206" 
d="M924 0h-123l-195 1104l-194 -1104h-123l-238 1366h133l176 -1032l183 1032h125l188 -1030l170 1030h129zM498 1454l-66 68l301 284l96 -98z" />
    <glyph glyph-name="wacute" unicode="&#x1e83;" horiz-adv-x="1021" 
d="M774 0h-119l-145 711l-143 -711h-119l-211 977h135l141 -733l150 733h94l156 -733l137 733h135zM406 1114l-66 68l301 284l96 -98z" />
    <glyph glyph-name="Wdieresis" unicode="&#x1e84;" horiz-adv-x="1206" 
d="M924 0h-123l-195 1104l-194 -1104h-123l-238 1366h133l176 -1032l183 1032h125l188 -1030l170 1030h129zM676 1610q0 42 29 70t69 28t70 -29q28 -29 28 -69t-28 -70q-28 -29 -70 -29t-70 29t-28 70zM373 1610q1 42 29 70t69 28t70 -29t29 -69t-30 -70q-28 -29 -69 -29
t-70 29q-28 29 -28 70z" />
    <glyph glyph-name="wdieresis" unicode="&#x1e85;" horiz-adv-x="1021" 
d="M774 0h-119l-145 711l-143 -711h-119l-211 977h135l141 -733l150 733h94l156 -733l137 733h135zM573 1270q0 42 29 70t70 28q42 0 70 -29t28 -69t-29 -70q-29 -29 -69 -29t-70 29q-29 29 -29 70zM270 1270q0 42 29 70t70 28t69 -29t29 -69q0 -40 -29 -70q-30 -29 -70 -29
t-69 29t-29 70z" />
    <glyph glyph-name="Ygrave" unicode="&#x1ef2;" horiz-adv-x="860" 
d="M496 0h-144v655l-311 711h154l235 -557l240 557h149l-323 -711v-655zM506 1454l-332 254l96 98l301 -284z" />
    <glyph glyph-name="ygrave" unicode="&#x1ef3;" horiz-adv-x="712" 
d="M128 -295q40 0 62 32t43 109l52 189l-248 942h143l174 -723l183 723h139l-330 -1186q-28 -104 -82 -160q-46 -43 -112 -44q-67 -1 -125 28l32 106q29 -16 69 -16zM428 1114l-332 254l97 98l301 -284z" />
    <glyph glyph-name="endash" unicode="&#x2013;" horiz-adv-x="1024" 
d="M0 514v127h1024v-127h-1024z" />
    <glyph glyph-name="emdash" unicode="&#x2014;" horiz-adv-x="2048" 
d="M0 514v127h2048v-127h-2048z" />
    <glyph glyph-name="afii00208" unicode="&#x2015;" horiz-adv-x="2048" 
d="M0 514v127h2048v-127h-2048z" />
    <glyph glyph-name="quoteleft" unicode="&#x2018;" horiz-adv-x="311" 
d="M57 1104q0 106 60 176t145 98l14 -53q-89 -48 -120 -137q40 -2 66 -31t25 -72t-28 -71t-67 -29q-40 0 -67 31q-28 31 -28 88z" />
    <glyph glyph-name="quoteright" unicode="&#x2019;" horiz-adv-x="311" 
d="M254 1223q0 -109 -60 -178t-145 -97l-14 53q90 48 121 138q-41 3 -67 31t-26 71t27 72t67 29q41 0 69 -32q28 -30 28 -87z" />
    <glyph glyph-name="quotesinglbase" unicode="&#x201a;" horiz-adv-x="311" 
d="M254 117q0 -109 -60 -178t-145 -97l-14 54q91 48 121 137q-41 3 -67 31t-26 71t27 72t67 29q41 0 69 -31t28 -88z" />
    <glyph glyph-name="quotedblleft" unicode="&#x201c;" horiz-adv-x="595" 
d="M57 1104q0 106 60 176t145 98l14 -53q-89 -48 -120 -137q40 -2 66 -31t25 -72t-28 -71t-67 -29q-40 0 -67 31q-28 31 -28 88zM342 1104q0 108 60 177t145 97l14 -53q-91 -48 -121 -137q41 -2 67 -31q27 -29 25 -72t-28 -71t-67 -29q-39 0 -67 31t-28 88z" />
    <glyph glyph-name="quotedblright" unicode="&#x201d;" horiz-adv-x="595" 
d="M254 1227q0 -109 -60 -178t-145 -97l-14 54q91 48 121 137q-41 2 -67 31q-26 30 -26 72t27 71t67 29q41 0 69 -31t28 -88zM539 1227q-1 -57 -19 -103q-51 -127 -186 -172l-15 54q91 48 121 137q-40 2 -66 31q-26 30 -26 72t27 71t67 29t68 -31q29 -31 29 -88z" />
    <glyph glyph-name="quotedblbase" unicode="&#x201e;" horiz-adv-x="595" 
d="M254 117q0 -109 -60 -178t-145 -97l-14 54q91 48 121 137q-41 3 -67 31t-26 71t27 72t67 29q41 0 69 -31t28 -88zM539 117q-1 -57 -19 -103q-51 -127 -186 -172l-15 54q91 48 121 137q-40 3 -66 31t-26 71t27 72t67 29t68 -31q29 -31 29 -88z" />
    <glyph glyph-name="dagger" unicode="&#x2020;" horiz-adv-x="665" 
d="M401 772v-1071h-137v1071h-213v133h213v461h137v-461h213v-133h-213z" />
    <glyph glyph-name="daggerdbl" unicode="&#x2021;" horiz-adv-x="665" 
d="M401 176v-475h-137v475h-213v131h213v465h-213v133h213v461h137v-461h213v-133h-213v-465h213v-131h-213z" />
    <glyph glyph-name="bullet" unicode="&#x2022;" horiz-adv-x="880" 
d="M203 754q0 101 68 169t170 68t169 -67q66 -67 67 -170q1 -102 -67 -169t-169 -68t-169 67t-69 170z" />
    <glyph glyph-name="ellipsis" unicode="&#x2026;" horiz-adv-x="1062" 
d="M63 80q0 43 30 74q30 30 73 30t74 -30q30 -30 30 -74q0 -43 -30 -73t-74 -30q-43 0 -73 30t-30 73zM426 80q0 43 30 74q30 30 72 30t74 -30q31 -30 31 -74q0 -43 -31 -73t-74 -30q-42 0 -72 30t-30 73zM793 80q0 43 29 74q30 30 73 30t74 -30t31 -74q0 -43 -32 -73
q-30 -30 -73 -30t-73 30q-29 30 -29 73z" />
    <glyph glyph-name="perthousand" unicode="&#x2030;" horiz-adv-x="1656" 
d="M729 299q1 -211 105 -211t104 211q0 99 -27 155t-77 56q-105 0 -105 -211zM190 1065q0 -211 104 -211t105 211q-1 211 -105 211t-104 -211zM1053 299q1 -160 -63 -237q-64 -76 -156 -76t-155 76q-62 77 -63 237q0 160 62 237q62 76 156 76q92 0 156 -76t63 -237zM162 -14
l-90 65l897 1323l90 -65zM518 1065q0 -160 -63 -237q-63 -76 -155 -76t-156 76q-62 77 -62 237t62 237q62 76 154 76t157 -76q63 -77 63 -237zM1366 88q104 0 104 211t-104 211q-51 0 -78 -55t-26 -156q0 -211 104 -211zM1585 299q0 -160 -63 -237q-64 -76 -156 -76t-155 76
q-62 77 -62 237t62 237q63 76 155 76t156 -76q63 -77 63 -237z" />
    <glyph glyph-name="guilsinglleft" unicode="&#x2039;" horiz-adv-x="444" 
d="M317 111l-311 401l287 418l96 -80l-227 -328l246 -327z" />
    <glyph glyph-name="guilsinglright" unicode="&#x203a;" horiz-adv-x="444" 
d="M37 195l246 327l-228 328l97 80l286 -418l-311 -401z" />
    <glyph glyph-name="fraction" unicode="&#x2044;" horiz-adv-x="329" 
d="M-242 -14l-90 65l897 1323l90 -65z" />
    <glyph glyph-name="zerosuperior" unicode="&#x2070;" 
d="M449 1030q-1 -162 -53 -258t-156 -96t-156 94q-51 94 -51 258q0 249 117 327q39 26 90 25q104 0 156 -94t53 -256zM240 784q100 0 100 242t-100 242t-99 -242q-1 -242 99 -242z" />
    <glyph glyph-name="foursuperior" unicode="&#x2074;" 
d="M373 864v-178h-109v178h-211v97l234 401h86v-401h55v-97h-55zM264 961v210l-121 -210h121z" />
    <glyph glyph-name="fivesuperior" unicode="&#x2075;" 
d="M190 1128q236 0 236 -215q0 -119 -57 -177t-129 -58t-122 33t-73 73l78 72q45 -70 106 -72q37 0 61 30t24 98t-41 99q-40 30 -121 29h-60v322h293v-109h-195v-125z" />
    <glyph glyph-name="sixsuperior" unicode="&#x2076;" 
d="M61 963q0 171 84 283t217 140l33 -90q-134 -34 -196 -159q27 18 71 18q74 -1 113 -65t39 -166t-49 -175t-134 -73t-131 83q-47 84 -47 204zM170 965q0 -178 76 -181q29 0 48 32t19 99q0 148 -71 148q-35 0 -68 -14q-4 -28 -4 -84z" />
    <glyph glyph-name="sevensuperior" unicode="&#x2077;" 
d="M53 1249v113h377v-84l-182 -594h-117l180 565h-258z" />
    <glyph glyph-name="eightsuperior" unicode="&#x2078;" 
d="M68 1188q0 92 51 141t125 49t123 -49t49 -141t-62 -150q36 -22 52 -68t16 -87q0 -103 -52 -155t-129 -52t-128 51t-52 154q0 43 20 90q19 47 52 69q-65 56 -65 148zM317 878q-1 52 -23 82t-52 29q-30 0 -55 -30q-23 -31 -23 -81t24 -73t54 -23q31 0 53 22t22 74z
M311 1188q0 86 -69 88q-29 0 -49 -20q-21 -20 -21 -69q0 -48 20 -73q20 -24 50 -24q29 0 49 24t20 74z" />
    <glyph glyph-name="ninesuperior" unicode="&#x2079;" 
d="M424 1092q0 -123 -31 -205t-100 -143q-70 -60 -168 -87l-33 103q147 36 203 153q-25 -12 -57 -12q-84 -1 -130 63t-46 175t50 175t128 64q184 0 184 -286zM313 1087q0 183 -66 183q-35 0 -55 -36t-20 -98t17 -101q17 -38 54 -38t66 9q4 28 4 81z" />
    <glyph glyph-name="zeroinferior" unicode="&#x2080;" 
d="M449 342q-1 -162 -53 -258t-156 -96t-156 94q-51 94 -51 258q0 249 117 327q39 26 90 25q104 0 156 -94t53 -256zM240 96q100 0 100 242t-100 242t-99 -242q-1 -242 99 -242z" />
    <glyph glyph-name="oneinferior" unicode="&#x2081;" 
d="M207 2v545l-109 -58l-45 97l170 96h96v-680h-112z" />
    <glyph glyph-name="twoinferior" unicode="&#x2082;" 
d="M248 690q78 0 124 -50t46 -128t-29 -150t-82 -143q-53 -72 -82 -110h191v-107h-334v86q83 98 137 188t69 130t15 86q0 96 -72 96q-55 0 -112 -94l-76 59q81 137 205 137z" />
    <glyph glyph-name="threeinferior" unicode="&#x2083;" 
d="M233 96q87 0 86 109t-143 106v95q68 0 103 19t34 77q0 82 -75 82q-53 0 -111 -76l-72 63q87 117 201 117q60 0 114 -40t54 -118t-31 -112t-71 -58q108 -41 108 -170q0 -94 -55 -146t-129 -52t-128 33t-83 84l78 69q53 -80 120 -82z" />
    <glyph glyph-name="fourinferior" unicode="&#x2084;" 
d="M373 180v-178h-109v178h-211v96l234 402h86v-402h55v-96h-55zM264 276v211l-121 -211h121z" />
    <glyph glyph-name="fiveinferior" unicode="&#x2085;" 
d="M190 440q236 0 236 -215q0 -119 -57 -177t-129 -58t-122 33t-73 73l78 72q45 -70 106 -72q37 0 61 30t24 98t-41 99q-40 30 -121 29h-60v322h293v-109h-195v-125z" />
    <glyph glyph-name="sixinferior" unicode="&#x2086;" 
d="M61 274q0 170 84 283t217 141l33 -90q-134 -34 -196 -159q27 18 71 18q74 0 113 -65q39 -64 39 -166t-49 -176t-134 -72q-85 0 -131 83q-47 84 -47 203zM170 276q0 -177 76 -180q29 0 48 32t19 99q0 148 -71 148q-35 0 -68 -15q-4 -28 -4 -84z" />
    <glyph glyph-name="seveninferior" unicode="&#x2087;" 
d="M53 567v113h377v-84l-182 -594h-117l180 565h-258z" />
    <glyph glyph-name="eightinferior" unicode="&#x2088;" 
d="M68 500q0 92 51 141t125 49t123 -49t49 -141t-62 -150q36 -22 52 -68t16 -87q0 -103 -52 -155t-129 -52t-128 51t-52 154q0 43 20 90q19 47 52 69q-65 56 -65 148zM317 190q-1 52 -23 82t-52 29q-30 0 -55 -30q-23 -31 -23 -81t24 -73t54 -23q31 0 53 22t22 74zM311 500
q0 86 -69 88q-29 0 -49 -20q-21 -20 -21 -69q0 -48 20 -73t50 -25q29 0 49 25t20 74z" />
    <glyph glyph-name="nineinferior" unicode="&#x2089;" 
d="M424 414q0 -123 -31 -205t-101 -142t-167 -87l-33 102q148 36 203 154q-25 -12 -57 -13q-84 -1 -130 63t-46 175t50 175t128 64q184 0 184 -286zM313 410q0 182 -66 182q-35 0 -55 -36t-20 -98t17 -101q17 -38 65 -38q19 0 55 9q4 28 4 82z" />
    <glyph glyph-name="Euro" unicode="&#x20ac;" horiz-adv-x="819" 
d="M25 440v125h102l-2 107l2 104h-102v127h110q14 225 93 350t254 125t255 -152q25 -46 43 -102l-129 -49q-29 84 -64 128q-36 44 -120 44q-169 0 -188 -344h239v-127h-244v-110l2 -101h242v-125h-235q8 -162 55 -246t145 -83q116 0 170 163l131 -49q-77 -248 -309 -248
t-306 250q-26 88 -34 213h-110z" />
    <glyph glyph-name="uni20AE" unicode="&#x20ae;" horiz-adv-x="819" 
d="M481 0h-143v391l-213 -100v110l213 101v145l-213 -100v110l213 101v483h-283v125h707v-125h-281v-416l213 103v-111l-213 -102v-146l213 103v-111l-213 -102v-459z" />
    <glyph glyph-name="uni20B4" unicode="&#x20b4;" horiz-adv-x="819" 
d="M723 1054q0 -92 -64 -188h136v-104h-228q-46 -46 -88 -82l-92 -80h408v-104h-502q-35 -61 -35 -171t50 -165q50 -56 122 -56t115 38t78 122l131 -51q-31 -109 -114 -175t-198 -67q-232 0 -306 199q-26 70 -26 163t31 163h-116v104h184q46 53 151 143l23 19h-358v104h467
q86 82 86 180t-46 151q-46 52 -116 52q-120 0 -170 -151l-133 57q84 223 299 223q57 0 113 -19q198 -68 198 -305z" />
    <glyph glyph-name="tenge" unicode="&#x20b8;" horiz-adv-x="819" 
d="M55 1225v125h707v-125h-707zM481 944v-944h-143v944h-283v125h707v-125h-281z" />
    <glyph glyph-name="uni20B9" unicode="&#x20b9;" horiz-adv-x="819" 
d="M279 1227h-140v123h582v-123h-193q47 -92 58 -170h135v-123h-131q-10 -148 -89 -232t-214 -90l356 -612h-158l-346 608v113h82q199 0 215 213h-297v123h291q-31 170 -151 170z" />
    <glyph glyph-name="uni20BA" unicode="&#x20ba;" horiz-adv-x="819" 
d="M281 -16q-53 0 -101 12v573l-110 -43v115l110 43v133l-110 -43v115l110 43v418h144v-361l387 158v-115l-387 -158v-133l387 158v-115l-387 -157v-506q145 0 236 102t114 344l125 -22q-20 -407 -292 -520q-95 -41 -226 -41z" />
    <glyph glyph-name="afii61289" unicode="&#x2113;" horiz-adv-x="933" 
d="M211 895q0 406 169 491q54 27 126 27q104 0 172 -77t67 -218q0 -186 -98 -353t-278 -335v-41q0 -220 97 -257q30 -11 80 -11t110 34t94 81l40 -40q20 -20 41 -38q-118 -176 -319 -176q-299 0 -299 342q-27 -20 -51 -36t-49 -36q-16 38 -52 90q74 51 150 119v434z
M494 1294q-48 0 -87 -68q-38 -68 -38 -222v-412q241 267 239 524q0 98 -33 138t-81 40z" />
    <glyph glyph-name="afii61352" unicode="&#x2116;" horiz-adv-x="1507" 
d="M274 0h-139v1366h144l428 -1006v1006h139v-1366h-113l-459 1090v-1090zM1348 986q0 273 -134 269q-133 0 -133 -273t133 -269q134 0 134 273zM1400 713q-66 -111 -192 -111q-127 0 -192 122q-53 99 -53 263q0 250 137 346q48 33 116 33t116 -32t78 -85q56 -99 56 -262
t-66 -274z" />
    <glyph glyph-name="trademark" unicode="&#x2122;" horiz-adv-x="919" 
d="M238 1264v-486h-105v486h-117v102h338v-102h-116zM782 778v379l-100 -383h-59l-105 385v-381h-98v588h125l110 -410l107 410h121v-588h-101z" />
    <glyph glyph-name="uni2126" unicode="&#x2126;" horiz-adv-x="1013" 
d="M283 141q-209 233 -209 615q0 270 114 453t324 183q210 1 321 -174t111 -458q0 -373 -207 -619h193v-141h-332v141q79 92 137 252q58 161 59 373q1 211 -70 347t-210 136t-212 -141t-75 -379q0 -326 199 -588v-141h-336v141h193z" />
    <glyph glyph-name="estimated" unicode="&#x212e;" horiz-adv-x="1325" 
d="M281 563q0 -14 12 -14h725q14 0 14 14v268q0 50 -24 70q-147 143 -353 142q-205 -1 -346 -142q-29 -29 -28 -70v-268zM657 33q228 0 383 176h86q-80 -97 -202 -153t-256 -56q-258 0 -433 157q-176 157 -176 379t177 379q177 156 421 156q125 0 235 -43t190 -118
q172 -162 171 -388h-960q-12 0 -12 -16v-264q0 -64 85 -119q70 -49 151 -69q81 -21 140 -21z" />
    <glyph glyph-name="onethird" unicode="&#x2153;" horiz-adv-x="1241" 
d="M217 690v545l-108 -57l-46 96l170 96h97v-680h-113zM199 -14l-90 65l897 1323l90 -65zM1178 190q0 -94 -56 -146t-128 -52q-74 0 -129 33q-54 33 -83 84l78 69q52 -80 121 -82q86 0 86 94q0 72 -38 97t-105 24v95q68 0 102 19t35 77q0 82 -76 82q-53 0 -111 -76l-71 63
q87 117 201 117q61 0 114 -40t53 -118q-1 -78 -31 -112t-71 -58q109 -42 109 -170z" />
    <glyph glyph-name="twothirds" unicode="&#x2154;" horiz-adv-x="1241" 
d="M274 1376q78 0 124 -50t46 -128q0 -123 -82 -250q-26 -41 -54 -78t-56 -75h190v-107h-333v86q88 103 139 190q51 88 66 128t16 86q0 96 -72 96q-54 0 -113 -94l-75 59q81 137 204 137zM264 -14l-90 65l897 1323l90 -65zM991 96q87 0 86 109t-143 106v95q68 0 102 19
t35 77q0 82 -76 82q-53 0 -110 -76l-72 63q87 117 201 117q61 0 114 -40q54 -40 54 -118t-31 -112t-72 -58q109 -42 109 -170q0 -94 -55 -146t-129 -52t-128 33t-83 84l77 69q52 -80 121 -82z" />
    <glyph glyph-name="onefifth" unicode="&#x2155;" horiz-adv-x="1241" 
d="M199 -14l-90 65l897 1323l90 -65zM246 690v545l-109 -57l-45 96l170 96h96v-680h-112zM1014 224q0 68 -40 99q-40 30 -122 29h-59v322h292v-109h-194v-125q166 0 216 -107q19 -43 19 -106q0 -121 -57 -179t-129 -58t-122 33t-73 73l78 72q45 -70 107 -72q36 0 60 30
t24 98z" />
    <glyph glyph-name="twofifths" unicode="&#x2156;" horiz-adv-x="1241" 
d="M283 1376q78 0 124 -50t46 -128t-24 -137q-25 -59 -55 -107t-58 -84q-28 -37 -56 -75h191v-107h-334v86q88 103 139 190q50 88 66 128t16 86q0 96 -72 96q-55 0 -112 -94l-76 59q81 137 205 137zM227 -14l-90 65l897 1323l90 -65zM1049 224q0 68 -40 99q-40 30 -122 29
h-60v322h293v-109h-194v-125q166 0 216 -107q19 -43 19 -106q0 -121 -57 -179q-56 -58 -128 -58t-122 33t-74 73l78 72q45 -70 107 -72q37 0 61 30t23 98z" />
    <glyph glyph-name="threefifths" unicode="&#x2157;" horiz-adv-x="1241" 
d="M489 879q0 -95 -55 -147q-54 -52 -128 -52t-129 33q-54 33 -83 84l78 69q53 -80 121 -82q86 0 86 95q0 73 -38 97t-105 23v95q68 0 102 19t35 77q0 82 -76 82q-53 0 -111 -76l-71 64q88 118 200 116q61 0 115 -40t53 -118t-31 -112t-71 -57q108 -41 108 -170zM250 -14
l-90 65l897 1323l90 -65zM938 440q236 0 236 -213q0 -121 -58 -179t-128 -58q-72 0 -123 33q-50 33 -72 73l77 72q46 -70 112 -72q32 0 56 30t23 98q0 68 -40 99q-40 30 -122 29h-59v322h293v-109h-195v-125z" />
    <glyph glyph-name="fourfifths" unicode="&#x2158;" horiz-adv-x="1241" 
d="M401 864v-178h-108v178h-211v97l233 401h86v-401h56v-97h-56zM293 961v210l-121 -210h121zM211 -14l-90 65l897 1323l90 -65zM901 440q236 0 236 -213q1 -121 -57 -179t-130 -58t-122 33t-72 73l78 72q45 -70 106 -72q36 0 60 30t24 98t-40 99q-40 30 -122 29h-59v322
h293v-109h-195v-125z" />
    <glyph glyph-name="onesixth" unicode="&#x2159;" horiz-adv-x="1241" 
d="M240 690v545l-109 -57l-45 96l170 96h96v-680h-112zM207 -14l-90 65l897 1323l90 -65zM723 274q0 170 84 283t217 141l33 -90q-136 -35 -197 -159q27 18 72 18q74 0 112 -65q38 -64 39 -166q0 -102 -49 -176t-134 -72q-85 0 -134 90q-43 77 -43 196zM975 227
q0 148 -72 148q-35 0 -67 -15q-2 -14 -3 -41t-2 -43q0 -177 76 -180q29 0 49 32t19 99z" />
    <glyph glyph-name="fivesixths" unicode="&#x215a;" horiz-adv-x="1241" 
d="M258 1128q236 0 236 -213q0 -121 -58 -179t-128 -58q-72 0 -123 33q-50 33 -72 73l77 72q46 -70 112 -72q32 0 56 30t23 98q0 68 -40 99q-40 30 -122 29h-59v322h293v-109h-195v-125zM254 -14l-90 65l897 1323l90 -65zM756 274q0 170 84 283t217 141l33 -90
q-136 -35 -197 -159q27 18 72 18q75 0 113 -65q38 -64 38 -166t-49 -176t-134 -72q-85 0 -134 90q-43 77 -43 196zM864 276q0 -177 76 -180q28 0 48 32t20 99q0 148 -72 148q-35 0 -68 -15q-4 -28 -4 -84z" />
    <glyph glyph-name="oneeighth" unicode="&#x215b;" horiz-adv-x="1241" 
d="M231 690v545l-108 -57l-45 96l170 96h96v-680h-113zM199 -14l-90 65l897 1323l90 -65zM954 690q74 0 123 -49t49 -141t-61 -150q35 -22 51 -68t17 -87q-1 -103 -53 -155t-129 -52t-128 51t-51 154q0 43 20 90q19 47 52 69q-64 56 -65 148t50 141t125 49zM1028 190
q0 52 -22 82t-54 29q-30 0 -54 -30q-24 -31 -24 -81t24 -73t54 -23t54 22q22 22 22 74zM1022 500q0 86 -70 88q-29 0 -49 -20t-20 -69q0 -48 20 -73t49 -25q30 0 50 25t20 74z" />
    <glyph glyph-name="threeeighths" unicode="&#x215c;" horiz-adv-x="1241" 
d="M270 784q87 0 86 109t-143 106v95q69 0 103 19t34 77q0 82 -76 82q-53 0 -110 -76l-72 64q88 118 201 116q61 0 115 -40t53 -118q0 -78 -31 -112t-72 -57q109 -42 109 -170q0 -95 -55 -147t-129 -52t-128 33t-83 84l78 69q53 -80 120 -82zM231 -14l-90 65l897 1323
l90 -65zM799 500q0 92 51 141t125 49t123 -49t49 -141t-62 -150q35 -22 51 -68t17 -87q0 -103 -52 -155t-129 -52t-128 51t-51 154q0 43 19 90t52 69q-65 56 -65 148zM974 94q30 0 52 22t23 74q0 52 -23 82q-24 30 -54 29q-30 0 -54 -30q-24 -31 -23 -81q0 -50 24 -73
q25 -23 55 -23zM1042 500q0 86 -69 88q-29 0 -49 -20t-20 -69q0 -48 20 -73t49 -25t49 25t20 74z" />
    <glyph glyph-name="fiveeighths" unicode="&#x215d;" horiz-adv-x="1241" 
d="M221 1128q236 0 236 -213q1 -121 -57 -179t-130 -58t-122 33t-72 73l78 72q45 -70 106 -72q37 0 61 30q23 30 23 98t-40 99q-40 30 -122 29h-59v322h293v-109h-195v-125zM219 -14l-90 65l897 1323l90 -65zM960 690q74 0 123 -49t49 -141t-61 -150q35 -22 51 -68t17 -87
q-1 -103 -53 -155t-129 -52t-128 51t-51 154q0 43 20 90q19 47 52 69q-64 56 -65 148t51 141q50 49 124 49zM1034 190q0 52 -22 82t-54 29q-30 0 -54 -30q-24 -31 -24 -81t24 -73t54 -23t54 22q22 22 22 74zM1028 500q0 86 -70 88q-29 0 -49 -20t-20 -69q0 -48 20 -73
t49 -25t50 25q20 25 20 74z" />
    <glyph glyph-name="seveneighths" unicode="&#x215e;" horiz-adv-x="1241" 
d="M111 1249v113h376v-84l-182 -594h-117l181 565h-258zM186 -14l-90 65l897 1323l90 -65zM948 690q74 0 123 -49t49 -141t-61 -150q35 -22 51 -68t16 -87q0 -103 -52 -155t-129 -52t-128 51t-51 154q0 43 19 90t53 69q-64 56 -65 148t50 141t125 49zM946 94q30 0 54 22
q22 22 22 74t-23 82t-53 29q-30 0 -54 -30q-24 -31 -24 -81t24 -73t54 -23zM1016 500q0 86 -70 88q-29 0 -49 -20t-20 -69q0 -48 20 -73t49 -25q30 0 50 25t20 74z" />
    <glyph glyph-name="partialdiff" unicode="&#x2202;" horiz-adv-x="782" 
d="M203 494q0 -190 47 -292t132 -102q84 0 142 114t58 311q0 198 -27 296q-75 58 -164 60q-188 0 -188 -387zM711 586q0 -449 -200 -572q-60 -37 -130 -37q-147 1 -230 135t-83 378t87 378t232 133q79 0 145 -55q-104 279 -360 322l31 110q212 -27 344 -207
q78 -104 121 -261q43 -158 43 -324z" />
    <glyph glyph-name="Delta" unicode="&#x2206;" horiz-adv-x="909" 
d="M449 1083l-222 -960h451zM53 0l348 1366h99l356 -1366h-803z" />
    <glyph glyph-name="product" unicode="&#x220f;" horiz-adv-x="935" 
d="M801 1225v-1225h-142v1225h-380v-1225h-144v1225h-100v141h868v-141h-102z" />
    <glyph glyph-name="summation" unicode="&#x2211;" horiz-adv-x="727" 
d="M63 0v143l373 543l-373 535v145h623v-141h-469l381 -537l-381 -547h471v-141h-625z" />
    <glyph glyph-name="minus" unicode="&#x2212;" horiz-adv-x="819" 
d="M49 471v133h719v-133h-719z" />
    <glyph glyph-name="uni2215" unicode="&#x2215;" horiz-adv-x="743" 
d="M123 -51l-117 49l619 1554l114 -49z" />
    <glyph glyph-name="uni2219" unicode="&#x2219;" horiz-adv-x="333" 
d="M63 743q0 43 30 74t73 31t74 -31q30 -31 30 -74t-30 -73t-74 -29q-43 -1 -73 29t-30 73z" />
    <glyph glyph-name="radical" unicode="&#x221a;" horiz-adv-x="786" 
d="M45 485v133h178l127 -403l295 1253l121 -28l-344 -1440h-129l-158 485h-90z" />
    <glyph glyph-name="infinity" unicode="&#x221e;" horiz-adv-x="804" 
d="M235 809q-33 0 -56 -26t-33 -82q-9 -57 -9 -119t25 -114t71 -52q58 0 101 134q10 33 16 62q-33 98 -57 148q-25 49 -58 49zM674 618q0 193 -88 193q-45 0 -73 -56t-54 -143q44 -142 84 -180q16 -16 41 -16q43 0 67 65q23 64 23 137zM215 301q-89 0 -141 88t-53 232
q-1 143 57 223t143 80q59 0 107 -39t78 -148q37 109 79 147q43 38 118 38t128 -82t53 -215q0 -134 -50 -229t-132 -95q-145 0 -196 176q-74 -176 -191 -176z" />
    <glyph glyph-name="integral" unicode="&#x222b;" horiz-adv-x="538" 
d="M518 1239q-92 0 -130 -59t-38 -207v-969q0 -213 -87 -306t-240 -93v137q92 4 139 60t47 208v971q0 213 78 303t231 92v-137z" />
    <glyph glyph-name="approxequal" unicode="&#x2248;" horiz-adv-x="786" 
d="M659 242q-53 -28 -114 -29q-61 0 -156 38q-96 38 -157 38t-134 -58l-55 113q31 28 85 56t110 28t159 -38t162 -38q58 0 129 60l53 -113q-29 -29 -82 -57zM128 816q54 28 110 28t159 -38t162 -38t129 59l53 -112q-29 -29 -82 -58t-112 -29t-157 38q-98 37 -158 38
q-61 1 -134 -57l-55 113q31 28 85 56z" />
    <glyph glyph-name="notequal" unicode="&#x2260;" horiz-adv-x="819" 
d="M47 272v134h207l141 266h-348v131h420l111 213l127 -58l-82 -155h149v-131h-213l-141 -266h354v-134h-420l-116 -206l-123 59l80 147h-146z" />
    <glyph glyph-name="lessequal" unicode="&#x2264;" horiz-adv-x="819" 
d="M68 0v127h684v-127h-684zM702 293l-634 336v102l632 316l50 -127l-492 -240l494 -258z" />
    <glyph glyph-name="greaterequal" unicode="&#x2265;" horiz-adv-x="819" 
d="M68 0v127h684v-127h-684zM68 422l493 258l-491 240l49 127l633 -316v-102l-635 -336z" />
    <glyph glyph-name="lozenge" unicode="&#x25ca;" horiz-adv-x="774" 
d="M387 1208l-186 -475l190 -504l184 502zM387 -33l-301 764l301 744l303 -744z" />
    <glyph glyph-name="fi" unicode="&#xf001;" horiz-adv-x="788" 
d="M532 0v977h136v-977h-136zM270 1075v-98h160v-119h-160v-858h-135v858h-98v119h98v98q0 158 78 237t217 80q140 1 242 -100l-80 -90q-74 74 -155 75t-124 -44t-43 -158z" />
    <glyph glyph-name="fl" unicode="&#xf002;" horiz-adv-x="798" 
d="M481 1384q74 0 197 -16v-1368h-135v1262q-17 2 -33 2h-33q-205 0 -209 -254v-33h162v-119h-160v-858h-135v858h-98v119h98v41q0 191 96 278q96 88 250 88z" />
    <glyph glyph-name="oneseventh" unicode="&#xf506;" horiz-adv-x="1241" 
d="M211 690v545l-109 -57l-45 96l170 96h97v-680h-113zM150 -14l-91 65l897 1323l91 -65zM793 567v113h376v-84l-182 -594h-117l181 565h-258z" />
    <glyph glyph-name="twosevenths" unicode="&#xf507;" horiz-adv-x="1241" 
d="M250 1376q78 0 124 -50t46 -128t-29 -150t-82 -143q-53 -72 -82 -110h191v-107h-334v86q83 98 137 188t69 130t15 86q0 96 -72 96q-55 0 -112 -94l-76 59q81 137 205 137zM209 -14l-90 65l897 1323l90 -65zM799 567v113h377v-84l-183 -594h-116l180 565h-258z" />
    <glyph glyph-name="threesevenths" unicode="&#xf508;" horiz-adv-x="1241" 
d="M264 784q87 0 86 109t-143 106v95q69 0 103 19t34 77q0 82 -76 82q-53 0 -110 -76l-72 64q88 118 201 116q61 0 114 -40t53 -118t-30 -112q-31 -34 -72 -57q109 -42 109 -170q0 -95 -55 -147t-129 -52t-129 33q-54 33 -82 84l77 69q52 -80 121 -82zM195 -14l-91 65
l897 1323l91 -65zM797 567v113h377v-84l-183 -594h-117l181 565h-258z" />
    <glyph glyph-name="foursevenths" unicode="&#xf509;" horiz-adv-x="1241" 
d="M383 864v-178h-109v178h-211v97l234 401h86v-401h55v-97h-55zM274 961v210l-120 -210h120zM190 -14l-90 65l897 1323l90 -65zM780 567v113h377v-84l-182 -594h-117l180 565h-258z" />
    <glyph glyph-name="fivesevenths" unicode="&#xf50a;" horiz-adv-x="1241" 
d="M446 915q0 -121 -57 -179t-129 -58t-122 33t-72 73l77 72q45 -70 111 -72q32 0 56 30t24 98t-40 99q-40 30 -122 29h-59v322h293v-109h-195v-125q166 0 216 -107q19 -43 19 -106zM182 -14l-90 65l897 1323l90 -65zM780 567v113h377v-84l-182 -594h-117l180 565h-258z" />
    <glyph glyph-name="sixsevenths" unicode="&#xf50b;" horiz-adv-x="1241" 
d="M86 963q0 171 84 283t217 140l33 -90q-136 -35 -197 -159q27 18 72 18q74 -1 113 -65q38 -64 38 -166t-49 -175t-134 -73t-134 90q-43 77 -43 197zM195 965q0 -178 75 -181q28 0 48 32t20 99q0 148 -72 148q-35 0 -67 -14q-4 -28 -4 -84zM174 -14l-90 65l897 1323l90 -65
zM766 567v113h377v-84l-182 -594h-117l180 565h-258z" />
    <glyph glyph-name="oneninth" unicode="&#xf50c;" horiz-adv-x="1241" 
d="M244 690v545l-109 -57l-45 96l170 96h96v-680h-112zM178 -14l-90 65l897 1323l90 -65zM1130 414q0 -121 -30 -204t-101 -143q-70 -60 -168 -87l-32 102q147 36 202 154q-25 -12 -57 -13q-84 -1 -130 63t-46 175t50 175t128 64q184 0 184 -286zM879 458q0 -62 17 -101
q17 -38 65 -38q17 0 55 9q4 28 4 96q0 168 -74 168q-29 0 -48 -36t-19 -98z" />
    <glyph glyph-name="twoninths" unicode="&#xf50d;" horiz-adv-x="1241" 
d="M256 1376q78 0 124 -50t46 -128t-29 -150t-82 -143q-53 -72 -82 -110h191v-107h-334v86q83 98 137 188t69 130t15 86q0 96 -71 96q-56 0 -113 -94l-76 59q81 137 205 137zM221 -14l-90 65l897 1323l90 -65zM1133 414q0 -351 -299 -434l-33 102q146 36 203 154
q-25 -12 -58 -13q-84 -1 -130 63t-46 175t50 175t128 64q185 0 185 -286zM881 458q0 -62 17 -101q17 -38 65 -38q17 0 55 9q4 28 4 96q0 168 -74 168q-29 0 -48 -36t-19 -98z" />
    <glyph glyph-name="fourninths" unicode="&#xf50e;" horiz-adv-x="1241" 
d="M375 864v-178h-109v178h-211v97l234 401h86v-401h55v-97h-55zM266 961v210l-121 -210h121zM217 -14l-90 65l897 1323l90 -65zM1157 414q0 -123 -31 -205q-30 -82 -100 -142t-168 -87l-33 102q148 36 203 154q-25 -12 -57 -13q-84 -1 -130 63t-46 175t50 175t128 64
q184 0 184 -286zM1047 410q0 182 -67 182q-36 0 -56 -36t-19 -98q-1 -62 17 -101q18 -38 65 -38q19 0 55 9q5 35 5 82z" />
    <glyph glyph-name="fiveninths" unicode="&#xf50f;" horiz-adv-x="1241" 
d="M223 1128q236 0 236 -213q1 -121 -57 -179t-130 -58t-121 33q-50 33 -73 73l78 72q45 -70 106 -72q37 0 61 30q23 30 23 98t-40 99q-40 30 -122 29h-59v322h293v-109h-195v-125zM209 -14l-90 65l897 1323l90 -65zM1130 414q0 -121 -30 -204t-101 -143q-70 -60 -168 -87
l-32 102q147 36 202 154q-25 -12 -57 -13q-84 -1 -130 63t-46 175t50 175t128 64q184 0 184 -286zM879 458q0 -62 17 -101q17 -38 65 -38q17 0 55 9q4 28 4 96q0 168 -74 168q-29 0 -48 -36t-19 -98z" />
    <glyph glyph-name="sevenninths" unicode="&#xf510;" horiz-adv-x="1241" 
d="M104 1249v113h377v-84l-182 -594h-117l180 565h-258zM182 -14l-90 65l897 1323l90 -65zM1139 414q0 -123 -31 -205q-30 -82 -100 -142t-168 -87l-33 102q148 36 203 154q-25 -12 -58 -13q-84 -1 -130 63t-46 175t50 175t128 64q185 0 185 -286zM887 458q0 -62 17 -101
q17 -38 65 -38q17 0 55 9q4 28 4 96q0 168 -74 168q-29 0 -48 -36t-19 -98z" />
    <glyph glyph-name="eightninths" unicode="&#xf511;" horiz-adv-x="1241" 
d="M117 1188q0 92 51 141t125 49t123 -49t49 -141t-62 -150q35 -22 51 -68t17 -87q0 -103 -52 -155t-129 -52t-128 51t-51 154q0 43 19 90t52 69q-65 56 -65 148zM292 782q30 0 52 22t23 74q0 52 -23 82q-24 30 -54 29q-30 0 -54 -30q-24 -31 -23 -81q0 -50 24 -73
q25 -23 55 -23zM360 1188q0 86 -69 88q-29 0 -49 -20t-20 -69q0 -48 20 -73q20 -24 49 -24t49 24t20 74zM221 -14l-90 65l897 1323l90 -65zM1147 414q0 -123 -31 -205q-30 -82 -100 -142t-168 -87l-33 102q148 36 203 154q-25 -12 -57 -13q-85 -1 -131 63t-46 175t50 175
t129 64q184 0 184 -286zM1036 410q0 182 -66 182q-36 0 -56 -36t-19 -98q0 -62 17 -101q17 -38 65 -38q17 0 55 9q4 28 4 82z" />
    <glyph glyph-name="f_b" unicode="&#xf600;" horiz-adv-x="1241" 
d="M360 1278q-48 0 -68 -40t-22 -126v-135h160v-119h-160v-858h-135v858h-98v119h98v156q0 123 56 191t153 69q97 0 176 -50l-45 -98q-67 33 -115 33zM1018 499q0 185 -48 282t-124 97q-77 0 -133 -53v-698q45 -29 100 -29q98 0 152 108q53 108 53 293zM578 1366h135v-414
q76 49 149 49q74 1 126 -29q178 -100 177 -474q0 -243 -96 -382t-235 -139q-140 0 -256 74v1315z" />
    <glyph glyph-name="f_j" unicode="&#xf601;" horiz-adv-x="788" 
d="M668 977v-1004q0 -203 -117 -320q-33 -32 -64 -56l-75 98q53 51 87 112t33 166v1004h136zM270 1075v-98h160v-119h-160v-858h-135v858h-98v119h98v98q0 158 78 237t217 80q140 1 242 -100l-80 -90q-74 74 -155 75t-124 -44t-43 -158z" />
    <glyph glyph-name="f_k" unicode="&#xf602;" horiz-adv-x="1181" 
d="M360 1278q-48 0 -68 -40t-22 -126v-135h160v-119h-160v-858h-135v858h-98v119h98v156q0 123 56 191t153 69q97 0 176 -50l-45 -98q-67 33 -115 33zM709 0h-136v1366h136v-770l256 381h149l-223 -326l270 -651h-139l-225 535l-88 -127v-408z" />
    <glyph glyph-name="f_t" unicode="&#xf603;" horiz-adv-x="993" 
d="M360 1278q-48 0 -68 -40t-22 -126v-135h160v-119h-160v-858h-135v858h-98v119h98v156q0 123 56 191t153 69q97 0 176 -50l-45 -98q-67 33 -115 33zM625 197v661h-119v119h119v266h137v-266h180v-119h-182v-657q0 -107 67 -107q51 0 95 37l47 -88q-64 -64 -172 -66
q-172 0 -172 220z" />
    <glyph glyph-name="f_h" unicode="&#xf604;" horiz-adv-x="1275" 
d="M360 1278q-48 0 -68 -40t-22 -126v-135h160v-119h-160v-858h-135v858h-98v119h98v156q0 123 56 191t153 69q97 0 176 -50l-45 -98q-67 33 -115 33zM1163 756v-756h-135v692q0 102 -31 148t-109 45q-78 0 -173 -92v-793h-135v1366h135v-448q100 85 213 84t174 -73
q61 -71 61 -173z" />
    <glyph glyph-name="a.smcp" unicode="&#xf605;" horiz-adv-x="780" 
d="M600 0l-84 315h-260l-82 -315h-135l295 1069h104l303 -1069h-141zM383 842l-102 -416h202z" />
    <glyph glyph-name="b.smcp" unicode="&#xf606;" horiz-adv-x="731" 
d="M479 569q183 -52 183 -281q0 -126 -73 -207t-202 -81h-262v1069h242q125 0 189 -72t65 -194q0 -174 -142 -234zM520 305q0 97 -44 145t-122 48h-96v-373h125q137 0 137 180zM481 799q0 145 -123 145h-100v-319h102q57 0 90 47q31 47 31 127z" />
    <glyph glyph-name="c.smcp" unicode="&#xf607;" horiz-adv-x="753" 
d="M90 532q0 276 97 417t239 141q98 0 171 -60t108 -162l-109 -65q-31 63 -71 107t-101 44q-88 0 -139 -110t-51 -313q0 -201 54 -313q56 -112 142 -112q66 0 106 41t66 113l113 -61q-83 -219 -289 -222q-74 0 -135 32q-201 105 -201 523z" />
    <glyph glyph-name="d.smcp" unicode="&#xf608;" horiz-adv-x="821" 
d="M741 548q0 -187 -53 -303q-112 -245 -352 -245h-211v1069h203q133 0 225 -53q82 -55 135 -168t53 -300zM602 542q0 402 -260 402h-82v-819h59q120 0 177 57q106 102 106 360z" />
    <glyph glyph-name="e.smcp" unicode="&#xf609;" horiz-adv-x="712" 
d="M125 0v1069h496v-129h-359v-313h258v-129h-258v-373h387v-125h-524z" />
    </font>
</defs>
</svg>
